<svg width="70" height="69" viewBox="0 0 70 69" fill="none" xmlns="http://www.w3.org/2000/svg">
<rect x="0.661499" y="0.61084" width="68.466" height="67.5769" rx="16" fill="url(#paint0_linear)"/>
<path opacity="0.4" d="M43.7142 14.0229H26.9542C19.6742 14.0229 15.3342 18.3629 15.3342 25.6429V42.3829C15.3342 49.6829 19.6742 54.0229 26.9542 54.0229H43.6942C50.9742 54.0229 55.3142 49.6829 55.3142 42.403V25.6429C55.3342 18.3629 50.9942 14.0229 43.7142 14.0229Z" fill="white"/>
<path d="M43.1141 26.2427C40.1541 23.3027 35.3541 23.3027 32.4141 26.2427C31.4373 27.2175 30.7457 28.4409 30.4144 29.7806C30.083 31.1202 30.1244 32.5249 30.5341 33.8427L25.8341 38.5427C25.5141 38.8827 25.2741 39.5427 25.3541 40.0227L25.6541 42.2027C25.7541 42.9227 26.4341 43.6027 27.1541 43.7027L29.3341 44.0227C29.8141 44.0827 30.4741 43.8827 30.8141 43.5227L31.6341 42.7027C31.8341 42.5227 31.8341 42.2027 31.6341 42.0027L29.6941 40.0627C29.5593 39.9192 29.4842 39.7297 29.4842 39.5327C29.4842 39.3358 29.5593 39.1462 29.6941 39.0027C29.9741 38.7227 30.4541 38.7227 30.7541 39.0027L32.6941 40.9427C32.8741 41.1227 33.1941 41.1227 33.3941 40.9427L35.5141 38.8427C38.0941 39.6427 41.0541 39.0227 43.1141 36.9827C44.536 35.5573 45.3345 33.6261 45.3345 31.6127C45.3345 29.5994 44.536 27.6682 43.1141 26.2427ZM37.8341 34.0227C37.1711 34.0227 36.5352 33.7593 36.0664 33.2905C35.5975 32.8216 35.3341 32.1858 35.3341 31.5227C35.3341 30.8597 35.5975 30.2238 36.0664 29.755C36.5352 29.2861 37.1711 29.0227 37.8341 29.0227C38.4972 29.0227 39.1331 29.2861 39.6019 29.755C40.0707 30.2238 40.3341 30.8597 40.3341 31.5227C40.3341 32.1858 40.0707 32.8216 39.6019 33.2905C39.1331 33.7593 38.4972 34.0227 37.8341 34.0227Z" fill="white"/>
<defs>
<linearGradient id="paint0_linear" x1="-3.7748" y1="37.6542" x2="76.2562" y2="68.8896" gradientUnits="userSpaceOnUse">
<stop stop-color="#E70060"/>
<stop offset="0.973958" stop-color="#FC8F0C"/>
</linearGradient>
</defs>
</svg>
