<svg width="70" height="69" viewBox="0 0 70 69" fill="none" xmlns="http://www.w3.org/2000/svg"><rect x=".549" y=".585" width="68.466" height="67.577" rx="16" fill="url(#paint0_linear)"/><path opacity=".4" d="M45.718 55.292h-20c-4.4 0-8-3.6-8-8v-24c0-4.4 3.6-8 8-8h20c4.4 0 8 3.6 8 8v24c0 4.4-3.6 8-8 8z" fill="#fff"/><path d="M44.218 33.292h-17c-1.92 0-3.5-1.58-3.5-3.5v-5c0-1.92 1.58-3.5 3.5-3.5h17c1.92 0 3.5 1.58 3.5 3.5v5c0 1.92-1.58 3.5-3.5 3.5zM33.438 45.452l-1.3-1.3 1.24-1.24c.58-.58.58-1.54 0-2.12a1.508 1.508 0 00-2.12 0l-1.24 1.24-1.18-1.18a1.508 1.508 0 00-2.12 0c-.58.58-.58 1.54 0 2.12l1.18 1.18-1.24 1.24c-.58.58-.58 1.54 0 2.12.3.3.68.44 1.06.44s.76-.14 1.06-.44l1.24-1.24 1.3 1.3c.3.3.68.44 1.06.44s.76-.14 1.06-.44c.58-.58.58-1.54 0-2.12zM44.739 43.952c-1.1 0-2.02-.9-2.02-2s.88-2 1.98-2h.04c1.1 0 2 .9 2 2s-.9 2-2 2zM40.699 48.272c-1.1 0-2-.88-2-1.98v-.04c0-1.1.9-2 2-2s2 .9 2 2-.9 2.02-2 2.02z" fill="#fff"/><defs><linearGradient id="paint0_linear" x1="-3.887" y1="37.628" x2="76.144" y2="68.864" gradientUnits="userSpaceOnUse"><stop stop-color="#E70060"/><stop offset=".974" stop-color="#FC8F0C"/></linearGradient></defs></svg>