<svg width="70" height="69" viewBox="0 0 70 69" fill="none" xmlns="http://www.w3.org/2000/svg"><rect x=".661" y=".611" width="68.466" height="67.577" rx="16" fill="url(#paint0_linear)"/><path opacity=".4" d="M47.79 32.899v8c0 .52-.02 1.02-.08 1.5-.46 5.4-3.64 8.08-9.5 8.08h-.8c-.5 0-.98.24-1.28.64l-2.4 3.2c-1.06 1.42-2.78 1.42-3.84 0l-2.4-3.2a1.85 1.85 0 00-1.28-.64h-.8c-6.38 0-9.58-1.58-9.58-9.58v-8c0-5.86 2.7-9.04 8.08-9.5.48-.06.98-.08 1.5-.08h12.8c6.38 0 9.58 3.2 9.58 9.58z" fill="#fff"/><path d="M31.81 39.319c-1.12 0-2-.9-2-2s.9-2 2-2 2 .9 2 2-.88 2-2 2zM38.81 39.319c-1.12 0-2-.9-2-2s.9-2 2-2 2 .9 2 2-.9 2-2 2zM24.83 39.319c-1.12 0-2-.9-2-2s.9-2 2-2 2 .9 2 2-.9 2-2 2z" fill="#fff"/><path d="M55.79 24.899v8c0 5.88-2.7 9.04-8.08 9.5.06-.48.08-.98.08-1.5v-8c0-6.38-3.2-9.58-9.58-9.58h-12.8c-.52 0-1.02.02-1.5.08.46-5.38 3.64-8.08 9.5-8.08h12.8c6.38 0 9.58 3.2 9.58 9.58z" fill="#fff"/><defs><linearGradient id="paint0_linear" x1="-3.775" y1="37.654" x2="76.256" y2="68.89" gradientUnits="userSpaceOnUse"><stop stop-color="#E70060"/><stop offset=".974" stop-color="#FC8F0C"/></linearGradient></defs></svg>