<svg width="70" height="69" viewBox="0 0 70 69" fill="none" xmlns="http://www.w3.org/2000/svg"><rect x=".661" y=".611" width="68.466" height="67.577" rx="16" fill="url(#paint0_linear)"/><path opacity=".4" d="M52.895 24.4v20c0 6-3 10-10 10h-14c2.42-1.82 4-4.74 4-8 0-5.52-4.48-10-10-10-2.26 0-4.34.74-6 2v-14c0-6 3-10 10-10h16c7 0 10 4 10 10z" fill="#fff"/><path fill-rule="evenodd" clip-rule="evenodd" d="M39.895 17.9a1.5 1.5 0 011.5 1.5v4c0 1.371 1.127 2.5 2.5 2.5h4a1.5 1.5 0 110 3h-4a5.513 5.513 0 01-5.5-5.5v-4a1.5 1.5 0 011.5-1.5z" fill="#fff"/><path d="M22.895 36.4c-5.52 0-10 4.48-10 10s4.48 10 10 10 10-4.48 10-10-4.48-10-10-10zm-1.68 12.54c.5.5.5 1.32 0 1.84-.26.26-.58.38-.92.38-.34 0-.66-.12-.92-.38l-3.46-3.46a1.316 1.316 0 010-1.84l3.46-3.46c.5-.5 1.32-.5 1.84 0 .5.5.5 1.32 0 1.84l-2.54 2.54 2.54 2.54zm8.64-1.62l-3.46 3.46c-.26.26-.58.38-.92.38-.34 0-.66-.12-.92-.38a1.316 1.316 0 010-1.84l2.54-2.54-2.54-2.54a1.316 1.316 0 010-1.84c.5-.5 1.32-.5 1.84 0l3.46 3.46c.5.52.5 1.32 0 1.84z" fill="#fff"/><defs><linearGradient id="paint0_linear" x1="14.595" y1="-28.186" x2="102.606" y2="-10.104" gradientUnits="userSpaceOnUse"><stop stop-color="#40CA69"/><stop offset=".974" stop-color="#0CFCD1"/></linearGradient></defs></svg>