<svg width="70" height="69" viewBox="0 0 70 69" fill="none" xmlns="http://www.w3.org/2000/svg">
<rect x="0.661621" y="0.611084" width="68.466" height="67.5769" rx="16" fill="url(#paint0_linear)"/>
<path opacity="0.4" d="M55.8308 27.0724V29.5324H15.8308V26.6124C15.8308 22.0324 19.5508 18.3324 24.1308 18.3324H43.8308V23.4724C43.8308 26.0124 45.3508 27.5324 47.8908 27.5324H53.7708C54.5708 27.5324 55.2508 27.3924 55.8308 27.0724Z" fill="white"/>
<path d="M15.8308 29.5325V44.4525C15.8308 49.0325 19.5508 52.7325 24.1308 52.7325H47.5308C52.1108 52.7325 55.8308 49.0325 55.8308 44.4525V29.5325H15.8308ZM27.8308 46.0325H23.8308C23.0108 46.0325 22.3308 45.3525 22.3308 44.5325C22.3308 43.7125 23.0108 43.0325 23.8308 43.0325H27.8308C28.6508 43.0325 29.3308 43.7125 29.3308 44.5325C29.3308 45.3525 28.6508 46.0325 27.8308 46.0325ZM40.8308 46.0325H32.8308C32.0108 46.0325 31.3308 45.3525 31.3308 44.5325C31.3308 43.7125 32.0108 43.0325 32.8308 43.0325H40.8308C41.6508 43.0325 42.3308 43.7125 42.3308 44.5325C42.3308 45.3525 41.6508 46.0325 40.8308 46.0325Z" fill="white"/>
<path d="M53.7708 13.5325H47.8908C45.3508 13.5325 43.8308 15.0525 43.8308 17.5925V23.4725C43.8308 26.0125 45.3508 27.5325 47.8908 27.5325H53.7708C56.3108 27.5325 57.8308 26.0125 57.8308 23.4725V17.5925C57.8308 15.0525 56.3108 13.5325 53.7708 13.5325ZM49.8508 24.6725C49.7908 24.7325 49.6508 24.8125 49.5508 24.8125L47.4708 25.1125C47.4108 25.1325 47.3308 25.1325 47.2708 25.1325C46.9708 25.1325 46.7108 25.0325 46.5308 24.8325C46.4116 24.7101 46.3238 24.5607 46.2751 24.397C46.2263 24.2332 46.218 24.0601 46.2508 23.8925L46.5508 21.8125C46.5708 21.7125 46.6308 21.5725 46.6908 21.5125L50.0908 18.1125C50.1508 18.2525 50.2108 18.4125 50.2708 18.5725C50.3508 18.7325 50.4308 18.8725 50.5108 19.0125C50.5708 19.1325 50.6508 19.2525 50.7308 19.3325C50.8108 19.4525 50.8908 19.5725 50.9508 19.6325C51.1358 19.8782 51.3508 20.1 51.5908 20.2925C51.6308 20.3325 51.6708 20.3725 51.6908 20.3725C51.7908 20.4525 51.9108 20.5525 51.9908 20.6125C52.1108 20.6925 52.2108 20.7725 52.3308 20.8325C52.4708 20.9125 52.6308 20.9925 52.7908 21.0725C52.9508 21.1525 53.1108 21.2125 53.2508 21.2525L49.8508 24.6725ZM54.6308 19.8925L53.9908 20.5325C53.9734 20.5586 53.9495 20.5797 53.9215 20.5938C53.8934 20.6078 53.8621 20.6142 53.8308 20.6125H53.7708C52.3308 20.1925 51.1908 19.0525 50.7708 17.6125C50.7508 17.5325 50.7708 17.4525 50.8308 17.3925L51.4908 16.7325C52.5708 15.6525 53.5908 15.6725 54.6508 16.7325C55.1908 17.2725 55.4508 17.7925 55.4508 18.3125C55.4308 18.8325 55.1708 19.3525 54.6308 19.8925Z" fill="white"/>
<defs>
<linearGradient id="paint0_linear" x1="14.5948" y1="-28.1853" x2="102.607" y2="-10.1034" gradientUnits="userSpaceOnUse">
<stop stop-color="#40CA69"/>
<stop offset="0.973958" stop-color="#0CFCD1"/>
</linearGradient>
</defs>
</svg>
