<svg width="70" height="69" viewBox="0 0 70 69" fill="none" xmlns="http://www.w3.org/2000/svg"><rect x=".549" y=".6" width="68.466" height="67.577" rx="16" fill="url(#paint0_linear)"/><path d="M20.782 40.389c-4.42 0-8 3.58-8 8 0 1.5.42 2.92 1.16 4.12a7.94 7.94 0 006.84 3.88 7.94 7.94 0 006.84-3.88c.74-1.2 1.16-2.62 1.16-4.12 0-4.42-3.58-8-8-8zm3.94 7.34l-4.26 3.94c-.28.26-.66.4-1.02.4-.38 0-.76-.14-1.06-.44l-1.98-1.98a1.508 1.508 0 010-2.12c.58-.58 1.54-.58 2.12 0l.96.96 3.2-2.96c.6-.56 1.56-.52 2.12.08s.52 1.56-.08 2.12zM46.284 24.489c-.48-.08-.98-.1-1.5-.1h-20c-.56 0-1.1.04-1.62.12.28-.56.68-1.08 1.16-1.56l6.5-6.52a7.05 7.05 0 019.92 0l3.5 3.54a6.748 6.748 0 012.04 4.52z" fill="#fff"/><path opacity=".4" d="M54.782 34.389v10c0 6-4 10-10 10h-18.74c.62-.52 1.16-1.16 1.58-1.88.74-1.2 1.16-2.62 1.16-4.12 0-4.42-3.58-8-8-8-2.4 0-4.54 1.06-6 2.72v-8.72c0-5.44 3.28-9.24 8.38-9.88.52-.08 1.06-.12 1.62-.12h20c.52 0 1.02.02 1.5.1 5.16.6 8.5 4.42 8.5 9.9z" fill="#fff"/><path d="M54.782 35.389h-6c-2.2 0-4 1.8-4 4s1.8 4 4 4h6" fill="#fff"/><defs><linearGradient id="paint0_linear" x1="14.482" y1="-28.196" x2="102.494" y2="-10.114" gradientUnits="userSpaceOnUse"><stop stop-color="#40CA69"/><stop offset=".974" stop-color="#0CFCD1"/></linearGradient></defs></svg>