<svg width="578" height="345" viewBox="0 0 578 345" fill="none" xmlns="http://www.w3.org/2000/svg"><g filter="url(#filter0_d)"><g clip-path="url(#clip0)"><rect x="80" y=".503" width="418" height="164" rx="4" fill="#28283E"/><path d="M109.021 69.769v1.125h-.5c-1.297 0-2.167-.193-2.61-.578-.437-.386-.656-1.154-.656-2.305v-2.648c0-.787-.141-1.33-.422-1.633-.276-.302-.779-.453-1.508-.453h-.484V62.16h.484c.735 0 1.24-.149 1.516-.446.276-.297.414-.836.414-1.617v-1.875c0-1.15.219-1.916.656-2.297.443-.385 1.313-.578 2.61-.578h.5v1.117h-.547c-.73 0-1.206.115-1.43.344-.219.224-.328.706-.328 1.445v1.938c0 .818-.12 1.411-.36 1.781-.234.37-.638.62-1.21.75.578.14.984.396 1.218.766.235.37.352.96.352 1.773v2.719c0 .745.109 1.23.328 1.453.224.224.7.336 1.43.336h.547zm49.046 11.64v.704h-6.226v.047c-.042 1.192.185 2.05.68 2.57.5.52 1.203.781 2.109.781a5.13 5.13 0 001.437-.218 8.834 8.834 0 001.602-.665v1.43a9.399 9.399 0 01-1.586.5 6.633 6.633 0 01-1.469.172c-1.359 0-2.422-.406-3.187-1.219-.766-.817-1.149-1.942-1.149-3.375 0-1.396.375-2.51 1.125-3.343.75-.834 1.75-1.25 3-1.25 1.115 0 1.993.377 2.633 1.132.646.755.99 1.667 1.031 2.735zm-1.437-.421a2.758 2.758 0 00-.664-1.563c-.375-.442-.917-.664-1.625-.664-.693 0-1.263.23-1.711.688-.448.458-.693.974-.734 1.547l4.734-.008zm7.609-2.344c.177-.375.401-.651.672-.828.276-.182.607-.273.992-.273.703 0 1.198.273 1.485.82.291.541.437 1.565.437 3.07v5.07h-1.312v-5.007c0-1.235-.071-2-.211-2.297-.136-.302-.386-.453-.75-.453-.417 0-.703.161-.86.484-.151.318-.226 1.073-.226 2.266v5.007h-1.313v-5.007c0-1.25-.075-2.021-.226-2.313-.146-.292-.412-.437-.797-.437-.38 0-.646.161-.797.484-.146.318-.219 1.073-.219 2.266v5.007h-1.304v-8.75h1.304v.75c.172-.312.386-.55.641-.71.26-.167.555-.25.883-.25.396 0 .724.09.984.273.266.182.471.458.617.828zm9.844 3.461h-.477c-.838 0-1.471.148-1.898.445-.422.292-.633.73-.633 1.313 0 .526.159.935.477 1.226.317.292.758.438 1.32.438.792 0 1.414-.274 1.867-.82.453-.552.683-1.313.688-2.282v-.32h-1.344zm2.789-.594v4.992h-1.445v-1.296c-.308.52-.696.906-1.164 1.156-.464.245-1.029.367-1.696.367-.89 0-1.601-.25-2.132-.75-.532-.505-.797-1.18-.797-2.023 0-.974.325-1.714.976-2.22.657-.504 1.617-.757 2.883-.757h1.93v-.227c-.005-.698-.183-1.203-.531-1.515-.349-.318-.907-.477-1.672-.477-.49 0-.985.07-1.485.211-.5.14-.987.347-1.461.617v-1.437a9.748 9.748 0 011.524-.453 6.823 6.823 0 011.422-.156c.724 0 1.341.106 1.851.32.516.213.932.534 1.25.96.198.261.339.584.422.97.083.38.125.953.125 1.718zm3.836-3.726h3.68v7.601h2.851v1.117h-7.14v-1.117h2.851v-6.484h-2.242v-1.117zm2.242-3.399h1.438V76.2h-1.438v-1.813zm10.547 8.953c0 .646.117 1.133.352 1.461.239.328.591.493 1.054.493h1.68v1.21h-1.82c-.86 0-1.526-.273-2-.82-.469-.552-.703-1.333-.703-2.344v-7.914h-2.305V74.3h3.742v9.04zm47.383-8.07v2.484h3.266v1.118h-3.266v4.75c0 .645.122 1.096.367 1.351.245.255.672.383 1.281.383h1.618v1.148h-1.758c-1.078 0-1.839-.216-2.282-.648-.442-.432-.664-1.177-.664-2.234v-4.75h-2.336v-1.118h2.336V75.27h1.438zm13.594 6.14v.704h-6.227v.047c-.042 1.192.185 2.05.68 2.57.5.52 1.203.781 2.109.781.458 0 .938-.073 1.438-.218a8.826 8.826 0 001.601-.665v1.43a9.37 9.37 0 01-1.586.5 6.631 6.631 0 01-1.468.172c-1.36 0-2.422-.406-3.188-1.219-.766-.817-1.148-1.942-1.148-3.375 0-1.396.375-2.51 1.125-3.343.75-.834 1.75-1.25 3-1.25 1.114 0 1.992.377 2.632 1.132.646.755.99 1.667 1.032 2.735zm-1.438-.421a2.751 2.751 0 00-.664-1.563c-.375-.442-.917-.664-1.625-.664-.693 0-1.263.23-1.711.688-.448.458-.693.974-.734 1.547l4.734-.008zm9.93-2.93v1.406a5.499 5.499 0 00-1.242-.539 4.593 4.593 0 00-1.274-.18c-.651 0-1.138.107-1.461.32-.317.21-.476.53-.476.962 0 .39.119.682.359.875.24.193.836.38 1.789.562l.578.11c.714.135 1.253.406 1.617.812.37.407.555.935.555 1.586 0 .865-.307 1.542-.922 2.031-.614.485-1.468.727-2.562.727-.433 0-.886-.047-1.36-.14a11.935 11.935 0 01-1.539-.407V84.7c.537.276 1.05.484 1.539.625.49.135.954.203 1.391.203.635 0 1.128-.128 1.477-.383.349-.26.523-.622.523-1.086 0-.667-.638-1.128-1.914-1.383l-.063-.015-.539-.11c-.828-.161-1.432-.432-1.812-.812-.38-.386-.57-.91-.57-1.57 0-.84.283-1.485.851-1.938.568-.458 1.378-.688 2.43-.688.469 0 .919.045 1.351.133.433.084.857.211 1.274.383zm6.836-2.789v2.484h3.265v1.118h-3.265v4.75c0 .645.122 1.096.367 1.351.245.255.672.383 1.281.383h1.617v1.148h-1.757c-1.079 0-1.839-.216-2.282-.648-.442-.432-.664-1.177-.664-2.234v-4.75h-2.336v-1.118h2.336V75.27h1.438zm12.953 6.977c0-.672-.167-1.209-.5-1.61-.333-.406-.779-.61-1.336-.61s-1.005.204-1.344.61c-.333.401-.5.938-.5 1.61 0 .677.167 1.218.5 1.625.339.4.787.601 1.344.601s1.003-.2 1.336-.601c.333-.407.5-.948.5-1.625zm1.094 3.203h-1.125v-.867c-.193.328-.461.58-.805.757a2.441 2.441 0 01-1.148.266 2.655 2.655 0 01-2.086-.945c-.547-.63-.821-1.435-.821-2.414 0-.98.274-1.784.821-2.414a2.655 2.655 0 012.086-.946c.416 0 .799.091 1.148.274.349.182.617.432.805.75v-.492c0-.813-.23-1.467-.688-1.962-.458-.494-1.065-.742-1.82-.742-1.281 0-2.302.5-3.063 1.5-.755.995-1.132 2.344-1.132 4.047 0 1.714.429 3.078 1.289 4.094.859 1.016 2.036 1.526 3.531 1.531.281.042.677.063 1.187.063.511 0 .966-.01 1.368-.031v1.124c-.339.026-.777.04-1.313.04-.531.005-.945-.016-1.242-.063-1.807-.016-3.258-.63-4.352-1.844-1.088-1.213-1.633-2.851-1.633-4.914 0-2.031.49-3.648 1.469-4.851.979-1.203 2.292-1.805 3.938-1.805 1.088 0 1.958.346 2.609 1.039s.977 1.622.977 2.79v6.015zm7.14-3.39c0-1.079-.177-1.897-.531-2.454-.349-.563-.859-.844-1.531-.844-.703 0-1.24.282-1.61.844-.369.557-.554 1.375-.554 2.453 0 1.078.185 1.901.554 2.469.375.562.917.844 1.625.844.662 0 1.167-.284 1.516-.852.354-.568.531-1.388.531-2.46zm1.438 3.882c0 1.312-.31 2.307-.93 2.984-.62.677-1.531 1.016-2.734 1.016-.396 0-.81-.037-1.242-.11a9.017 9.017 0 01-1.297-.32V88.09c.51.24.974.417 1.39.532.417.114.8.172 1.149.172.776 0 1.341-.212 1.695-.633.354-.422.531-1.091.531-2.008v-1.039c-.229.49-.541.854-.937 1.094-.396.24-.878.359-1.446.359-1.02 0-1.835-.409-2.445-1.227-.609-.817-.914-1.911-.914-3.28 0-1.376.305-2.472.914-3.29.61-.818 1.425-1.227 2.445-1.227.563 0 1.04.112 1.43.336.391.224.708.57.953 1.04v-1.133h1.438v8.156zm6.781-7.297c.177-.375.401-.651.672-.828.276-.182.607-.273.992-.273.703 0 1.198.273 1.484.82.292.541.438 1.565.438 3.07v5.07h-1.313v-5.007c0-1.235-.07-2-.21-2.297-.136-.302-.386-.453-.75-.453-.417 0-.704.161-.86.484-.151.318-.226 1.073-.226 2.266v5.007h-1.313v-5.007c0-1.25-.075-2.021-.226-2.313-.146-.292-.412-.437-.797-.437-.381 0-.646.161-.797.484-.146.318-.219 1.073-.219 2.266v5.007h-1.305v-8.75h1.305v.75c.172-.312.385-.55.641-.71.26-.167.554-.25.882-.25.396 0 .724.09.985.273.265.182.471.458.617.828zm9.844 3.461h-.477c-.838 0-1.471.148-1.898.445-.422.292-.633.73-.633 1.313 0 .526.159.935.477 1.226.317.292.757.438 1.32.438.791 0 1.414-.274 1.867-.82.453-.552.682-1.313.688-2.282v-.32h-1.344zm2.789-.594v4.992h-1.445v-1.296c-.308.52-.696.906-1.165 1.156-.463.245-1.028.367-1.695.367-.89 0-1.601-.25-2.133-.75-.531-.505-.797-1.18-.797-2.023 0-.974.326-1.714.977-2.22.656-.504 1.617-.757 2.883-.757h1.93v-.227c-.006-.698-.183-1.203-.532-1.515-.349-.318-.906-.477-1.672-.477-.489 0-.984.07-1.484.211-.5.14-.987.347-1.461.617v-1.437a9.716 9.716 0 011.524-.453 6.821 6.821 0 011.421-.156c.724 0 1.342.106 1.852.32.516.213.932.534 1.25.96.198.261.338.584.422.97.083.38.125.953.125 1.718zm3.836-3.726h3.679v7.601h2.852v1.117h-7.141v-1.117h2.852v-6.484h-2.242v-1.117zm2.242-3.399h1.437V76.2h-1.437v-1.813zm10.547 8.953c0 .646.117 1.133.351 1.461.24.328.592.493 1.055.493h1.68v1.21h-1.821c-.859 0-1.526-.273-2-.82-.468-.552-.703-1.333-.703-2.344v-7.914h-2.304V74.3h3.742v9.04zm7.062.008h2.75v3.156h-2.75v-3.156zm14.891 2.711c-.385.224-.784.39-1.195.5a4.587 4.587 0 01-1.25.172c-1.355 0-2.414-.406-3.18-1.219-.76-.812-1.141-1.937-1.141-3.375 0-1.437.381-2.562 1.141-3.375.766-.812 1.825-1.218 3.18-1.218.422 0 .833.054 1.234.163.401.11.805.28 1.211.508v1.508a3.871 3.871 0 00-1.148-.734 3.496 3.496 0 00-1.297-.227c-.901 0-1.594.292-2.078.875-.485.584-.727 1.417-.727 2.5 0 1.078.242 1.912.727 2.5.489.584 1.182.875 2.078.875.5 0 .948-.075 1.343-.226a3.41 3.41 0 001.102-.72v1.493zm6.164-7.297c-.729 0-1.281.284-1.656.852-.375.567-.563 1.409-.563 2.523 0 1.11.188 1.95.563 2.524.375.567.927.851 1.656.851.734 0 1.289-.284 1.664-.851.375-.573.563-1.414.563-2.524 0-1.114-.188-1.956-.563-2.523-.375-.568-.93-.852-1.664-.852zm0-1.218c1.214 0 2.141.393 2.781 1.18.646.786.969 1.924.969 3.413 0 1.495-.32 2.636-.961 3.422-.641.781-1.57 1.172-2.789 1.172-1.214 0-2.141-.39-2.781-1.172-.641-.786-.961-1.927-.961-3.422 0-1.49.32-2.627.961-3.414.64-.786 1.567-1.18 2.781-1.18zm10.109 1.101c.177-.375.401-.651.672-.828.276-.182.607-.273.992-.273.704 0 1.198.273 1.485.82.291.541.437 1.565.437 3.07v5.07h-1.312v-5.007c0-1.235-.07-2-.211-2.297-.136-.302-.386-.453-.75-.453-.417 0-.703.161-.859.484-.152.318-.227 1.073-.227 2.266v5.007h-1.313v-5.007c0-1.25-.075-2.021-.226-2.313-.146-.292-.412-.437-.797-.437-.38 0-.646.161-.797.484-.146.318-.219 1.073-.219 2.266v5.007h-1.304v-8.75h1.304v.75c.172-.312.386-.55.641-.71.26-.167.555-.25.883-.25.396 0 .724.09.984.273.266.182.472.458.617.828zm-214.445 25.758v4.43h-1.445V96.753h1.445v1.118c.24-.433.557-.76.953-.985.401-.229.862-.343 1.383-.343 1.057 0 1.885.408 2.484 1.226.605.818.907 1.95.907 3.398 0 1.422-.302 2.54-.907 3.352-.604.807-1.432 1.211-2.484 1.211-.531 0-.997-.112-1.398-.336a2.43 2.43 0 01-.938-.992zm4.219-3.266c0-1.114-.177-1.956-.531-2.523-.349-.568-.87-.852-1.563-.852-.698 0-1.226.287-1.586.86-.359.567-.539 1.406-.539 2.515 0 1.104.18 1.943.539 2.516.36.573.888.859 1.586.859.693 0 1.214-.284 1.563-.851.354-.568.531-1.409.531-2.524zm7.976-.031h-.476c-.839 0-1.472.148-1.899.445-.421.292-.632.729-.632 1.313 0 .526.158.935.476 1.226.318.292.758.438 1.32.438.792 0 1.415-.274 1.868-.82.453-.553.682-1.313.687-2.282v-.32h-1.344zm2.789-.594v4.992h-1.445v-1.296c-.307.52-.695.906-1.164 1.156-.463.245-1.029.367-1.695.367-.891 0-1.602-.25-2.133-.75-.531-.505-.797-1.18-.797-2.023 0-.974.326-1.714.977-2.219.656-.505 1.617-.758 2.882-.758h1.93v-.227c-.005-.698-.182-1.203-.531-1.515-.349-.318-.906-.477-1.672-.477-.49 0-.984.07-1.484.211-.5.14-.987.347-1.461.617v-1.437a9.738 9.738 0 011.523-.453c.49-.104.964-.156 1.422-.156.724 0 1.341.106 1.852.32.515.213.932.534 1.25.96.197.261.338.584.421.97.084.38.125.953.125 1.718zm8.969-3.453v1.406a5.46 5.46 0 00-1.242-.539 4.586 4.586 0 00-1.273-.18c-.651 0-1.138.107-1.461.32-.318.21-.477.53-.477.962 0 .39.12.682.359.875.24.193.836.38 1.79.562l.578.11c.713.135 1.252.406 1.617.812.37.406.555.935.555 1.586 0 .865-.308 1.542-.922 2.031-.615.485-1.469.727-2.563.727a6.99 6.99 0 01-1.359-.141 11.882 11.882 0 01-1.539-.406v-1.484a8.54 8.54 0 001.539.625c.489.135.953.203 1.39.203.636 0 1.128-.128 1.477-.383.349-.26.523-.622.523-1.086 0-.667-.638-1.127-1.914-1.383l-.062-.015-.539-.11c-.828-.161-1.433-.432-1.813-.812-.38-.386-.57-.91-.57-1.57 0-.84.284-1.485.852-1.938.567-.458 1.377-.688 2.429-.688.469 0 .919.045 1.352.133.432.084.857.211 1.273.383zm9.641 0v1.406a5.499 5.499 0 00-1.242-.539 4.593 4.593 0 00-1.274-.18c-.651 0-1.138.107-1.461.32-.317.21-.476.53-.476.962 0 .39.119.682.359.875.24.193.836.38 1.789.562l.578.11c.714.135 1.253.406 1.617.812.37.406.555.935.555 1.586 0 .865-.307 1.542-.922 2.031-.614.485-1.468.727-2.562.727-.433 0-.886-.047-1.36-.141a11.882 11.882 0 01-1.539-.406v-1.484c.537.276 1.05.484 1.539.625.49.135.954.203 1.391.203.635 0 1.128-.128 1.477-.383.349-.26.523-.622.523-1.086 0-.667-.638-1.127-1.914-1.383l-.063-.015-.539-.11c-.828-.161-1.432-.432-1.812-.812-.38-.386-.57-.91-.57-1.57 0-.84.283-1.485.851-1.938.568-.458 1.378-.688 2.43-.688.469 0 .919.045 1.351.133.433.084.857.211 1.274.383zm2.039-.305h1.422l1.523 7.071 1.25-4.516h1.227l1.265 4.516 1.524-7.07h1.422l-2.047 8.749h-1.375l-1.399-4.796-1.39 4.796h-1.375l-2.047-8.75zm14.453 1.008c-.729 0-1.281.284-1.656.852-.375.567-.563 1.409-.563 2.523 0 1.11.188 1.951.563 2.524.375.567.927.851 1.656.851.734 0 1.289-.284 1.664-.851.375-.573.563-1.414.563-2.524 0-1.114-.188-1.956-.563-2.523-.375-.568-.93-.852-1.664-.852zm0-1.218c1.214 0 2.141.393 2.781 1.18.646.786.969 1.924.969 3.413 0 1.495-.32 2.636-.961 3.422-.641.781-1.57 1.172-2.789 1.172-1.214 0-2.141-.391-2.781-1.172-.641-.786-.961-1.927-.961-3.422 0-1.49.32-2.627.961-3.414.64-.786 1.567-1.18 2.781-1.18zm13.852 2.015a3.259 3.259 0 00-.938-.523 3.2 3.2 0 00-1.047-.164c-.896 0-1.581.28-2.054.843-.474.563-.711 1.375-.711 2.438v4.351h-1.446v-8.75h1.446v1.711c.239-.62.606-1.093 1.101-1.421.5-.334 1.091-.5 1.774-.5.354 0 .684.044.992.132.307.089.601.227.883.414v1.47zm7.32-.687v-4.524h1.437v12.156h-1.437v-1.101c-.24.432-.56.763-.961.992-.396.224-.854.336-1.375.336-1.057 0-1.891-.409-2.5-1.227-.604-.822-.906-1.955-.906-3.398 0-1.422.304-2.537.914-3.344.609-.812 1.44-1.218 2.492-1.218.526 0 .99.114 1.391.343.401.224.716.552.945.985zm-4.227 3.265c0 1.115.177 1.956.532 2.524.354.567.877.851 1.57.851.693 0 1.219-.286 1.578-.859.365-.573.547-1.412.547-2.516 0-1.109-.182-1.948-.547-2.515-.359-.573-.885-.86-1.578-.86-.693 0-1.216.284-1.57.852-.355.567-.532 1.409-.532 2.523zm47.836 3.047h2.453v-8.812l-2.937 1.414v-1.516l2.922-1.39h1.578v10.304h2.422v1.32h-6.438v-1.32zm10.446-.008h5.359v1.328h-7.086v-1.328a326.718 326.718 0 002.555-2.718 69.387 69.387 0 001.508-1.664c.52-.636.872-1.149 1.054-1.54.182-.395.274-.8.274-1.21 0-.652-.193-1.162-.578-1.532-.381-.37-.904-.554-1.571-.554-.474 0-.971.086-1.492.257a8.353 8.353 0 00-1.656.782v-1.594a8.528 8.528 0 011.578-.578 6.332 6.332 0 011.539-.196c1.141 0 2.057.305 2.75.915.698.604 1.047 1.398 1.047 2.382 0 .5-.117 1-.352 1.5-.229.5-.604 1.052-1.125 1.657a53.31 53.31 0 01-1.273 1.406c-.552.599-1.396 1.495-2.531 2.687zm12.789-4.914c.765.203 1.351.565 1.757 1.086.407.516.61 1.162.61 1.938 0 1.073-.362 1.916-1.086 2.531-.719.609-1.716.914-2.992.914a9.365 9.365 0 01-1.641-.148 10.652 10.652 0 01-1.641-.43v-1.57a7.646 7.646 0 001.571.617 6.05 6.05 0 001.539.203c.864 0 1.528-.195 1.992-.586.464-.391.695-.953.695-1.688 0-.677-.231-1.213-.695-1.609-.464-.401-1.091-.602-1.883-.602h-1.203v-1.296h1.203c.724 0 1.289-.16 1.696-.477.406-.318.609-.76.609-1.328 0-.599-.19-1.057-.57-1.375-.375-.323-.912-.484-1.61-.484-.463 0-.943.052-1.437.156-.495.104-1.013.26-1.555.469v-1.454a19.4 19.4 0 011.68-.375 8.004 8.004 0 011.312-.125c1.136 0 2.042.287 2.719.86.682.567 1.023 1.323 1.023 2.265 0 .641-.179 1.175-.539 1.602-.354.427-.872.73-1.554.906zm9.32-3.984l-3.68 6.164h3.68v-6.164zm-.258-1.438h1.828v7.602h1.555v1.281h-1.555v2.781h-1.57v-2.781h-4.945v-1.492l4.687-7.39zm5.774 0h5.906v1.329h-4.469v2.867a3.56 3.56 0 01.672-.18c.229-.042.458-.063.687-.063 1.209 0 2.167.357 2.875 1.07.709.714 1.063 1.68 1.063 2.899 0 1.229-.372 2.198-1.117 2.906-.74.709-1.753 1.063-3.039 1.063-.62 0-1.188-.042-1.703-.125a6.24 6.24 0 01-1.375-.375v-1.602c.479.261.961.456 1.445.586.484.125.979.188 1.484.188.87 0 1.539-.229 2.008-.688.474-.458.711-1.109.711-1.953 0-.833-.245-1.482-.734-1.945-.485-.464-1.162-.695-2.032-.695-.421 0-.833.05-1.234.148a4.763 4.763 0 00-1.148.43v-5.86zm15.765.258v1.453a4.2 4.2 0 00-1.047-.437 4.237 4.237 0 00-1.156-.156c-1 0-1.758.377-2.273 1.132-.516.75-.774 1.857-.774 3.32.25-.52.597-.919 1.039-1.195a2.782 2.782 0 011.524-.421c1.125 0 1.994.346 2.609 1.038.62.688.93 1.665.93 2.93 0 1.261-.318 2.237-.953 2.93-.636.693-1.529 1.039-2.68 1.039-1.354 0-2.346-.484-2.977-1.453-.63-.974-.945-2.505-.945-4.594 0-1.969.378-3.469 1.133-4.5.76-1.036 1.859-1.555 3.297-1.555.385 0 .771.042 1.156.125.385.079.758.193 1.117.344zm-2.812 4.93c-.672 0-1.201.242-1.586.726-.386.485-.578 1.154-.578 2.008 0 .854.192 1.524.578 2.008.385.484.914.727 1.586.727.698 0 1.224-.23 1.578-.688.354-.463.531-1.146.531-2.047 0-.906-.177-1.588-.531-2.047-.354-.458-.88-.687-1.578-.687zm-215.297 27.742h.531c.734 0 1.214-.115 1.438-.344.224-.229.336-.711.336-1.445v-2.719c0-.812.117-1.403.351-1.773.234-.37.641-.625 1.219-.766-.573-.13-.979-.38-1.219-.75-.234-.37-.351-.963-.351-1.781v-1.938c0-.734-.112-1.216-.336-1.445-.224-.229-.704-.344-1.438-.344h-.531v-1.117h.484c1.297 0 2.164.193 2.602.578.437.381.656 1.146.656 2.297v1.875c0 .781.138 1.32.414 1.617.281.297.789.446 1.524.446h.5v1.117h-.5c-.735 0-1.243.151-1.524.453-.276.302-.414.846-.414 1.633v2.648c0 1.151-.219 1.92-.656 2.305-.438.385-1.305.578-2.602.578h-.484v-1.125z" fill="#fff"/><path d="M147.06 74.418v4.78h-1.75v-4.78h1.75zm-4.164 0v4.78h-1.75v-4.78h1.75zm62.007 0v4.78h-1.75v-4.78h1.75zm-4.164 0v4.78h-1.75v-4.78h1.75zm33.086 0v4.78h-1.75v-4.78h1.75zm-4.164 0v4.78h-1.75v-4.78h1.75zm148.774 0v4.78h-1.75v-4.78h1.75zm-4.164 0v4.78h-1.75v-4.78h1.75zm-227.211 19v4.78h-1.75v-4.78h1.75zm-4.164 0v4.78h-1.75v-4.78h1.75zm90.929 0v4.78h-1.75v-4.78h1.75zm-4.164 0v4.78h-1.75v-4.78h1.75zm33.086 0v4.78h-1.75v-4.78h1.75zm-4.164 0v4.78h-1.75v-4.78h1.75zm71.648 0v4.78h-1.75v-4.78h1.75zm-4.164 0v4.78h-1.75v-4.78h1.75z" fill="#FE2C3D"/><path d="M210.513 77.761h2.437v2.82h-2.437v-2.82zm0 5.899h2.437v2.843h-2.437V83.66zm173.633.023h2.437v2.07l-1.734 3.368-1.563.007.86-3.375v-2.07zM239.435 96.761h2.437v2.82h-2.437v-2.82zm0 5.899h2.437v2.843h-2.437v-2.843z" fill="#5F54FD"/><path d="M80 4.503a4 4 0 014-4h410a4 4 0 014 4v24H80v-24z" fill="#5B4F68" fill-opacity=".5"/><path d="M102.128 9.235v8.268h1.128v-3.096h2.172c1.752 0 2.46-1.284 2.46-2.58s-.708-2.592-2.46-2.592h-3.3zm3.288 1.044c.96 0 1.356.792 1.356 1.548 0 .768-.408 1.536-1.416 1.536h-2.1V10.28h2.16zm3.449 3.108c0 2.352 1.824 4.236 4.176 4.236 2.364 0 4.2-1.884 4.2-4.236 0-2.34-1.836-4.248-4.2-4.248-2.352 0-4.176 1.908-4.176 4.248zm1.116 0c0-1.764 1.332-3.168 3.06-3.168 1.74 0 3.072 1.404 3.072 3.168 0 1.764-1.332 3.156-3.072 3.156-1.728 0-3.06-1.392-3.06-3.156zm8.471 1.728c0 1.296 1.212 2.508 2.892 2.508 1.632 0 2.604-.96 2.76-2.16.18-1.332-.66-2.196-2.208-2.592l-1.08-.264c-1.044-.252-1.176-.792-1.176-1.152 0-.756.732-1.248 1.548-1.248.912 0 1.56.528 1.56 1.356h1.116c0-1.488-1.164-2.424-2.664-2.424-1.404 0-2.676.936-2.676 2.328 0 .72.252 1.716 2.016 2.16l1.068.264c.744.168 1.464.588 1.404 1.476-.096.624-.612 1.212-1.668 1.212-1.044 0-1.776-.744-1.776-1.464h-1.116zm6.532-5.88v1.056h2.508v7.212h1.128v-7.212h2.508V9.235h-6.144zM453.724 13.503a.3.3 0 01-.212-.512l4.276-4.275a.3.3 0 01.424 0l4.276 4.275a.3.3 0 01-.212.512h-8.552zM453.724 15.503a.3.3 0 00-.212.513l4.276 4.275a.3.3 0 00.424 0l4.276-4.276a.3.3 0 00-.212-.512h-8.552z" fill="#fff"/><path opacity=".4" d="M484.1 15.193h-1.302a1.937 1.937 0 01-1.938-1.938v-1.302a.45.45 0 00-.45-.45h-1.902c-1.386 0-2.508.9-2.508 2.508v3.984c0 1.608 1.122 2.508 2.508 2.508h3.534c1.386 0 2.508-.9 2.508-2.508v-2.352a.45.45 0 00-.45-.45z" fill="#fff"/><path d="M485.492 8.503h-3.534c-1.356 0-2.454.864-2.502 2.406.036 0 .066-.006.102-.006h3.534c1.386 0 2.508.9 2.508 2.508v3.99c0 .036-.006.066-.006.096 1.338-.042 2.406-.93 2.406-2.496v-3.99c0-1.608-1.122-2.508-2.508-2.508z" fill="#fff"/><path d="M481.988 11.594c-.186-.186-.504-.06-.504.198v1.572c0 .66.558 1.2 1.242 1.2.426.006 1.02.006 1.53.006.258 0 .39-.3.21-.48a489.5 489.5 0 01-2.478-2.496z" fill="#fff"/><path d="M470 5.858v17.233" stroke="#fff" stroke-width=".3"/><path d="M410.033 14.743c0 2.368 1.824 3.92 3.952 3.92 1.152 0 2.192-.448 2.896-1.216l-1.12-.928a2.464 2.464 0 01-1.776.736c-1.344 0-2.512-1.024-2.512-2.512 0-1.504 1.168-2.448 2.512-2.448.688 0 1.328.256 1.776.704l1.104-.928c-.704-.768-1.728-1.2-2.88-1.2-2.128 0-3.952 1.504-3.952 3.872zm12.719 2.48c-1.36 0-2.528-.976-2.528-2.512V7.48h-1.504v7.232c0 2.4 1.84 3.952 4.032 3.952 2.16 0 4.032-1.552 4.032-3.952V7.48h-1.504v7.232c0 1.536-1.168 2.512-2.528 2.512zm11.548-2.896c2.064-.176 2.88-1.76 2.88-3.392 0-1.728-.944-3.456-3.264-3.456h-4.24v11.024h1.504v-4.128h1.408l2.848 4.128h1.808l-2.944-4.176zm-.432-5.456c1.28 0 1.776 1.056 1.776 2.064 0 1.024-.496 2.048-1.84 2.048h-2.624V8.871h2.688zm5.714-1.392v11.024h5.984v-1.392h-4.496V7.48h-1.488z" fill="#fff"/><rect x="80" y="156.51" width="418" height="8" rx="4" fill="#28283E"/><rect x="80" y="156.51" width="316.811" height="8" rx="4" fill="#50465E" fill-opacity=".5"/></g></g><defs><clipPath id="clip0"><rect x="80" y=".503" width="418" height="164" rx="4" fill="#fff"/></clipPath><filter id="filter0_d" x="0" y=".503" width="578" height="344" filterUnits="userSpaceOnUse" color-interpolation-filters="sRGB"><feFlood flood-opacity="0" result="BackgroundImageFix"/><feColorMatrix in="SourceAlpha" values="0 0 0 0 0 0 0 0 0 0 0 0 0 0 0 0 0 0 127 0" result="hardAlpha"/><feOffset dy="100"/><feGaussianBlur stdDeviation="40"/><feColorMatrix values="0 0 0 0 0 0 0 0 0 0 0 0 0 0 0 0 0 0 0.1 0"/><feBlend in2="BackgroundImageFix" result="effect1_dropShadow"/><feBlend in="SourceGraphic" in2="effect1_dropShadow" result="shape"/></filter></defs></svg>