<svg width="1440" height="599" viewBox="0 0 1440 599" fill="none" xmlns="http://www.w3.org/2000/svg"><path fill="url(#graph_linear)" style="mix-blend-mode:soft-light" d="M75.271 337.306h80.548v245.346H75.271z"/><path fill="url(#graph1_linear)" style="mix-blend-mode:soft-light" d="M155.819 265.662h80.548v245.346h-80.548z"/><path fill="url(#graph2_linear)" style="mix-blend-mode:soft-light" d="M236.367 352.769h86.65v245.346h-86.65z"/><path fill="url(#graph3_linear)" style="mix-blend-mode:soft-light" d="M323.017 214.633h86.65v245.346h-86.65z"/><path fill="url(#graph4_linear)" style="mix-blend-mode:soft-light" d="M409.667 159.138h86.65v245.346h-86.65z"/><path fill="url(#graph5_linear)" style="mix-blend-mode:soft-light" d="M496.316 255.078h86.65v245.346h-86.65z"/><path fill="url(#graph6_linear)" style="mix-blend-mode:soft-light" d="M582.966 281.811h86.65v245.346h-86.65z"/><path fill="url(#graph7_linear)" style="mix-blend-mode:soft-light" d="M669.616 113.445h86.65v245.346h-86.65z"/><path fill="url(#graph8_linear)" style="mix-blend-mode:soft-light" d="M756.265 182.298h86.65v245.346h-86.65z"/><path fill="url(#graph9_linear)" style="mix-blend-mode:soft-light" d="M842.916 246.078h86.65v245.346h-86.65z"/><path fill="url(#graph10_linear)" style="mix-blend-mode:soft-light" d="M929.565 175.775h86.65v245.346h-86.65z"/><path fill="url(#graph11_linear)" style="mix-blend-mode:soft-light" d="M1016.22 142.988h86.65v245.346h-86.65z"/><path fill="url(#graph12_linear)" style="mix-blend-mode:soft-light" d="M1102.86 23.773h101.226v245.346H1102.86z"/><path fill="url(#graph13_linear)" style="mix-blend-mode:soft-light" d="M1189.51.732h94.368v245.346h-94.368z"/><path fill="url(#graph14_linear)" style="mix-blend-mode:soft-light" d="M1344.91 89.219h104.55v245.346h-104.55z"/><g style="mix-blend-mode:hard-light" opacity=".7"><path d="M1273.03 32.571v-17.59l13.67 8.696-13.67 8.894z" fill="#FFCCD0"/><path d="M-10.394 393.567l22.09-37.786 22.09-21.509 47.087 11.627 27.323-71.503 21.509 34.879 23.834-47.087 24.997 37.205 45.343 19.765 26.16-4.651 22.09-31.973 16.277-45.924 30.81 5.232 22.09-5.232 24.416-26.741 27.904 2.907 24.415-66.271 21.509 30.229 22.09-17.44 31.392 23.834 15.696-6.394 25.484 36.042 13.32 45.875 36.63-14.271 25.688 10.941 17.126 22.834 29.494-5.232 22.834-63.054 22.358-13.536 22.834-52.328 19.98 58.988 27.115-6.66 23.786 53.28 37.051-1.931 17.241 16.314 16.5-31.702 24.285 6.118 6.034-44.255 21.049-7.546 23.83 11.915 13.901-68.71 20.256-13.106 25.816 38.922 28.99-52.029 25.42-7.943 23.83 2.383 24.63-46.071h24.22l28.2 22.24h44.09l12.71-28.992 28.99-21.447h30.98" stroke="url(#graph15_linear)" stroke-opacity=".7" stroke-width="2" stroke-linecap="round"/></g><path fill="url(#graph16_linear)" style="mix-blend-mode:soft-light" d="M1275.11 23.773h103.137v245.346H1275.11z"/><defs><linearGradient id="graph_linear" x1="115.545" y1="337.306" x2="115.545" y2="582.652" gradientUnits="userSpaceOnUse"><stop stop-color="#FFCCD0" stop-opacity=".1"/><stop offset="1" stop-color="#FFCCD0" stop-opacity="0"/></linearGradient><linearGradient id="graph1_linear" x1="196.093" y1="265.662" x2="196.093" y2="511.008" gradientUnits="userSpaceOnUse"><stop stop-color="#FFCCD0" stop-opacity=".1"/><stop offset="1" stop-color="#FFCCD0" stop-opacity="0"/></linearGradient><linearGradient id="graph2_linear" x1="279.692" y1="352.769" x2="279.692" y2="598.115" gradientUnits="userSpaceOnUse"><stop stop-color="#FFCCD0" stop-opacity=".1"/><stop offset="1" stop-color="#FFCCD0" stop-opacity="0"/></linearGradient><linearGradient id="graph3_linear" x1="366.342" y1="214.633" x2="366.342" y2="459.979" gradientUnits="userSpaceOnUse"><stop stop-color="#FFCCD0" stop-opacity=".1"/><stop offset="1" stop-color="#FFCCD0" stop-opacity="0"/></linearGradient><linearGradient id="graph4_linear" x1="452.991" y1="159.138" x2="452.991" y2="404.484" gradientUnits="userSpaceOnUse"><stop stop-color="#FFCCD0" stop-opacity=".1"/><stop offset="1" stop-color="#FFCCD0" stop-opacity="0"/></linearGradient><linearGradient id="graph5_linear" x1="539.641" y1="255.078" x2="539.641" y2="500.424" gradientUnits="userSpaceOnUse"><stop stop-color="#FFCCD0" stop-opacity=".1"/><stop offset="1" stop-color="#FFCCD0" stop-opacity="0"/></linearGradient><linearGradient id="graph6_linear" x1="626.291" y1="281.811" x2="626.291" y2="527.157" gradientUnits="userSpaceOnUse"><stop stop-color="#FF99A1" stop-opacity=".1"/><stop offset="1" stop-color="#FFCCD0" stop-opacity="0"/></linearGradient><linearGradient id="graph7_linear" x1="712.941" y1="113.445" x2="712.941" y2="358.791" gradientUnits="userSpaceOnUse"><stop stop-color="#FFCCD0" stop-opacity=".1"/><stop offset="1" stop-color="#FFCCD0" stop-opacity="0"/></linearGradient><linearGradient id="graph8_linear" x1="799.59" y1="182.298" x2="799.59" y2="427.644" gradientUnits="userSpaceOnUse"><stop stop-color="#FFCCD0" stop-opacity=".2"/><stop offset="1" stop-color="#FFCCD0" stop-opacity="0"/></linearGradient><linearGradient id="graph9_linear" x1="886.241" y1="246.078" x2="886.241" y2="491.424" gradientUnits="userSpaceOnUse"><stop stop-color="#FFCCD0" stop-opacity=".1"/><stop offset="1" stop-color="#FFCCD0" stop-opacity="0"/></linearGradient><linearGradient id="graph10_linear" x1="972.89" y1="175.775" x2="972.89" y2="421.121" gradientUnits="userSpaceOnUse"><stop stop-color="#FFCCD0" stop-opacity=".1"/><stop offset="1" stop-color="#FFCCD0" stop-opacity="0"/></linearGradient><linearGradient id="graph11_linear" x1="1059.54" y1="142.988" x2="1059.54" y2="388.334" gradientUnits="userSpaceOnUse"><stop stop-color="#FFCCD0" stop-opacity=".07"/><stop offset="1" stop-color="#FFCCD0" stop-opacity="0"/></linearGradient><linearGradient id="graph12_linear" x1="1153.48" y1="23.773" x2="1153.48" y2="269.119" gradientUnits="userSpaceOnUse"><stop stop-color="#FFCCD0" stop-opacity=".1"/><stop offset="1" stop-color="#FFCCD0" stop-opacity="0"/></linearGradient><linearGradient id="graph13_linear" x1="1236.7" y1=".732" x2="1236.7" y2="246.078" gradientUnits="userSpaceOnUse"><stop stop-color="#FFCCD0" stop-opacity=".1"/><stop offset="1" stop-color="#FFCCD0" stop-opacity="0"/></linearGradient><linearGradient id="graph14_linear" x1="1397.19" y1="89.219" x2="1397.19" y2="334.565" gradientUnits="userSpaceOnUse"><stop stop-color="#FFCCD0" stop-opacity=".1"/><stop offset="1" stop-color="#FFCCD0" stop-opacity="0"/></linearGradient><linearGradient id="graph15_linear" x1="1273.4" y1="23.773" x2="14.503" y2="353.638" gradientUnits="userSpaceOnUse"><stop stop-color="#FFCCD0"/><stop offset=".74" stop-color="#FFCCD0" stop-opacity=".511"/><stop offset="1" stop-color="#FFCCD0" stop-opacity="0"/></linearGradient><linearGradient id="graph16_linear" x1="1326.68" y1="23.773" x2="1326.68" y2="269.119" gradientUnits="userSpaceOnUse"><stop stop-color="#FFCCD0" stop-opacity=".1"/><stop offset="1" stop-color="#FFCCD0" stop-opacity="0"/></linearGradient></defs></svg>