<svg width="108" height="36" viewBox="0 0 108 36" fill="none" xmlns="http://www.w3.org/2000/svg"><path d="M99.4 0H8.606c-.33 0-.658 0-.988.002-.276.001-.55.007-.83.011-.605.007-1.21.06-1.808.16A5.81 5.81 0 00.74 3.256a5.93 5.93 0 00-.564 1.712c-.1.596-.154 1.198-.162 1.802-.008.276-.009.553-.013.829v20.803c.004.28.005.55.013.83.008.603.062 1.206.162 1.801.1.597.29 1.175.564 1.714A5.589 5.589 0 001.804 34.2c.426.43.92.787 1.46 1.06.54.274 1.119.466 1.716.568.598.098 1.203.151 1.809.16.279.006.553.01.829.01H100.378c.276 0 .558-.004.833-.01.605-.008 1.208-.061 1.804-.16.6-.103 1.18-.294 1.723-.567a5.66 5.66 0 001.459-1.061c.43-.426.79-.916 1.067-1.453.272-.54.461-1.118.559-1.714.1-.595.156-1.198.167-1.802.004-.28.004-.55.004-.83.007-.326.007-.652.007-.984V8.582c0-.33 0-.656-.007-.982 0-.276 0-.553-.004-.829a12.227 12.227 0 00-.167-1.802 5.95 5.95 0 00-.559-1.713 5.83 5.83 0 00-2.526-2.52 6.118 6.118 0 00-1.723-.564c-.596-.1-1.199-.152-1.804-.159-.275-.004-.557-.01-.833-.011C100.054 0 99.725 0 99.4 0z" fill="#B1B8C7"/><path d="M7.72 35.098c-.274 0-.542-.004-.814-.01a11.493 11.493 0 01-1.684-.145 5.324 5.324 0 01-1.492-.49 4.868 4.868 0 01-1.258-.91 4.756 4.756 0 01-.92-1.248 5.088 5.088 0 01-.488-1.481 11.02 11.02 0 01-.15-1.677 80.866 80.866 0 01-.013-.816V7.667s.008-.618.013-.8c.007-.56.057-1.12.149-1.673a5.12 5.12 0 01.49-1.486A5.011 5.011 0 013.73 1.544c.469-.236.97-.4 1.489-.487.558-.09 1.123-.14 1.689-.146L7.72.9h92.557l.821.011a11.23 11.23 0 011.674.145 5.383 5.383 0 011.506.49 5.022 5.022 0 012.174 2.164c.235.464.397.961.483 1.474.093.558.145 1.122.156 1.687.003.254.003.526.003.796.007.336.007.655.007.976v18.712c0 .325 0 .642-.007.962 0 .29 0 .557-.004.83-.011.556-.062 1.11-.154 1.658a5.111 5.111 0 01-.486 1.493 4.882 4.882 0 01-.915 1.239c-.368.37-.794.678-1.26.914-.473.238-.98.404-1.503.492-.556.09-1.119.139-1.683.145-.264.006-.54.01-.808.01l-.976.002-91.585-.002z" fill="#121D33"/><path d="M22.493 18.629a4.489 4.489 0 012.148-3.775 4.613 4.613 0 00-3.639-1.962c-1.53-.16-3.015.914-3.796.914-.795 0-1.996-.898-3.29-.872a4.856 4.856 0 00-4.078 2.48c-1.764 3.045-.448 7.52 1.24 9.98.846 1.206 1.834 2.552 3.126 2.504 1.265-.052 1.737-.804 3.264-.804 1.512 0 1.956.804 3.274.774 1.357-.022 2.212-1.21 3.028-2.427a9.955 9.955 0 001.384-2.812 4.358 4.358 0 01-1.934-1.6 4.339 4.339 0 01-.727-2.4zM20.002 11.274A4.422 4.422 0 0021.018 8.1a4.524 4.524 0 00-2.925 1.509 4.211 4.211 0 00-1.043 3.056 3.748 3.748 0 002.952-1.391zM38.18 24.425h-4.272l-1.026 3.021h-1.81L35.12 16.27h1.88l4.046 11.176h-1.84l-1.025-3.02zm-3.83-1.394h3.386l-1.669-4.902h-.047l-1.67 4.902zM49.784 23.372c0 2.532-1.36 4.16-3.41 4.16a2.776 2.776 0 01-2.571-1.426h-.039v4.036h-1.677V19.298h1.623v1.355h.031a2.895 2.895 0 012.602-1.44c2.074 0 3.44 1.634 3.44 4.16zm-1.724 0c0-1.65-.855-2.734-2.16-2.734-1.281 0-2.143 1.108-2.143 2.734 0 1.642.862 2.742 2.144 2.742 1.304 0 2.159-1.077 2.159-2.742zM58.777 23.372c0 2.533-1.359 4.16-3.41 4.16a2.776 2.776 0 01-2.57-1.426h-.04v4.036H51.08V19.298h1.624v1.355h.03a2.894 2.894 0 012.602-1.44c2.074 0 3.441 1.634 3.441 4.16zm-1.724 0c0-1.65-.854-2.734-2.159-2.734-1.281 0-2.143 1.108-2.143 2.734 0 1.642.862 2.742 2.143 2.742 1.305 0 2.16-1.077 2.16-2.742zM64.722 24.332c.124 1.108 1.204 1.836 2.68 1.836 1.413 0 2.43-.728 2.43-1.727 0-.867-.614-1.387-2.066-1.743l-1.453-.349c-2.058-.495-3.013-1.455-3.013-3.013 0-1.928 1.685-3.252 4.078-3.252 2.368 0 3.992 1.324 4.047 3.252H69.73c-.1-1.115-1.026-1.788-2.377-1.788-1.35 0-2.275.68-2.275 1.672 0 .79.59 1.255 2.035 1.611l1.234.303c2.3.542 3.255 1.463 3.255 3.098 0 2.09-1.67 3.4-4.326 3.4-2.486 0-4.164-1.279-4.272-3.3h1.717zM75.223 17.37v1.928h1.554v1.324h-1.554v4.492c0 .698.311 1.024.994 1.024.185-.004.369-.017.552-.04v1.318a4.606 4.606 0 01-.931.077c-1.655 0-2.3-.62-2.3-2.2v-4.67H72.35v-1.325h1.188V17.37h1.685zM77.677 23.373c0-2.564 1.514-4.175 3.875-4.175 2.37 0 3.877 1.61 3.877 4.175 0 2.57-1.5 4.174-3.877 4.174-2.376 0-3.875-1.604-3.875-4.174zm6.042 0c0-1.76-.807-2.797-2.166-2.797-1.36 0-2.167 1.046-2.167 2.797 0 1.765.807 2.795 2.166 2.795 1.36 0 2.167-1.03 2.167-2.795zM86.811 19.298h1.6v1.387h.039c.108-.433.363-.816.72-1.084a1.953 1.953 0 011.245-.389c.194 0 .386.02.575.063v1.564a2.352 2.352 0 00-.754-.1 1.692 1.692 0 00-1.674 1.157 1.68 1.68 0 00-.073.717v4.833H86.81v-8.148zM98.723 25.053c-.226 1.48-1.67 2.494-3.518 2.494-2.378 0-3.853-1.588-3.853-4.136 0-2.556 1.484-4.213 3.782-4.213 2.26 0 3.683 1.548 3.683 4.019v.573h-5.772v.101a2.117 2.117 0 001.317 2.153c.28.113.58.166.882.155a1.852 1.852 0 001.887-1.146h1.592zm-5.67-2.432h4.085a1.947 1.947 0 00-.549-1.47 1.966 1.966 0 00-1.455-.598 2.075 2.075 0 00-1.472.602 2.058 2.058 0 00-.609 1.466zM34.14 7.857a2.39 2.39 0 011.9.736 2.377 2.377 0 01.634 1.933c0 1.715-.93 2.702-2.534 2.702h-1.945v-5.37h1.945zm-1.109 4.611h1.016a1.696 1.696 0 001.719-1.19c.074-.24.093-.493.056-.741a1.689 1.689 0 00-1.044-1.8 1.702 1.702 0 00-.731-.12H33.03v3.851zM37.619 11.2a1.915 1.915 0 011.137-1.939 1.93 1.93 0 012.606 1.15c.085.254.115.522.09.789a1.915 1.915 0 01-1.137 1.942 1.931 1.931 0 01-2.206-.466 1.92 1.92 0 01-.49-1.476zm3.008 0c0-.879-.396-1.393-1.09-1.393-.697 0-1.09.514-1.09 1.393 0 .885.393 1.395 1.09 1.395.694 0 1.09-.513 1.09-1.395zM46.547 13.228h-.832l-.84-2.985h-.063l-.837 2.985h-.824l-1.12-4.053h.813l.728 3.092h.06l.836-3.092h.77l.835 3.092h.063l.725-3.092h.802l-1.116 4.053zM48.605 9.175h.772v.644h.06a1.214 1.214 0 011.213-.722 1.326 1.326 0 011.36.923c.06.19.075.389.046.584v2.624h-.802v-2.423c0-.651-.284-.975-.877-.975a.934.934 0 00-.927.632.926.926 0 00-.043.395v2.37h-.802V9.176zM53.334 7.593h.802v5.635h-.802V7.593zM55.251 11.2a1.916 1.916 0 011.138-1.94 1.93 1.93 0 012.606 1.15c.085.255.115.523.09.79a1.914 1.914 0 01-1.137 1.941 1.93 1.93 0 01-2.608-1.152 1.917 1.917 0 01-.089-.79zm3.009 0c0-.879-.396-1.393-1.09-1.393-.698 0-1.09.514-1.09 1.393 0 .885.392 1.395 1.09 1.395.694 0 1.09-.514 1.09-1.396zM59.93 12.082c0-.73.544-1.15 1.51-1.21l1.102-.064v-.35c0-.428-.284-.67-.832-.67-.448 0-.758.165-.847.451h-.777c.082-.696.739-1.142 1.66-1.142 1.02 0 1.594.505 1.594 1.362v2.768h-.772v-.569h-.063a1.367 1.367 0 01-1.221.636 1.23 1.23 0 01-1.355-1.213zm2.612-.347v-.339l-.993.064c-.56.037-.813.227-.813.584 0 .365.317.577.753.577a.962.962 0 00.952-.519.954.954 0 00.1-.367zM64.394 11.2c0-1.28.66-2.092 1.687-2.092a1.342 1.342 0 011.247.71h.06V7.594h.802v5.635h-.769v-.64h-.063a1.408 1.408 0 01-1.277.707c-1.034 0-1.687-.812-1.687-2.095zm.829 0c0 .86.406 1.377 1.086 1.377.676 0 1.094-.525 1.094-1.374 0-.845-.423-1.377-1.094-1.377-.675 0-1.086.521-1.086 1.374zM71.508 11.2a1.907 1.907 0 01.491-1.475 1.932 1.932 0 012.205-.464A1.923 1.923 0 0175.34 11.2a1.922 1.922 0 01-2.696 1.942 1.928 1.928 0 01-1.049-1.152 1.912 1.912 0 01-.088-.79zm3.008 0c0-.879-.396-1.393-1.09-1.393-.698 0-1.09.514-1.09 1.393 0 .885.392 1.395 1.09 1.395.694 0 1.09-.513 1.09-1.395zM76.417 9.175h.773v.644h.06a1.215 1.215 0 011.212-.722 1.325 1.325 0 011.361.923c.059.19.075.389.046.584v2.624h-.802v-2.423c0-.651-.284-.975-.877-.975a.936.936 0 00-.927.632.92.92 0 00-.044.395v2.37h-.802V9.176zM84.4 8.166v1.027h.881v.674h-.88v2.084c0 .425.175.61.574.61.103 0 .204-.006.306-.018v.666c-.144.026-.29.04-.436.041-.892 0-1.248-.313-1.248-1.094V9.867h-.645v-.674h.645V8.166h.804zM86.376 7.593h.795v2.233h.064a1.25 1.25 0 011.24-.726 1.344 1.344 0 011.056.428 1.338 1.338 0 01.343 1.083v2.617h-.803v-2.42c0-.647-.303-.975-.869-.975a.954.954 0 00-.97.622.939.939 0 00-.053.406v2.367h-.803V7.593zM94.55 12.133a1.649 1.649 0 01-1.76 1.173 1.849 1.849 0 01-1.815-1.302 1.836 1.836 0 01-.063-.79 1.867 1.867 0 011.874-2.117c1.131 0 1.813.77 1.813 2.043v.279h-2.87v.045a1.079 1.079 0 00.284.819 1.078 1.078 0 00.798.342.978.978 0 00.968-.492h.772zm-2.82-1.306h2.052a.975.975 0 00-.602-.975.983.983 0 00-.398-.075 1.042 1.042 0 00-.977.647 1.036 1.036 0 00-.076.403z" fill="#fff"/></svg>