<svg width="108" height="36" viewBox="0 0 108 36" fill="none" xmlns="http://www.w3.org/2000/svg"><path d="M99.4 0H8.606c-.33 0-.658 0-.988.002-.276.001-.55.007-.83.011-.605.007-1.21.06-1.808.16A5.81 5.81 0 00.74 3.256a5.93 5.93 0 00-.564 1.712c-.1.596-.154 1.198-.161 1.802-.009.276-.01.553-.014.829v20.803c.004.28.005.55.014.83.007.603.06 1.206.161 1.801.1.597.29 1.175.564 1.714A5.589 5.589 0 001.804 34.2c.427.43.92.787 1.46 1.06.54.274 1.119.466 1.716.568.598.098 1.203.151 1.809.16.279.006.553.01.83.01H100.378c.275 0 .557-.004.832-.01a12.01 12.01 0 001.805-.16 6.156 6.156 0 001.722-.567 5.66 5.66 0 001.459-1.061c.43-.426.79-.916 1.067-1.453.272-.54.461-1.118.559-1.714.1-.595.156-1.198.167-1.802.004-.28.004-.55.004-.83.007-.326.007-.652.007-.984V8.582c0-.33 0-.656-.007-.982 0-.276 0-.553-.004-.829a12.227 12.227 0 00-.167-1.802 5.95 5.95 0 00-.559-1.713 5.824 5.824 0 00-2.526-2.52 6.122 6.122 0 00-1.722-.564c-.597-.1-1.2-.152-1.805-.159-.275-.004-.557-.01-.832-.011C100.055 0 99.725 0 99.4 0z" fill="#B1B8C7"/><path d="M7.72 35.098c-.274 0-.542-.004-.814-.01a11.493 11.493 0 01-1.684-.145 5.324 5.324 0 01-1.492-.49 4.868 4.868 0 01-1.258-.91 4.756 4.756 0 01-.92-1.248 5.089 5.089 0 01-.488-1.481 11.02 11.02 0 01-.15-1.677C.908 28.95.9 28.321.9 28.321V7.667s.008-.618.013-.8c.007-.56.057-1.12.15-1.673a5.12 5.12 0 01.489-1.486A5.011 5.011 0 013.73 1.544c.469-.236.97-.4 1.489-.487.558-.09 1.123-.14 1.689-.146L7.72.9h92.556l.822.011c.56.007 1.12.055 1.674.145.523.089 1.03.254 1.505.49a5.022 5.022 0 012.174 2.164c.235.464.398.961.483 1.474.093.558.145 1.122.156 1.687.003.254.003.526.003.796.007.336.007.655.007.976v18.712c0 .325 0 .642-.007.962 0 .29 0 .557-.004.83-.011.556-.062 1.11-.154 1.658a5.11 5.11 0 01-.486 1.493 4.882 4.882 0 01-.915 1.239c-.368.37-.793.678-1.26.914-.473.238-.98.404-1.502.492-.557.09-1.12.139-1.684.145-.264.006-.54.01-.808.01l-.976.002-91.585-.002z" fill="#121D33"/><path d="M38.418 10.08c0 .72-.18 1.35-.631 1.8-.542.54-1.174.81-1.986.81s-1.444-.27-1.986-.81c-.541-.54-.812-1.17-.812-1.98s.27-1.44.813-1.98c.541-.54 1.173-.81 1.985-.81.361 0 .722.09 1.083.27.361.18.632.36.812.63l-.45.45c-.362-.45-.813-.63-1.445-.63-.541 0-1.083.18-1.444.63-.451.36-.632.9-.632 1.53s.18 1.17.632 1.53c.451.36.903.63 1.444.63.632 0 1.083-.18 1.534-.63.271-.27.452-.63.452-1.08H35.8v-.63h2.617v.27zM42.57 7.83h-2.437v1.71h2.257v.63h-2.257v1.71h2.437v.72h-3.159V7.2h3.16v.63zM45.548 12.6h-.722V7.83h-1.534V7.2h3.79v.63h-1.534v4.77zM49.7 12.6V7.2h.722v5.4H49.7zM53.49 12.6h-.721V7.83h-1.535V7.2h3.7v.63h-1.533v4.77h.09zM62.065 11.88c-.542.54-1.174.81-1.986.81s-1.444-.27-1.986-.81c-.541-.54-.812-1.17-.812-1.98s.271-1.44.813-1.98c.541-.54 1.173-.81 1.985-.81s1.444.27 1.986.81c.541.54.812 1.17.812 1.98s-.27 1.44-.812 1.98zm-3.43-.45c.361.36.903.63 1.444.63.542 0 1.083-.18 1.444-.63.361-.36.632-.9.632-1.53s-.18-1.17-.632-1.53c-.36-.36-.902-.63-1.444-.63-.541 0-1.083.18-1.444.63-.361.36-.632.9-.632 1.53s.18 1.17.632 1.53zM63.87 12.6V7.2h.812l2.617 4.23V7.2h.722v5.4H67.3l-2.798-4.41v4.41h-.631z" fill="#fff" stroke="#fff" stroke-width=".2" stroke-miterlimit="10"/><path d="M53.375 20.196c-1.857 0-3.326 1.358-3.326 3.244 0 1.81 1.47 3.244 3.326 3.244S56.7 25.326 56.7 23.44c0-1.962-1.47-3.244-3.325-3.244zm0 5.13c-1.006 0-1.857-.83-1.857-1.962 0-1.131.851-1.961 1.857-1.961 1.005 0 1.856.754 1.856 1.962 0 1.131-.851 1.961-1.856 1.961zm-7.193-5.13c-1.857 0-3.326 1.358-3.326 3.244 0 1.81 1.47 3.244 3.326 3.244s3.325-1.358 3.325-3.244c0-1.962-1.47-3.244-3.325-3.244zm0 5.13c-1.006 0-1.857-.83-1.857-1.962 0-1.131.851-1.961 1.857-1.961 1.005 0 1.856.754 1.856 1.962 0 1.131-.851 1.961-1.856 1.961zm-8.586-4.15v1.359h3.326c-.077.754-.386 1.357-.773 1.735-.464.452-1.238.98-2.553.98-2.088 0-3.635-1.584-3.635-3.62 0-2.038 1.624-3.622 3.635-3.622 1.083 0 1.934.453 2.553.98l1.005-.98c-.85-.755-1.933-1.358-3.48-1.358-2.785 0-5.182 2.263-5.182 4.98 0 2.715 2.397 4.979 5.182 4.979 1.547 0 2.63-.453 3.557-1.434.929-.905 1.238-2.188 1.238-3.169 0-.301 0-.603-.077-.83h-4.796zm35.114 1.057c-.309-.755-1.082-2.037-2.784-2.037-1.701 0-3.094 1.282-3.094 3.244 0 1.81 1.393 3.244 3.25 3.244 1.468 0 2.397-.905 2.706-1.434l-1.083-.754c-.387.528-.85.905-1.624.905-.773 0-1.237-.301-1.624-.98l4.409-1.811-.156-.377zm-4.485 1.056c0-1.207 1.005-1.886 1.701-1.886.541 0 1.083.302 1.238.679l-2.94 1.207zm-3.635 3.093h1.47v-9.43h-1.47v9.43zm-2.32-5.507c-.388-.378-1.006-.755-1.78-.755-1.624 0-3.17 1.434-3.17 3.244 0 1.811 1.469 3.17 3.17 3.17.774 0 1.392-.378 1.702-.755h.077v.452c0 1.207-.696 1.886-1.779 1.886-.85 0-1.47-.603-1.624-1.131l-1.237.528c.386.83 1.314 1.886 2.939 1.886 1.701 0 3.093-.98 3.093-3.32v-5.733H62.27v.528zm-1.702 4.451c-1.006 0-1.857-.83-1.857-1.962 0-1.131.851-1.961 1.857-1.961 1.005 0 1.779.83 1.779 1.962 0 1.131-.774 1.961-1.78 1.961zm18.872-8.374h-3.481v9.43h1.47v-3.546h2.01c1.625 0 3.172-1.131 3.172-2.942 0-1.81-1.547-2.942-3.171-2.942zm.077 4.526H77.43v-3.244h2.088c1.083 0 1.701.906 1.701 1.585-.077.83-.696 1.66-1.7 1.66zm8.894-1.358c-1.082 0-2.165.453-2.552 1.434l1.315.528c.31-.528.773-.68 1.315-.68.773 0 1.47.454 1.546 1.208v.075c-.231-.15-.85-.377-1.469-.377-1.392 0-2.784.755-2.784 2.113 0 1.282 1.16 2.112 2.397 2.112 1.006 0 1.47-.453 1.856-.905h.078v.754h1.392v-3.621c-.154-1.66-1.47-2.64-3.094-2.64zm-.154 5.206c-.465 0-1.16-.226-1.16-.83 0-.754.85-.98 1.546-.98.62 0 .929.15 1.316.301-.155.905-.929 1.509-1.702 1.509zm8.12-4.98l-1.623 4.075h-.077l-1.702-4.074h-1.547l2.552 5.733-1.47 3.17h1.47l3.945-8.903h-1.547zm-12.993 6.036h1.47v-9.43h-1.47v9.43z" fill="#fff"/><path d="M10.252 9.232c-.21.21-.351.56-.351.98v15.466c0 .42.14.77.35.98l.07.07 8.703-8.678v-.14l-8.772-8.678z" fill="url(#paint0_linear)"/><path d="M21.902 20.99l-2.878-2.87V17.91l2.878-2.869.07.07 3.439 1.96c.982.56.982 1.47 0 2.03L21.9 20.99z" fill="url(#paint1_linear)"/><path d="M21.971 20.92l-2.947-2.94-8.772 8.748c.35.35.842.35 1.473.07l10.246-5.878z" fill="url(#paint2_linear)"/><path d="M21.971 15.04L11.725 9.233c-.631-.35-1.123-.28-1.473.07l8.772 8.678 2.947-2.94z" fill="url(#paint3_linear)"/><path opacity=".2" d="M21.901 20.85l-10.176 5.738c-.561.35-1.052.28-1.403 0l-.07.07.07.07c.35.28.842.35 1.403 0l10.176-5.879z" fill="#000"/><path opacity=".12" d="M10.252 26.588c-.21-.21-.28-.56-.28-.98v.07c0 .42.14.77.35.98v-.07h-.07zM25.41 18.89l-3.509 1.96.07.07 3.439-1.96c.491-.28.702-.63.702-.98 0 .35-.28.63-.702.91z" fill="#000"/><path opacity=".25" d="M11.726 9.303L25.41 17.07c.421.28.702.56.702.91 0-.35-.21-.7-.702-.98L11.726 9.233c-.983-.56-1.755-.07-1.755 1.05v.07c0-1.12.772-1.61 1.755-1.05z" fill="#fff"/><defs><linearGradient id="paint0_linear" x1="18.252" y1="10.079" x2="6.507" y2="21.857" gradientUnits="userSpaceOnUse"><stop stop-color="#00A0FF"/><stop offset=".007" stop-color="#00A1FF"/><stop offset=".26" stop-color="#00BEFF"/><stop offset=".512" stop-color="#00D2FF"/><stop offset=".76" stop-color="#00DFFF"/><stop offset="1" stop-color="#00E3FF"/></linearGradient><linearGradient id="paint1_linear" x1="26.698" y1="17.981" x2="9.717" y2="17.981" gradientUnits="userSpaceOnUse"><stop stop-color="#FFE000"/><stop offset=".409" stop-color="#FFBD00"/><stop offset=".775" stop-color="orange"/><stop offset="1" stop-color="#FF9C00"/></linearGradient><linearGradient id="paint2_linear" x1="20.376" y1="19.587" x2="4.45" y2="35.559" gradientUnits="userSpaceOnUse"><stop stop-color="#FF3A44"/><stop offset="1" stop-color="#C31162"/></linearGradient><linearGradient id="paint3_linear" x1="8.074" y1="4.107" x2="15.186" y2="11.239" gradientUnits="userSpaceOnUse"><stop stop-color="#32A071"/><stop offset=".069" stop-color="#2DA771"/><stop offset=".476" stop-color="#15CF74"/><stop offset=".801" stop-color="#06E775"/><stop offset="1" stop-color="#00F076"/></linearGradient></defs></svg>