<svg width="198" height="198" fill="none" xmlns="http://www.w3.org/2000/svg"><g filter="url(#filter0_d)"><rect x="27" y="14" width="95" height="95" rx="10" fill="url(#paint0_linear)"/></g><path opacity=".4" d="M68 73.94h-1c-8 0-12-2-12-12v-10c0-8 4-12 12-12h16c8 0 12 4 12 12v10c0 8-4 12-12 12h-1c-.62 0-1.22.3-1.6.8l-3 4c-1.32 1.76-3.48 1.76-4.8 0l-3-4c-.32-.44-1.04-.8-1.6-.8z" fill="#fff"/><path d="M67 62.9c-.38 0-.76-.14-1.06-.44l-4-4a1.508 1.508 0 010-2.12l4-4c.58-.58 1.54-.58 2.12 0 .58.58.58 1.54 0 2.12l-2.94 2.94 2.94 2.94c.58.58.58 1.54 0 2.12-.3.3-.68.44-1.06.44zM83 62.9c-.38 0-.76-.14-1.06-.44a1.508 1.508 0 010-2.12l2.94-2.94-2.94-2.94a1.508 1.508 0 010-2.12c.58-.58 1.54-.58 2.12 0l4 4c.58.58.58 1.54 0 2.12l-4 4c-.3.3-.68.44-1.06.44zM73 63.56a1.49 1.49 0 01-1.38-2.1l4-9.34a1.49 1.49 0 011.98-.78c.76.32 1.12 1.2.78 1.98l-4 9.34c-.24.56-.8.9-1.38.9z" fill="#fff"/><defs><linearGradient id="paint0_linear" x1="58.5" y1="159" x2="86.5" y2="-14" gradientUnits="userSpaceOnUse"><stop stop-color="#E70077"/><stop offset=".974" stop-color="#FCC787"/></linearGradient><filter id="filter0_d" x=".159" y=".965" width="197" height="197" filterUnits="userSpaceOnUse" color-interpolation-filters="sRGB"><feFlood flood-opacity="0" result="BackgroundImageFix"/><feColorMatrix in="SourceAlpha" values="0 0 0 0 0 0 0 0 0 0 0 0 0 0 0 0 0 0 127 0" result="hardAlpha"/><feOffset dx="24.159" dy="37.965"/><feGaussianBlur stdDeviation="25.5"/><feColorMatrix values="0 0 0 0 0.815686 0 0 0 0 0.337255 0 0 0 0 0.337255 0 0 0 0.26 0"/><feBlend in2="BackgroundImageFix" result="effect1_dropShadow"/><feBlend in="SourceGraphic" in2="effect1_dropShadow" result="shape"/></filter></defs></svg>