<svg width="828" height="700" viewBox="0 0 828 700" fill="none" xmlns="http://www.w3.org/2000/svg"><path d="M456.411 147.788c76.845-32.051 149.37-51.019 205.714-53.869 28.174-1.425 51.376 1.227 68.915 7.598 17.522 6.364 29.295 16.397 34.871 29.711 5.586 13.34 4.904 29.857-2.05 48.88-6.952 19.019-20.128 40.411-39.306 63.358-38.355 45.891-98.254 95.061-169.939 139.434-71.674 44.366-150.815 81.266-224.462 104.664-73.692 23.412-137.344 31.863-180.618 24.164-21.623-3.848-37.35-11.583-46.995-22.555-9.605-10.926-13.343-25.25-10.635-42.685 2.716-17.482 11.835-37.526 26.86-59.224 15.015-21.683 35.872-44.937 61.951-68.83" stroke="url(#paint0_linear)" stroke-opacity=".5" stroke-width="3"/><circle cx="583" cy="364" r="6" fill="#FE2C3D"/><path d="M677.222 532.168c9.159 23.003 14.185 43.465 15.106 60.834.921 17.371-2.267 31.55-9.422 42.114-14.239 21.021-44.2 27.552-87.038 17.696-42.738-9.832-95.775-35.434-152.404-73.663-56.611-38.215-114.187-87.277-165.439-140.981-51.255-53.707-93.85-109.609-122.418-160.626-28.603-51.081-41.725-94.735-38.098-125.543 1.807-15.347 7.717-27.085 17.305-35.111 9.606-8.041 23.067-12.495 40.223-12.936 34.369-.885 81.54 14.392 135.604 44.156" stroke="url(#paint1_linear)" stroke-opacity=".5" stroke-width="3"/><circle cx="326.599" cy="487.599" r="6" transform="rotate(71.421 326.599 487.599)" fill="#FE2C3D"/><rect x="99.806" y="225.7" width="68.653" height="68.653" rx="13.461" transform="rotate(-23.973 99.806 225.7)" fill="url(#paint2_linear)"/><rect x="100.695" y="226.042" width="67.307" height="67.307" rx="12.788" transform="rotate(-23.973 100.695 226.042)" stroke="#fff" stroke-opacity=".5" stroke-width="1.346"/><g clip-path="url(#clip0)" fill="#FE2C3D"><path d="M138.149 250.638a5.382 5.382 0 00-2.732 7.107 5.279 5.279 0 001.84 2.217 5.352 5.352 0 005.268.516 5.347 5.347 0 003.146-4.257 5.27 5.27 0 00-.414-2.851 5.383 5.383 0 00-7.108-2.732zm4.431 3.436l-1.543 3.588a1.021 1.021 0 01-.518.525 1 1 0 01-.772.02l-1.759-.677a1.014 1.014 0 01-.58-1.303 1.016 1.016 0 011.304-.58l.853.328 1.159-2.696a1.016 1.016 0 011.325-.53c.509.215.747.817.531 1.325zM149.484 233.885c-.317.082-.63.207-.95.349l-12.3 5.47a7.227 7.227 0 00-.964.516c.02-.421.123-.85.287-1.276l2.215-5.788a4.746 4.746 0 016.101-2.713l3.12 1.22a4.542 4.542 0 012.491 2.222z"/><path opacity=".4" d="M157.419 237.65l2.735 6.15c1.641 3.69.274 7.244-3.416 8.884l-11.525 5.125c.239-.489.396-1.03.458-1.588a5.28 5.28 0 00-.414-2.851 5.383 5.383 0 00-7.108-2.732 5.361 5.361 0 00-2.946 3.313l-2.384-5.363c-1.488-3.345-.51-6.579 2.451-8.368.298-.191.62-.363.964-.516l12.3-5.47c.32-.142.633-.267.95-.349 3.338-1.042 6.436.394 7.935 3.765z"/><path d="M157.692 238.265l-3.69 1.64a2.7 2.7 0 00-1.366 3.554 2.7 2.7 0 003.554 1.366l3.69-1.64"/></g><g filter="url(#filter0_d)"><rect x="179" y="295" width="95" height="95" rx="10" fill="url(#paint3_linear)"/></g><path opacity=".4" d="M220 354.94h-1c-8 0-12-2-12-12v-10c0-8 4-12 12-12h16c8 0 12 4 12 12v10c0 8-4 12-12 12h-1c-.62 0-1.22.3-1.6.8l-3 4c-1.32 1.76-3.48 1.76-4.8 0l-3-4c-.32-.44-1.04-.8-1.6-.8z" fill="#fff"/><path d="M219 343.9c-.38 0-.76-.14-1.06-.44l-4-4a1.507 1.507 0 010-2.12l4-4c.58-.58 1.54-.58 2.12 0 .58.58.58 1.54 0 2.12l-2.94 2.94 2.94 2.94c.58.58.58 1.54 0 2.12-.3.3-.68.44-1.06.44zM235 343.9c-.38 0-.76-.14-1.06-.44a1.507 1.507 0 010-2.12l2.94-2.94-2.94-2.94a1.507 1.507 0 010-2.12c.58-.58 1.54-.58 2.12 0l4 4c.58.58.58 1.54 0 2.12l-4 4c-.3.3-.68.44-1.06.44zM225 344.56a1.49 1.49 0 01-1.38-2.1l4-9.34a1.49 1.49 0 011.98-.78c.76.32 1.12 1.2.78 1.98l-4 9.34c-.24.56-.8.9-1.38.9z" fill="#fff"/><defs><linearGradient id="paint0_linear" x1="67.535" y1="386.121" x2="780.477" y2="119.017" gradientUnits="userSpaceOnUse"><stop stop-color="#4C496D"/><stop offset=".974" stop-color="#FE2C3D"/></linearGradient><linearGradient id="paint1_linear" x1="211.284" y1="62.866" x2="691.617" y2="653.552" gradientUnits="userSpaceOnUse"><stop stop-color="#FE2C3D"/><stop offset="1" stop-color="#64649B" stop-opacity=".5"/></linearGradient><linearGradient id="paint2_linear" x1="85.732" y1="231.879" x2="178.456" y2="218.861" gradientUnits="userSpaceOnUse"><stop stop-color="#EAE9FB"/><stop offset="1" stop-color="#F1EDF4"/></linearGradient><linearGradient id="paint3_linear" x1="210.5" y1="440" x2="238.5" y2="267" gradientUnits="userSpaceOnUse"><stop stop-color="#E70077"/><stop offset=".974" stop-color="#FCC787"/></linearGradient><clipPath id="clip0"><path fill="#fff" transform="rotate(-23.973 615.154 -174.084)" d="M0 0h32.307v32.307H0z"/></clipPath><filter id="filter0_d" x="152.159" y="281.965" width="197" height="197" filterUnits="userSpaceOnUse" color-interpolation-filters="sRGB"><feFlood flood-opacity="0" result="BackgroundImageFix"/><feColorMatrix in="SourceAlpha" values="0 0 0 0 0 0 0 0 0 0 0 0 0 0 0 0 0 0 127 0" result="hardAlpha"/><feOffset dx="24.159" dy="37.965"/><feGaussianBlur stdDeviation="25.5"/><feColorMatrix values="0 0 0 0 0.815686 0 0 0 0 0.337255 0 0 0 0 0.337255 0 0 0 0.26 0"/><feBlend in2="BackgroundImageFix" result="effect1_dropShadow"/><feBlend in="SourceGraphic" in2="effect1_dropShadow" result="shape"/></filter></defs></svg>

