<svg width="810" height="851" fill="none" xmlns="http://www.w3.org/2000/svg"><path d="M677.222 532.168c9.159 23.003 14.185 43.465 15.106 60.834.92 17.371-2.267 31.55-9.422 42.114-14.239 21.021-44.2 27.552-87.038 17.696-42.738-9.832-95.775-35.434-152.404-73.663-56.611-38.215-114.187-87.277-165.439-140.981-51.255-53.707-93.85-109.609-122.418-160.626-28.603-51.081-41.725-94.735-38.098-125.543 1.806-15.347 7.717-27.085 17.305-35.111 9.606-8.041 23.067-12.495 40.223-12.936 34.369-.885 81.54 14.392 135.604 44.156" stroke="url(#paint0_linear)" stroke-opacity=".5" stroke-width="3"/><circle cx="326.599" cy="487.599" r="6" transform="rotate(71.421 326.599 487.599)" fill="#FE2C3D"/><defs><linearGradient id="paint0_linear" x1="211.284" y1="62.866" x2="691.617" y2="653.552" gradientUnits="userSpaceOnUse"><stop stop-color="#FE2C3D"/><stop offset="1" stop-color="#64649B" stop-opacity=".5"/></linearGradient></defs></svg>