<svg width="795" height="588" fill="none" xmlns="http://www.w3.org/2000/svg"><path d="M423.411 137.788c76.845-32.051 149.37-51.019 205.714-53.869 28.174-1.425 51.376 1.227 68.915 7.598 17.522 6.364 29.295 16.397 34.871 29.711 5.586 13.34 4.904 29.857-2.05 48.88-6.952 19.019-20.128 40.411-39.306 63.358-38.355 45.891-98.254 95.061-169.939 139.434-71.674 44.366-150.815 81.266-224.462 104.664-73.692 23.412-137.344 31.863-180.618 24.164-21.623-3.848-37.35-11.583-46.995-22.555-9.605-10.926-13.343-25.25-10.635-42.685 2.716-17.482 11.835-37.526 26.86-59.224 15.015-21.683 35.872-44.937 61.951-68.83" stroke="url(#paint0_linear)" stroke-opacity=".5" stroke-width="3"/><circle cx="550" cy="354" r="6" fill="#FE2C3D"/><defs><linearGradient id="paint0_linear" x1="34.535" y1="376.121" x2="747.477" y2="109.017" gradientUnits="userSpaceOnUse"><stop stop-color="#4C496D"/><stop offset=".974" stop-color="#FE2C3D"/></linearGradient></defs></svg>