<svg width="1034" height="1137" fill="none" xmlns="http://www.w3.org/2000/svg"><path d="M576.226-329.098a79 79 0 0172.899-30.442l513.455 66.096c27.99 3.604 51.94 21.867 62.81 47.912l199.49 477.711c10.87 26.044 7.03 55.912-10.09 78.353l-313.97 411.616c-17.11 22.441-44.9 34.045-72.9 30.441l-513.448-66.095a79.002 79.002 0 01-62.813-47.912L252.173 160.871a79 79 0 0110.086-78.353l313.967-411.616z" fill="url(#paint0_linear)"/><g style="mix-blend-mode:hard-light" opacity=".5" filter="url(#filter0_bf)"><path d="M621.374-79.344a79.001 79.001 0 0172.9-30.442l348.086 44.809a79.006 79.006 0 0162.82 47.912l135.24 323.859c10.87 26.044 7.03 55.912-10.09 78.353l-212.85 279.051a79.005 79.005 0 01-72.9 30.442l-348.09-44.809a79 79 0 01-62.813-47.912L398.437 278.06a79.001 79.001 0 0110.087-78.354l212.85-279.05z" fill="url(#paint1_linear)"/></g><g style="mix-blend-mode:soft-light" opacity=".5" filter="url(#filter1_b)"><path d="M604.826-284.551a79 79 0 0172.9-30.442l295.536 38.044c27.988 3.603 51.938 21.867 62.808 47.911L1150.9 45.926c10.87 26.044 7.03 55.913-10.09 78.354L960.095 361.2a78.997 78.997 0 01-72.899 30.441l-295.537-38.043a79.002 79.002 0 01-62.813-47.912L414.025 30.722a79 79 0 0110.086-78.353l180.715-236.92z" fill="url(#paint2_linear)"/></g><g style="mix-blend-mode:soft-light" opacity=".6" filter="url(#filter2_b)"><path d="M680.264-314.041a78.998 78.998 0 0172.899-30.442l245.864 31.649a79.008 79.008 0 0162.813 47.912l95.52 228.749c10.88 26.044 7.03 55.912-10.08 78.353l-150.345 197.1a79 79 0 01-72.899 30.442l-245.864-31.65a78.999 78.999 0 01-62.813-47.912L519.837-38.589a79 79 0 0110.086-78.353l150.341-197.099z" fill="url(#paint3_linear)"/></g><g opacity=".1" filter="url(#filter3_f)"><path d="M388.827 183.449a78.998 78.998 0 0172.899-30.442l275.488 35.463a78.999 78.999 0 0162.813 47.912L907.06 492.693a79.001 79.001 0 01-10.087 78.354L728.517 791.895a79 79 0 01-72.899 30.442l-275.489-35.463a78.998 78.998 0 01-62.812-47.912L210.284 482.651a79 79 0 0110.086-78.354l168.457-220.848z" fill="url(#paint4_linear)"/></g><defs><linearGradient id="paint0_linear" x1="133.683" y1="5.66" x2="1290.24" y2="-417.853" gradientUnits="userSpaceOnUse"><stop stop-color="#E70077"/><stop offset=".974" stop-color="#FC8F0C"/></linearGradient><linearGradient id="paint1_linear" x1="649.036" y1="-115.609" x2="989.818" y2="700.463" gradientUnits="userSpaceOnUse"><stop stop-color="#fff"/><stop offset="1" stop-color="#fff" stop-opacity=".22"/></linearGradient><linearGradient id="paint2_linear" x1="-44.669" y1="792.311" x2="1016.44" y2="148.367" gradientUnits="userSpaceOnUse"><stop stop-color="#fff" stop-opacity=".54"/><stop offset="1" stop-color="#fff" stop-opacity=".22"/></linearGradient><linearGradient id="paint3_linear" x1="117.907" y1="619.582" x2="1042.47" y2="58.502" gradientUnits="userSpaceOnUse"><stop stop-color="#fff" stop-opacity=".54"/><stop offset="1" stop-color="#fff" stop-opacity=".22"/></linearGradient><linearGradient id="paint4_linear" x1="-225.5" y1="1202.5" x2="780.5" y2="592" gradientUnits="userSpaceOnUse"><stop stop-color="#fff" stop-opacity=".54"/><stop offset="1" stop-color="#fff" stop-opacity=".22"/></linearGradient><filter id="filter0_bf" x=".376" y="-551.895" width="1638.1" height="1688.64" filterUnits="userSpaceOnUse" color-interpolation-filters="sRGB"><feFlood flood-opacity="0" result="BackgroundImageFix"/><feGaussianBlur in="BackgroundImage" stdDeviation="50"/><feComposite in2="SourceAlpha" operator="in" result="effect1_backgroundBlur"/><feBlend in="SourceGraphic" in2="effect1_backgroundBlur" result="shape"/><feGaussianBlur stdDeviation="150" result="effect2_foregroundBlur"/></filter><filter id="filter1_b" x="226.173" y="-539.419" width="1112.58" height="1155.49" filterUnits="userSpaceOnUse" color-interpolation-filters="sRGB"><feFlood flood-opacity="0" result="BackgroundImageFix"/><feGaussianBlur in="BackgroundImage" stdDeviation="50"/><feComposite in2="SourceAlpha" operator="in" result="effect1_backgroundBlur"/><feBlend in="SourceGraphic" in2="effect1_backgroundBlur" result="shape"/></filter><filter id="filter2_b" x="341.634" y="-552.196" width="993.932" height="1029.63" filterUnits="userSpaceOnUse" color-interpolation-filters="sRGB"><feFlood flood-opacity="0" result="BackgroundImageFix"/><feGaussianBlur in="BackgroundImage" stdDeviation="50"/><feComposite in2="SourceAlpha" operator="in" result="effect1_backgroundBlur"/><feBlend in="SourceGraphic" in2="effect1_backgroundBlur" result="shape"/></filter><filter id="filter3_f" x="26.326" y="-64.673" width="1064.69" height="1104.69" filterUnits="userSpaceOnUse" color-interpolation-filters="sRGB"><feFlood flood-opacity="0" result="BackgroundImageFix"/><feBlend in="SourceGraphic" in2="BackgroundImageFix" result="shape"/><feGaussianBlur stdDeviation="50" result="effect1_foregroundBlur"/></filter></defs></svg>