<svg width="92" height="92" fill="none" xmlns="http://www.w3.org/2000/svg"><rect x=".806" y="28.7" width="68.653" height="68.653" rx="13.461" transform="rotate(-23.973 .806 28.7)" fill="url(#paint0_linear)"/><rect x="1.695" y="29.042" width="67.307" height="67.307" rx="12.788" transform="rotate(-23.973 1.695 29.042)" stroke="#fff" stroke-opacity=".5" stroke-width="1.346"/><g clip-path="url(#clip0)" fill="#FE2C3D"><path d="M39.15 53.638a5.383 5.383 0 00-2.733 7.107 5.278 5.278 0 001.84 2.217 5.344 5.344 0 005.268.516 5.344 5.344 0 003.146-4.257 5.279 5.279 0 00-.414-2.851 5.383 5.383 0 00-7.108-2.732zm4.43 3.436l-1.543 3.588a1.027 1.027 0 01-.518.525.998.998 0 01-.772.02l-1.759-.677a1.015 1.015 0 01-.58-1.303 1.016 1.016 0 011.304-.58l.853.328 1.159-2.696a1.016 1.016 0 011.325-.53c.509.215.747.817.53 1.325zM50.484 36.885a6.16 6.16 0 00-.95.35l-12.3 5.468a7.159 7.159 0 00-.964.517c.02-.42.123-.85.287-1.276l2.215-5.788a4.745 4.745 0 016.1-2.713l3.121 1.22a4.542 4.542 0 012.491 2.222z"/><path opacity=".4" d="M58.419 40.65l2.735 6.15c1.64 3.69.274 7.244-3.416 8.885l-11.525 5.124c.239-.49.396-1.03.457-1.588a5.277 5.277 0 00-.413-2.851 5.383 5.383 0 00-7.108-2.732 5.363 5.363 0 00-2.946 3.313l-2.385-5.363c-1.487-3.345-.51-6.58 2.452-8.368.298-.191.62-.363.964-.517l12.3-5.469a6.16 6.16 0 01.95-.349c3.337-1.042 6.436.394 7.935 3.765z"/><path d="M58.692 41.265l-3.69 1.64a2.7 2.7 0 00-1.366 3.554 2.7 2.7 0 003.554 1.366l3.69-1.64"/></g><defs><linearGradient id="paint0_linear" x1="-13.268" y1="34.879" x2="79.456" y2="21.861" gradientUnits="userSpaceOnUse"><stop stop-color="#EAE9FB"/><stop offset="1" stop-color="#F1EDF4"/></linearGradient><clipPath id="clip0"><path fill="#fff" transform="rotate(-23.973 101.706 -39.433)" d="M0 0h32.307v32.307H0z"/></clipPath></defs></svg>