<svg width="20" height="20" viewBox="0 0 20 20" fill="none" xmlns="http://www.w3.org/2000/svg"><path fill-rule="evenodd" clip-rule="evenodd" d="M12.946 5.307H7c-.95 0-1.721.772-1.721 1.72v5.945c0 .95.772 1.722 1.72 1.722h5.946c.949 0 1.72-.773 1.72-1.722V7.028c0-.95-.771-1.721-1.72-1.721zM9.973 13.09A3.094 3.094 0 016.883 10a3.094 3.094 0 013.09-3.09 3.094 3.094 0 013.09 3.09 3.094 3.094 0 01-3.09 3.09zm2.458-6.272a.732.732 0 101.464-.002.732.732 0 00-1.464.002z" fill="#fff"/><path d="M9.973 8.216c-.983 0-1.784.8-1.784 1.784s.8 1.784 1.784 1.784 1.784-.8 1.784-1.784-.8-1.784-1.784-1.784z" fill="#fff"/><path fill-rule="evenodd" clip-rule="evenodd" d="M0 9.973C0 4.465 4.465 0 9.973 0c5.508 0 9.973 4.465 9.973 9.973 0 5.508-4.465 9.973-9.973 9.973C4.465 19.946 0 15.481 0 9.973zM12.946 16a3.03 3.03 0 003.026-3.027V7.028A3.03 3.03 0 0012.946 4H7a3.03 3.03 0 00-3.027 3.027v5.944A3.03 3.03 0 007.001 16h5.945z" fill="#fff"/></svg>