<svg width="20" height="20" viewBox="0 0 20 20" fill="none" xmlns="http://www.w3.org/2000/svg"><path d="M9.929 19.858c5.483 0 9.929-4.445 9.929-9.929C19.858 4.446 15.412 0 9.929 0 4.445 0 0 4.446 0 9.93c0 5.483 4.445 9.928 9.929 9.928z" fill="#fff"/><path d="M10.73 13.296c-.75-.058-1.066-.43-1.654-.787-.324 1.697-.72 3.324-1.89 4.174-.362-2.565.53-4.492.945-6.538-.707-1.19.085-3.583 1.575-2.993 1.834.725-1.588 4.422.71 4.884 2.398.482 3.377-4.162 1.89-5.672-2.15-2.18-6.256-.05-5.751 3.072.123.763.912.995.315 2.048-1.375-.304-1.786-1.39-1.733-2.835.085-2.368 2.127-4.025 4.175-4.255 2.59-.29 5.022.952 5.357 3.388.378 2.75-1.17 5.728-3.939 5.514z" fill="#2E2E47"/></svg>