<svg width="20" height="20" viewBox="0 0 20 20" fill="none" xmlns="http://www.w3.org/2000/svg"><path d="M9.929 19.858c5.483 0 9.929-4.446 9.929-9.93C19.858 4.446 15.412 0 9.928 0 4.446 0 0 4.445 0 9.929c0 5.483 4.445 9.929 9.929 9.929z" fill="#fff"/><path d="M16.568 7.113a4.735 4.735 0 01-1.363.373 2.38 2.38 0 001.043-1.313 4.75 4.75 0 01-1.507.576 2.374 2.374 0 00-4.044 2.165 6.737 6.737 0 01-4.892-2.48 2.373 2.373 0 00.734 3.169 2.357 2.357 0 01-1.074-.297v.03c0 1.15.818 2.109 1.903 2.327a2.365 2.365 0 01-1.071.04 2.376 2.376 0 002.217 1.649A4.762 4.762 0 015 14.334a6.713 6.713 0 003.638 1.067c4.365 0 6.752-3.616 6.752-6.753a6.79 6.79 0 00-.007-.307 4.815 4.815 0 001.185-1.228z" fill="#2E2E47"/></svg>