<svg width="20" height="20" viewBox="0 0 20 20" fill="none" xmlns="http://www.w3.org/2000/svg"><path d="M9.929 19.858c5.483 0 9.929-4.446 9.929-9.93C19.858 4.446 15.412 0 9.928 0 4.446 0 0 4.445 0 9.929c0 5.483 4.445 9.929 9.929 9.929z" fill="#fff"/><path fill-rule="evenodd" clip-rule="evenodd" d="M9.554 14.283h.78s.235-.025.355-.155c.11-.119.107-.342.107-.342s-.015-1.046.47-1.2c.478-.152 1.093 1.01 1.744 1.458.492.338.866.264.866.264l1.741-.025s.911-.056.48-.772c-.036-.058-.252-.53-1.295-1.498-1.092-1.013-.946-.849.37-2.602.8-1.067 1.12-1.719 1.02-1.998-.095-.266-.684-.196-.684-.196l-1.96.013s-.146-.02-.254.044a.55.55 0 00-.173.21s-.31.827-.724 1.53c-.873 1.482-1.222 1.56-1.364 1.468-.332-.215-.25-.862-.25-1.322 0-1.436.219-2.035-.423-2.19-.214-.052-.37-.086-.915-.091-.7-.008-1.292.002-1.627.166-.223.11-.395.353-.29.367.13.017.423.079.578.29.201.274.194.888.194.888s.115 1.69-.27 1.9c-.264.145-.626-.15-1.404-1.494-.4-.689-.7-1.45-.7-1.45s-.058-.143-.162-.219a.812.812 0 00-.301-.121L3.6 7.218s-.28.008-.382.13c-.092.107-.008.331-.008.331s1.459 3.412 3.11 5.131c1.514 1.577 3.234 1.473 3.234 1.473z" fill="#2E2E47"/></svg>