<svg xmlns="http://www.w3.org/2000/svg" xmlns:xlink="http://www.w3.org/1999/xlink" viewBox="0 0 336.41 321.34"><defs><style>.cls-1{fill:#e3e3e3;opacity:0.2;}.cls-2{fill:#d8d8d8;}.cls-2,.cls-27{opacity:0.5;}.cls-3{fill:#c4c4c4;}.cls-4{fill:#fff;}.cls-5{fill:#7dc3ea;}.cls-6{fill:url(#Áåçûìÿííûé_ãðàäèåíò_3);}.cls-7{fill:url(#Áåçûìÿííûé_ãðàäèåíò_9);}.cls-8{fill:url(#Áåçûìÿííûé_ãðàäèåíò_13);}.cls-9{fill:url(#Áåçûìÿííûé_ãðàäèåíò_3-2);}.cls-10{fill:url(#Áåçûìÿííûé_ãðàäèåíò_9-2);}.cls-11{fill:url(#Áåçûìÿííûé_ãðàäèåíò_13-2);}.cls-12{fill:url(#Áåçûìÿííûé_ãðàäèåíò_3-3);}.cls-13{fill:url(#Áåçûìÿííûé_ãðàäèåíò_9-3);}.cls-14{fill:url(#Áåçûìÿííûé_ãðàäèåíò_13-3);}.cls-15{fill:url(#Áåçûìÿííûé_ãðàäèåíò_3-4);}.cls-16{fill:url(#Áåçûìÿííûé_ãðàäèåíò_9-4);}.cls-17{fill:url(#Áåçûìÿííûé_ãðàäèåíò_13-4);}.cls-18{fill:url(#Áåçûìÿííûé_ãðàäèåíò_18);}.cls-19{fill:url(#Áåçûìÿííûé_ãðàäèåíò_9-5);}.cls-20{fill:#5793ce;}.cls-21{fill:url(#Áåçûìÿííûé_ãðàäèåíò_441);}.cls-22,.cls-27{fill:#173d7a;}.cls-23{fill:#396caa;}.cls-24{fill:#06033e;opacity:0.3;}.cls-25{fill:#d4ecff;}.cls-26{fill:#ff2c9c;}.cls-28{fill:url(#Áåçûìÿííûé_ãðàäèåíò_13-5);}.cls-29{fill:url(#Áåçûìÿííûé_ãðàäèåíò_45);}.cls-30{fill:url(#Áåçûìÿííûé_ãðàäèåíò_13-6);}.cls-31{fill:url(#Áåçûìÿííûé_ãðàäèåíò_45-2);}.cls-32{fill:url(#Áåçûìÿííûé_ãðàäèåíò_13-7);}.cls-33{fill:url(#Áåçûìÿííûé_ãðàäèåíò_45-3);}</style><radialGradient id="Áåçûìÿííûé_ãðàäèåíò_3" cx="39.6" cy="260.88" r="33.67" gradientUnits="userSpaceOnUse"><stop offset="0" stop-color="#274f89"/><stop offset="1" stop-color="#173d7a"/></radialGradient><linearGradient id="Áåçûìÿííûé_ãðàäèåíò_9" x1="19.15" y1="248.66" x2="78.72" y2="248.66" gradientUnits="userSpaceOnUse"><stop offset="0" stop-color="#d4ecff"/><stop offset="0.24" stop-color="#d0eafe"/><stop offset="0.46" stop-color="#c5e2f9"/><stop offset="0.67" stop-color="#b2d6f2"/><stop offset="0.88" stop-color="#98c4e7"/><stop offset="1" stop-color="#86b8e0"/></linearGradient><radialGradient id="Áåçûìÿííûé_ãðàäèåíò_13" cx="-8.81" cy="226.04" r="60.86" gradientUnits="userSpaceOnUse"><stop offset="0" stop-color="#699dd1"/><stop offset="0.27" stop-color="#6396cc"/><stop offset="0.64" stop-color="#5184bd"/><stop offset="1" stop-color="#396caa"/></radialGradient><radialGradient id="Áåçûìÿííûé_ãðàäèåíò_3-2" cx="292.54" cy="120.39" r="33.67" xlink:href="#Áåçûìÿííûé_ãðàäèåíò_3"/><linearGradient id="Áåçûìÿííûé_ãðàäèåíò_9-2" x1="272.09" y1="108.17" x2="331.67" y2="108.17" xlink:href="#Áåçûìÿííûé_ãðàäèåíò_9"/><radialGradient id="Áåçûìÿííûé_ãðàäèåíò_13-2" cx="244.14" cy="85.54" r="60.86" xlink:href="#Áåçûìÿííûé_ãðàäèåíò_13"/><radialGradient id="Áåçûìÿííûé_ãðàäèåíò_3-3" cx="292.54" cy="260.88" r="33.67" xlink:href="#Áåçûìÿííûé_ãðàäèåíò_3"/><linearGradient id="Áåçûìÿííûé_ãðàäèåíò_9-3" x1="272.09" y1="248.66" x2="331.67" y2="248.66" xlink:href="#Áåçûìÿííûé_ãðàäèåíò_9"/><radialGradient id="Áåçûìÿííûé_ãðàäèåíò_13-3" cx="244.14" cy="226.04" r="60.86" xlink:href="#Áåçûìÿííûé_ãðàäèåíò_13"/><radialGradient id="Áåçûìÿííûé_ãðàäèåíò_3-4" cx="39.6" cy="120.39" r="33.67" xlink:href="#Áåçûìÿííûé_ãðàäèåíò_3"/><linearGradient id="Áåçûìÿííûé_ãðàäèåíò_9-4" x1="19.15" y1="108.17" x2="78.72" y2="108.17" xlink:href="#Áåçûìÿííûé_ãðàäèåíò_9"/><radialGradient id="Áåçûìÿííûé_ãðàäèåíò_13-4" cx="-8.81" cy="85.54" r="60.86" xlink:href="#Áåçûìÿííûé_ãðàäèåíò_13"/><radialGradient id="Áåçûìÿííûé_ãðàäèåíò_18" cx="144.12" cy="116" r="121.15" gradientUnits="userSpaceOnUse"><stop offset="0" stop-color="#396caa"/><stop offset="1" stop-color="#274f89"/></radialGradient><linearGradient id="Áåçûìÿííûé_ãðàäèåíò_9-5" x1="106.01" y1="30.06" x2="218.97" y2="98.88" xlink:href="#Áåçûìÿííûé_ãðàäèåíò_9"/><linearGradient id="Áåçûìÿííûé_ãðàäèåíò_441" x1="-196.69" y1="1279.98" x2="-130.31" y2="1264.94" gradientTransform="matrix(0.87, 0.5, 0, 1.15, 273.07, -1249.93)" gradientUnits="userSpaceOnUse"><stop offset="0" stop-color="#3919bb"/><stop offset="1" stop-color="#6507fa"/></linearGradient><radialGradient id="Áåçûìÿííûé_ãðàäèåíò_13-5" cx="130.63" cy="259.7" r="43.62" xlink:href="#Áåçûìÿííûé_ãðàäèåíò_13"/><linearGradient id="Áåçûìÿííûé_ãðàäèåíò_45" x1="138.86" y1="245.71" x2="207.19" y2="286.45" gradientUnits="userSpaceOnUse"><stop offset="0" stop-color="#d4ecff"/><stop offset="0.2" stop-color="#d0eafe"/><stop offset="0.39" stop-color="#c5e2f9"/><stop offset="0.57" stop-color="#b2d6f2"/><stop offset="0.74" stop-color="#98c4e7"/><stop offset="0.84" stop-color="#86b8e0"/></linearGradient><radialGradient id="Áåçûìÿííûé_ãðàäèåíò_13-6" cx="257.1" cy="171.78" r="43.62" xlink:href="#Áåçûìÿííûé_ãðàäèåíò_13"/><linearGradient id="Áåçûìÿííûé_ãðàäèåíò_45-2" x1="265.33" y1="157.79" x2="333.66" y2="198.53" xlink:href="#Áåçûìÿííûé_ãðàäèåíò_45"/><radialGradient id="Áåçûìÿííûé_ãðàäèåíò_13-7" cx="4.16" cy="171.78" r="43.62" xlink:href="#Áåçûìÿííûé_ãðàäèåíò_13"/><linearGradient id="Áåçûìÿííûé_ãðàäèåíò_45-3" x1="12.39" y1="157.79" x2="80.72" y2="198.53" xlink:href="#Áåçûìÿííûé_ãðàäèåíò_45"/></defs><g id="Layer_2" data-name="Layer 2"><g id="Ñëîé_1" data-name="Ñëîé 1"><path class="cls-1" d="M301.36,3.8a10.88,10.88,0,0,0-2.85,2.45c-.14-5.62-4.17-7.87-9.14-5A16.56,16.56,0,0,0,285,5.08c-2.21-3.87-6.79-4.76-12.1-1.7-7.47,4.31-13.52,14.8-13.52,23.42a16.2,16.2,0,0,0,.13,2,5.08,5.08,0,0,0-3.79.76,14.29,14.29,0,0,0-6.46,11.2c0,4.13,2.89,5.8,6.46,3.74l45.66-26.36a13.76,13.76,0,0,0,6.22-10.77C307.58,3.42,304.79,1.81,301.36,3.8Z"/><path class="cls-2" d="M309.5,11a11.08,11.08,0,0,0-2.86,2.45c-.13-5.63-4.16-7.87-9.13-5a16.56,16.56,0,0,0-4.39,3.83c-2.22-3.87-6.8-4.77-12.11-1.7-7.47,4.31-13.52,14.8-13.52,23.42a16,16,0,0,0,.14,2,5.13,5.13,0,0,0-3.79.77A14.3,14.3,0,0,0,257.37,48c0,4.13,2.9,5.8,6.47,3.74L309.5,25.33a13.75,13.75,0,0,0,6.21-10.77C315.71,10.59,312.93,9,309.5,11Z"/><path class="cls-3" d="M317.63,18.14a10.88,10.88,0,0,0-2.85,2.45c-.14-5.63-4.17-7.87-9.14-5a16.38,16.38,0,0,0-4.39,3.83c-2.21-3.87-6.79-4.77-12.1-1.7-7.47,4.31-13.52,14.8-13.52,23.42a16,16,0,0,0,.13,2,5.1,5.1,0,0,0-3.78.77,14.28,14.28,0,0,0-6.47,11.2c0,4.13,2.89,5.8,6.47,3.74L317.63,32.5a13.75,13.75,0,0,0,6.22-10.77C323.85,17.76,321.07,16.15,317.63,18.14Z"/><path class="cls-4" d="M52.49,219.49a1.47,1.47,0,0,1-.7-.19,1.41,1.41,0,0,1-.71-1.22V200a1.4,1.4,0,0,1,.71-1.22l15.66-9.05a1.42,1.42,0,0,1,2.12,1.22V209a1.4,1.4,0,0,1-.71,1.22L53.2,219.3A1.48,1.48,0,0,1,52.49,219.49Zm1.42-18.69v14.83l12.84-7.41V193.39ZM68.16,209h0Z"/><polygon class="cls-5" points="41.74 307.78 19.15 294.73 41.74 281.69 64.33 294.73 41.74 307.78"/><path class="cls-3" d="M41.74,299.7a1.73,1.73,0,0,1-.86-.23l-22.59-13a1.72,1.72,0,0,1,0-3l22.59-13a1.69,1.69,0,0,1,1.71,0l22.6,13a1.73,1.73,0,0,1,0,3l-22.59,13A1.79,1.79,0,0,1,41.74,299.7ZM22.58,284.94,41.74,296l19.15-11.06L41.74,273.88Z"/><polygon class="cls-6" points="64.33 274.75 41.74 287.79 41.74 261.71 64.33 248.66 64.33 274.75"/><polygon class="cls-7" points="41.74 261.71 19.15 248.66 41.74 235.62 64.33 248.66 41.74 261.71"/><polygon class="cls-8" points="41.74 287.79 19.15 274.75 19.15 248.66 41.74 261.71 41.74 287.79"/><polygon class="cls-4" points="33.6 273.7 27.28 270.05 27.28 262.76 33.6 266.4 33.6 273.7"/><polygon class="cls-5" points="294.68 167.28 272.09 154.24 294.68 141.19 317.27 154.24 294.68 167.28"/><path class="cls-3" d="M294.68,159.2a1.66,1.66,0,0,1-.86-.23l-22.59-13a1.71,1.71,0,0,1,0-3l22.59-13.05a1.76,1.76,0,0,1,1.72,0L318.13,143a1.71,1.71,0,0,1,0,3l-22.59,13A1.66,1.66,0,0,1,294.68,159.2Zm-19.16-14.76,19.16,11.06,19.15-11.06-19.15-11.06Z"/><polygon class="cls-9" points="317.27 134.25 294.68 147.29 294.68 121.21 317.27 108.17 317.27 134.25"/><polygon class="cls-10" points="294.68 121.21 272.09 108.17 294.68 95.13 317.27 108.17 294.68 121.21"/><polygon class="cls-11" points="294.68 147.29 272.09 134.25 272.09 108.17 294.68 121.21 294.68 147.29"/><polygon class="cls-3" points="286.54 133.2 280.23 129.56 280.23 122.26 286.54 125.91 286.54 133.2"/><polygon class="cls-3" points="288.36 108.24 294.63 104.52 301 108.09 294.72 111.82 288.36 108.24"/><polygon class="cls-5" points="294.68 307.78 272.09 294.73 294.68 281.69 317.27 294.73 294.68 307.78"/><path class="cls-3" d="M294.68,299.7a1.76,1.76,0,0,1-.86-.23l-22.59-13a1.72,1.72,0,0,1,0-3l22.59-13a1.71,1.71,0,0,1,1.72,0l22.59,13a1.72,1.72,0,0,1,0,3l-22.59,13A1.76,1.76,0,0,1,294.68,299.7Zm-19.16-14.76L294.68,296l19.15-11.06-19.15-11.06Z"/><polygon class="cls-12" points="317.27 274.75 294.68 287.79 294.68 261.71 317.27 248.66 317.27 274.75"/><polygon class="cls-13" points="294.68 261.71 272.09 248.66 294.68 235.62 317.27 248.66 294.68 261.71"/><polygon class="cls-14" points="294.68 287.79 272.09 274.75 272.09 248.66 294.68 261.71 294.68 287.79"/><polygon class="cls-4" points="286.54 273.7 280.22 270.05 280.22 262.76 286.54 266.4 286.54 273.7"/><polygon class="cls-5" points="41.74 167.28 19.15 154.24 41.74 141.19 64.33 154.24 41.74 167.28"/><path class="cls-3" d="M41.74,159.2a1.63,1.63,0,0,1-.86-.23l-22.59-13a1.71,1.71,0,0,1,0-3l22.59-13.05a1.74,1.74,0,0,1,1.71,0L65.19,143a1.72,1.72,0,0,1,0,3L42.6,159A1.68,1.68,0,0,1,41.74,159.2ZM22.58,144.44,41.74,155.5l19.15-11.06L41.74,133.38Z"/><polygon class="cls-15" points="64.33 134.25 41.74 147.29 41.74 121.21 64.33 108.17 64.33 134.25"/><polygon class="cls-16" points="41.74 121.21 19.15 108.17 41.74 95.13 64.33 108.17 41.74 121.21"/><polygon class="cls-17" points="41.74 147.29 19.15 134.25 19.15 108.17 41.74 121.21 41.74 147.29"/><polygon class="cls-4" points="33.6 133.2 27.28 129.56 27.28 122.26 33.6 125.91 33.6 133.2"/><rect class="cls-3" x="212.28" y="145.34" width="75.86" height="3.43" transform="translate(-40 144.76) rotate(-29.99)"/><path class="cls-5" d="M162.88,259.4,104.94,226c-2.12-1.22-1.86-3.36.6-4.78l61.4-35.54c2.45-1.42,6.16-1.57,8.29-.35l57.93,33.45c2.12,1.23,1.86,3.37-.59,4.79l-61.41,35.54C168.71,260.48,165,260.63,162.88,259.4Z"/><path class="cls-3" d="M166.48,248.41a9,9,0,0,1-4.46-1l-57.94-33.45a4.17,4.17,0,0,1-2.29-3.56,5,5,0,0,1,2.89-4.19l61.4-35.55c3-1.71,7.37-1.86,10-.34L234,203.72a4.15,4.15,0,0,1,2.29,3.56,5,5,0,0,1-2.89,4.19L172,247A11.36,11.36,0,0,1,166.48,248.41Zm-2.74-4c1.59.92,4.65.76,6.56-.35l61.41-35.54c.86-.5,1.17-1,1.17-1.22s-.18-.36-.58-.59l-57.93-33.45c-1.59-.92-4.66-.75-6.57.35l-61.4,35.54c-.86.5-1.18,1-1.18,1.22s.18.36.58.59Z"/><path class="cls-18" d="M167.06,83.34s-31.81,3-51,4.5l50.82,144.71,67.21-38.76,0,0,.12-.07h0a3.74,3.74,0,0,0,1.37-3.32V48.93a10.22,10.22,0,0,0-1.17-4.51Z"/><path class="cls-19" d="M231.48,41,172.37,6.85a2.68,2.68,0,0,0-2.69-.23h0L102.2,45.55l3.18,11.77L122.3,105.5l3.18,1.84,109-62.93A8.26,8.26,0,0,0,231.48,41Z"/><path class="cls-20" d="M164.05,232.42l-59.11-34.13c-2.3-1.32-4.16-4.88-4.16-7.95V48.9c0-3.07,1.86-4.48,4.16-3.15l59.11,34.13c2.29,1.32,4.16,4.88,4.16,8V229.27C168.21,232.34,166.34,233.75,164.05,232.42Z"/><path class="cls-4" d="M165.31,79.16,106.2,45c-1.33-.77-2.51-.62-3.27.24a3.11,3.11,0,0,1,2,.47l59.11,34.13c2.29,1.32,4.16,4.88,4.16,8V229.27a4.36,4.36,0,0,1-.89,2.91c1.28-.2,2.15-1.52,2.15-3.62V87.12C169.47,84.05,167.61,80.49,165.31,79.16Z"/><path class="cls-21" d="M160.33,223.9l-51.67-29.83c-2-1.16-3.64-4.27-3.64-6.95V55.76c0-2.68,1.63-3.91,3.64-2.75l51.67,29.83c2,1.16,3.64,4.27,3.64,7V221.15C164,223.83,162.34,225.07,160.33,223.9Z"/><path class="cls-21" d="M160.33,223.9l-51.67-29.83c-2-1.16-3.64-4.27-3.64-6.95V55.76c0-2.68,1.63-3.91,3.64-2.75l51.67,29.83c2,1.16,3.64,4.27,3.64,7V221.15C164,223.83,162.34,225.07,160.33,223.9Z"/><path class="cls-22" d="M160.33,223.9l-51.67-29.83c-2-1.16-3.64-4.27-3.64-6.95V55.76c0-2.68,1.63-3.91,3.64-2.75l51.67,29.83c2,1.16,3.64,4.27,3.64,7V221.15C164,223.83,162.34,225.07,160.33,223.9Z"/><path class="cls-23" d="M162,222.91l-51.68-29.83c-2-1.16-3.63-4.27-3.63-7V54.76a4.19,4.19,0,0,1,.52-2.19c-1.3,0-2.21,1.18-2.21,3.19V187.12c0,2.68,1.63,5.79,3.64,6.95l51.67,29.83c1.32.77,2.48.49,3.11-.55A3,3,0,0,1,162,222.91Z"/><path class="cls-22" d="M160.33,163.59l-19.21-11.08-30.63,17.68L164,201.06V170.55C164,167.87,162.34,164.75,160.33,163.59Z"/><path class="cls-22" d="M160.33,136.68l-19.21-11.09-30.63,17.68L164,174.15V143.63C164,141,162.34,137.84,160.33,136.68Z"/><path class="cls-22" d="M160.33,109.76,141.12,98.67l-30.63,17.68L164,147.23V116.71C164,114,162.34,110.92,160.33,109.76Z"/><path class="cls-22" d="M160.33,82.84,141.12,71.75,110.49,89.44,164,120.31V89.79C164,87.11,162.34,84,160.33,82.84Z"/><path class="cls-22" d="M160.33,82.84,117.81,58.29l-7.32,4.23L164,93.39v-3.6C164,87.11,162.34,84,160.33,82.84Z"/><polygon class="cls-20" points="163.97 93.39 110.49 62.52 110.49 79.53 163.97 110.41 163.97 93.39"/><polygon class="cls-20" points="163.97 120.31 110.49 89.44 110.49 106.45 163.97 137.32 163.97 120.31"/><polygon class="cls-20" points="163.97 147.23 110.49 116.35 110.49 133.37 163.97 164.24 163.97 147.23"/><polygon class="cls-20" points="163.97 174.15 110.49 143.27 110.49 160.29 163.97 191.16 163.97 174.15"/><polygon class="cls-20" points="163.97 201.06 110.49 170.19 110.49 187.2 163.97 218.08 163.97 201.06"/><path class="cls-22" d="M159.25,104.34,119,81.09a4.93,4.93,0,0,1-2.06-3.94V72.6c0-1.52.92-2.22,2.06-1.56l40.28,23.25a4.93,4.93,0,0,1,2.06,3.94v4.56C161.31,104.3,160.39,105,159.25,104.34Z"/><path class="cls-24" d="M121,80.22A4.93,4.93,0,0,1,119,76.28V71.72a3.24,3.24,0,0,1,.07-.65l0,0c-1.14-.66-2.06,0-2.06,1.56v4.55A4.93,4.93,0,0,0,119,81.09l40.28,23.25a1.23,1.23,0,0,0,2-.9Z"/><path class="cls-4" d="M146.61,91.85l-24.24-14a1.73,1.73,0,0,1-.72-1.38h0c0-.54.32-.78.72-.55l24.24,14a1.73,1.73,0,0,1,.72,1.39h0C147.33,91.84,147,92.08,146.61,91.85Z"/><path class="cls-22" d="M159.25,131.09,119,107.84a4.93,4.93,0,0,1-2.06-3.93V99.35c0-1.52.92-2.21,2.06-1.56l40.28,23.26a4.9,4.9,0,0,1,2.06,3.93v4.56C161.31,131.05,160.39,131.75,159.25,131.09Z"/><path class="cls-24" d="M121,107A4.93,4.93,0,0,1,119,103V98.48a3.26,3.26,0,0,1,.07-.66l0,0c-1.14-.65-2.06,0-2.06,1.56v4.56a4.93,4.93,0,0,0,2.06,3.93l40.28,23.25a1.23,1.23,0,0,0,2-.9Z"/><path class="cls-4" d="M146.61,118.61l-24.24-14a1.73,1.73,0,0,1-.72-1.38h0c0-.54.32-.78.72-.55l24.24,14a1.73,1.73,0,0,1,.72,1.39h0C147.33,118.59,147,118.84,146.61,118.61Z"/><path class="cls-22" d="M159.25,158.1,119,134.84a4.93,4.93,0,0,1-2.06-3.93v-4.56c0-1.52.92-2.21,2.06-1.56l40.28,23.26a4.92,4.92,0,0,1,2.06,3.93v4.56C161.31,158.05,160.39,158.75,159.25,158.1Z"/><path class="cls-24" d="M121,134A4.93,4.93,0,0,1,119,130v-4.55a3.34,3.34,0,0,1,.07-.66l0,0c-1.14-.65-2.06,0-2.06,1.56v4.56a4.93,4.93,0,0,0,2.06,3.93l40.28,23.25a1.23,1.23,0,0,0,2-.9Z"/><path class="cls-25" d="M146.61,145.61l-24.24-14a1.73,1.73,0,0,1-.72-1.38h0c0-.53.32-.78.72-.55l24.24,14a1.73,1.73,0,0,1,.72,1.38h0C147.33,145.59,147,145.84,146.61,145.61Z"/><path class="cls-22" d="M159.25,185.35,119,162.09a4.93,4.93,0,0,1-2.06-3.93V153.6c0-1.52.92-2.21,2.06-1.56l40.28,23.26a4.93,4.93,0,0,1,2.06,3.93v4.56C161.31,185.31,160.39,186,159.25,185.35Z"/><path class="cls-24" d="M121,161.22a4.93,4.93,0,0,1-2.06-3.94v-4.55a3.34,3.34,0,0,1,.07-.66l0,0c-1.14-.65-2.06,0-2.06,1.56v4.56a4.93,4.93,0,0,0,2.06,3.93l40.28,23.26a1.23,1.23,0,0,0,2-.91Z"/><path class="cls-26" d="M146.61,172.86l-24.24-14a1.73,1.73,0,0,1-.72-1.38h0c0-.53.32-.78.72-.55l24.24,14a1.73,1.73,0,0,1,.72,1.38h0C147.33,172.84,147,173.09,146.61,172.86Z"/><path class="cls-22" d="M159.25,212.06,119,188.8a4.92,4.92,0,0,1-2.06-3.93v-4.56c0-1.51.92-2.21,2.06-1.56L159.25,202a4.93,4.93,0,0,1,2.06,3.93v4.56C161.31,212,160.39,212.71,159.25,212.06Z"/><path class="cls-24" d="M121,187.93A4.93,4.93,0,0,1,119,184v-4.56a3.34,3.34,0,0,1,.07-.66l0,0c-1.14-.65-2.06,0-2.06,1.56v4.56A4.92,4.92,0,0,0,119,188.8l40.28,23.26a1.23,1.23,0,0,0,2-.91Z"/><path class="cls-25" d="M146.61,199.57l-24.24-14a1.73,1.73,0,0,1-.72-1.38h0c0-.53.32-.78.72-.55l24.24,14a1.73,1.73,0,0,1,.72,1.38h0C147.33,199.55,147,199.8,146.61,199.57Z"/><polygon class="cls-27" points="110.49 62.52 114.7 64.95 114.7 81.96 110.49 79.53 110.49 62.52"/><polygon class="cls-27" points="110.49 89.44 114.7 91.87 114.7 108.88 110.49 106.45 110.49 89.44"/><polygon class="cls-27" points="110.49 116.35 114.7 118.78 114.7 135.8 110.49 133.37 110.49 116.35"/><polygon class="cls-27" points="110.49 143.27 114.7 145.7 114.7 162.72 110.49 160.29 110.49 143.27"/><polygon class="cls-27" points="110.49 170.19 114.7 172.62 114.7 189.63 110.49 187.2 110.49 170.19"/><ellipse class="cls-25" cx="150.53" cy="93.04" rx="0.7" ry="1.21" transform="matrix(0.87, -0.5, 0.5, 0.87, -26.35, 87.75)"/><path class="cls-26" d="M155,95.62c0,.54-.38.76-.85.49a1.89,1.89,0,0,1-.86-1.47c0-.55.39-.77.86-.5A1.91,1.91,0,0,1,155,95.62Z"/><path class="cls-25" d="M158.61,97.71c0,.54-.38.76-.85.49a1.88,1.88,0,0,1-.85-1.48c0-.54.38-.76.85-.49A1.88,1.88,0,0,1,158.61,97.71Z"/><path class="cls-26" d="M151.39,120.44c0,.54-.39.76-.86.49a1.88,1.88,0,0,1-.85-1.48c0-.54.38-.76.85-.49A1.89,1.89,0,0,1,151.39,120.44Z"/><path class="cls-25" d="M155,122.52c0,.55-.38.77-.85.5a1.9,1.9,0,0,1-.86-1.48c0-.54.39-.76.86-.49A1.87,1.87,0,0,1,155,122.52Z"/><path class="cls-4" d="M158.61,124.61c0,.55-.38.77-.85.49a1.87,1.87,0,0,1-.85-1.47c0-.55.38-.77.85-.49A1.87,1.87,0,0,1,158.61,124.61Z"/><path class="cls-4" d="M151.39,147.55c0,.54-.39.76-.86.49a1.88,1.88,0,0,1-.85-1.48c0-.54.38-.76.85-.49A1.89,1.89,0,0,1,151.39,147.55Z"/><path class="cls-26" d="M155,149.63c0,.55-.38.77-.85.5a1.92,1.92,0,0,1-.86-1.48c0-.55.39-.77.86-.49A1.87,1.87,0,0,1,155,149.63Z"/><path class="cls-4" d="M158.61,151.72c0,.54-.38.76-.85.49a1.87,1.87,0,0,1-.85-1.47c0-.55.38-.77.85-.5A1.89,1.89,0,0,1,158.61,151.72Z"/><path class="cls-4" d="M151.39,174.26c0,.54-.39.76-.86.49a1.88,1.88,0,0,1-.85-1.48c0-.54.38-.76.85-.49A1.9,1.9,0,0,1,151.39,174.26Z"/><path class="cls-25" d="M155,176.35c0,.54-.38.76-.85.49a1.89,1.89,0,0,1-.86-1.48c0-.54.39-.76.86-.49A1.88,1.88,0,0,1,155,176.35Z"/><path class="cls-25" d="M158.61,178.43c0,.55-.38.77-.85.49a1.87,1.87,0,0,1-.85-1.47c0-.55.38-.77.85-.49A1.87,1.87,0,0,1,158.61,178.43Z"/><path class="cls-4" d="M151.39,201.34c0,.54-.39.76-.86.49a1.88,1.88,0,0,1-.85-1.48c0-.54.38-.76.85-.49A1.89,1.89,0,0,1,151.39,201.34Z"/><path class="cls-26" d="M155,203.42c0,.55-.38.77-.85.5a1.92,1.92,0,0,1-.86-1.48c0-.55.39-.77.86-.49A1.87,1.87,0,0,1,155,203.42Z"/><path class="cls-25" d="M158.61,205.51c0,.54-.38.76-.85.49a1.87,1.87,0,0,1-.85-1.47c0-.55.38-.77.85-.5A1.91,1.91,0,0,1,158.61,205.51Z"/><path class="cls-22" d="M177.11,213.3V92.86l.25-.15L227.7,63.65V184.1l-.25.14Zm1-119.87V211.57l48.59-28V65.38Z"/><path class="cls-22" d="M214.62,117.84l-22.57,13c-1.52.88-2.75-.05-2.75-2.07V116.29a6.57,6.57,0,0,1,2.75-5.25l22.57-13c1.52-.88,2.74,0,2.74,2.07V112.6A6.54,6.54,0,0,1,214.62,117.84Z"/><path class="cls-20" d="M215.17,97.77a3.6,3.6,0,0,1,.2,1.25v12.52a6.57,6.57,0,0,1-2.74,5.24l-22.57,13a2.56,2.56,0,0,1-.55.24,1.59,1.59,0,0,0,2.54.82l22.57-13a6.54,6.54,0,0,0,2.74-5.24V100.08C217.36,98.31,216.42,97.38,215.17,97.77Z"/><path class="cls-4" d="M210.5,110.31c.41-.24.75,0,.75.43v2.85a1.67,1.67,0,0,1-.75,1.31c-.42.24-.76,0-.76-.43v-2.85A1.66,1.66,0,0,1,210.5,110.31Z"/><path class="cls-25" d="M207.26,112.53c.42-.24.75,0,.75.44v2.49a1.65,1.65,0,0,1-.75,1.31c-.42.24-.76,0-.76-.43v-2.5A1.67,1.67,0,0,1,207.26,112.53Z"/><path class="cls-26" d="M204,111.62c.42-.24.76-.05.76.44v5.27a1.67,1.67,0,0,1-.76,1.31c-.42.24-.75,0-.75-.43v-5.28A1.66,1.66,0,0,1,204,111.62Z"/><path class="cls-25" d="M200.78,110.45c.42-.24.76,0,.76.43v8.32a1.67,1.67,0,0,1-.76,1.31c-.41.24-.75,0-.75-.44v-8.31A1.67,1.67,0,0,1,200.78,110.45Z"/><path class="cls-25" d="M197.55,113.19c.41-.24.75,0,.75.44v7.44a1.69,1.69,0,0,1-.75,1.31c-.42.24-.76.05-.76-.44V114.5A1.67,1.67,0,0,1,197.55,113.19Z"/><path class="cls-4" d="M194.31,118.46c.42-.24.75,0,.75.44v4a1.66,1.66,0,0,1-.75,1.31c-.42.24-.76,0-.76-.44v-4A1.67,1.67,0,0,1,194.31,118.46Z"/><path class="cls-26" d="M209.75,108.87c0,.47.34.66.75.43a1.66,1.66,0,0,0,.74-1.29c0-.47-.33-.67-.74-.43A1.65,1.65,0,0,0,209.75,108.87Z"/><ellipse class="cls-4" cx="210.5" cy="105.76" rx="1.05" ry="0.61" transform="translate(13.65 235.17) rotate(-60)"/><rect class="cls-3" x="292.96" y="41.54" width="3.44" height="66.63"/><path class="cls-5" d="M164.37,320.51l-34.51-19.93c-2.12-1.22-1.85-3.36.59-4.77l33.33-19.24c2.44-1.41,6.14-1.56,8.26-.34l34.51,19.93c2.12,1.22,1.85,3.36-.59,4.77l-33.33,19.24C170.19,321.58,166.49,321.73,164.37,320.51Z"/><path class="cls-3" d="M168,312.4a9.22,9.22,0,0,1-4.59-1.1h0l-34.51-19.92a4.41,4.41,0,0,1-2.41-3.77,5.26,5.26,0,0,1,3-4.4L162.79,264c3.09-1.78,7.48-1.93,10.23-.34l34.51,19.92a4.41,4.41,0,0,1,2.41,3.77,5.26,5.26,0,0,1-3,4.4L173.61,311A11.5,11.5,0,0,1,168,312.4Zm-2.63-4.49c1.52.88,4.47.72,6.3-.34L205,288.33c.84-.49,1-.93,1-1a1.26,1.26,0,0,0-.45-.37L171.06,267c-1.52-.87-4.47-.72-6.31.35l-33.32,19.24c-.84.48-1,.92-1,1a1.26,1.26,0,0,0,.45.37l34.51,19.93Z"/><path class="cls-23" d="M208,275.11h0v-11.9l-26.7,0L172,257.86c-2.12-1.22-5.82-1.07-8.26.34l-8.62,5-26.72,0v12.25a2.39,2.39,0,0,0,1.42,2.21l34.51,19.93c2.12,1.22,5.82,1.07,8.26-.34L206,278C207.37,277.15,208.05,276.1,208,275.11Z"/><path class="cls-28" d="M168.21,257a9.6,9.6,0,0,0-4.43,1.16l-8.62,5-26.72,0v12.25a2.39,2.39,0,0,0,1.42,2.21l34.51,19.93a7.51,7.51,0,0,0,3.84.82Z"/><path class="cls-25" d="M131.46,263.16h-3v12.25a2.39,2.39,0,0,0,1.42,2.21l1.6.93Z"/><path class="cls-20" d="M164.9,297.81a9.41,9.41,0,0,0,6.61-.08v-13.9H164.9Z"/><path class="cls-29" d="M164.37,285.35l-34.51-19.93c-2.12-1.22-1.85-3.36.59-4.77l33.33-19.24c2.44-1.41,6.14-1.57,8.26-.34L206.55,261c2.12,1.22,1.85,3.36-.59,4.77L172.63,285C170.19,286.41,166.49,286.57,164.37,285.35Z"/><path class="cls-4" d="M206,263.42l-33.33,19.24c-2.44,1.41-6.14,1.56-8.26.34l-34.51-19.92a3.41,3.41,0,0,1-1.06-.94c-.73,1.17-.4,2.44,1.06,3.28l34.51,19.93c2.12,1.22,5.82,1.06,8.26-.35L206,265.76c1.9-1.09,2.48-2.63,1.65-3.83A4.67,4.67,0,0,1,206,263.42Z"/><path class="cls-25" d="M195.28,278.26a3.07,3.07,0,0,1-1.4,2.41c-.77.45-1.39.08-1.39-.8a3.09,3.09,0,0,1,1.39-2.42C194.65,277,195.28,277.37,195.28,278.26Z"/><path class="cls-25" d="M199.76,275.67a3.06,3.06,0,0,1-1.39,2.41c-.77.45-1.4.09-1.4-.8a3.1,3.1,0,0,1,1.4-2.42C199.14,274.42,199.76,274.78,199.76,275.67Z"/><path class="cls-25" d="M204.25,273.08a3.07,3.07,0,0,1-1.4,2.41c-.77.45-1.39.09-1.39-.8a3.09,3.09,0,0,1,1.39-2.42C203.62,271.83,204.25,272.19,204.25,273.08Z"/><path class="cls-20" d="M166.41,273l-16.15-9.32c-1-.57-.87-1.57.28-2.24l15.59-9a4.31,4.31,0,0,1,3.87-.16l16.15,9.33c1,.57.87,1.57-.28,2.23l-15.59,9A4.31,4.31,0,0,1,166.41,273Z"/><path class="cls-25" d="M168,265.18l-2.24-1.29c-.13-.07-.12-.21,0-.3l2.16-1.25a.59.59,0,0,1,.53,0l2.24,1.29c.14.08.12.22,0,.31l-2.16,1.24A.59.59,0,0,1,168,265.18Z"/><path class="cls-23" d="M150.26,263.67l.05,0a2.29,2.29,0,0,1,.23-.16l15.59-9a4.31,4.31,0,0,1,3.87-.16l16.1,9.3c.92-.66,1-1.55.05-2.07L170,252.27a4.31,4.31,0,0,0-3.87.16l-15.59,9C149.39,262.1,149.27,263.1,150.26,263.67Z"/><path class="cls-5" d="M290.84,232.59l-34.51-19.92c-2.12-1.23-1.85-3.36.6-4.77l33.32-19.24c2.45-1.42,6.15-1.57,8.26-.35L333,208.24c2.11,1.22,1.85,3.36-.6,4.77l-33.32,19.24C296.66,233.66,293,233.81,290.84,232.59Z"/><path class="cls-3" d="M294.45,224.48a9.25,9.25,0,0,1-4.59-1.1h0l-34.51-19.92a4.4,4.4,0,0,1-2.41-3.77,5.3,5.3,0,0,1,3-4.4l33.32-19.24c3.08-1.78,7.48-1.93,10.22-.34L334,195.64a4.37,4.37,0,0,1,2.4,3.77,5.26,5.26,0,0,1-3,4.39L300.09,223A11.46,11.46,0,0,1,294.45,224.48ZM291.82,220c1.53.88,4.47.72,6.31-.34l33.32-19.24c.84-.49,1-.92,1.05-1a1.35,1.35,0,0,0-.45-.38l-34.52-19.92c-1.52-.88-4.46-.72-6.3.34l-33.32,19.24c-.84.48-1,.92-1.05,1a1.27,1.27,0,0,0,.45.37L291.82,220Z"/><path class="cls-23" d="M334.44,187.2h0V175.29l-26.7,0-9.23-5.33c-2.11-1.22-5.81-1.07-8.26.35l-8.61,5-26.73,0v12.25a2.38,2.38,0,0,0,1.42,2.21l34.51,19.93c2.12,1.22,5.82,1.07,8.27-.34l33.32-19.24C333.84,189.23,334.52,188.18,334.44,187.2Z"/><path class="cls-30" d="M294.68,169.13a9.36,9.36,0,0,0-4.43,1.16l-8.61,5-26.73,0v12.25a2.38,2.38,0,0,0,1.42,2.21l34.51,19.93a7.54,7.54,0,0,0,3.84.82Z"/><path class="cls-25" d="M257.94,175.25h-3v12.25a2.38,2.38,0,0,0,1.42,2.21l1.61.93Z"/><path class="cls-20" d="M291.38,209.89a9.39,9.39,0,0,0,6.6-.08v-13.9h-6.6Z"/><path class="cls-31" d="M290.84,197.43,256.33,177.5c-2.12-1.22-1.85-3.36.6-4.77l33.32-19.24c2.45-1.41,6.15-1.56,8.26-.34L333,173.07c2.11,1.23,1.85,3.36-.6,4.78l-33.32,19.23C296.66,198.5,293,198.65,290.84,197.43Z"/><path class="cls-4" d="M332.43,175.5l-33.32,19.24c-2.45,1.41-6.15,1.57-8.27.34l-34.51-19.92a3,3,0,0,1-1-.94c-.73,1.17-.4,2.44,1,3.28l34.51,19.93c2.12,1.22,5.82,1.07,8.27-.35l33.32-19.23c1.9-1.1,2.48-2.63,1.65-3.84A4.5,4.5,0,0,1,332.43,175.5Z"/><path class="cls-25" d="M321.75,190.34a3.06,3.06,0,0,1-1.39,2.41c-.77.45-1.4.09-1.4-.8a3.1,3.1,0,0,1,1.4-2.42C321.13,189.09,321.75,189.45,321.75,190.34Z"/><path class="cls-25" d="M326.24,187.75a3.07,3.07,0,0,1-1.4,2.41c-.77.45-1.39.09-1.39-.8a3.09,3.09,0,0,1,1.39-2.42C325.61,186.5,326.24,186.86,326.24,187.75Z"/><path class="cls-25" d="M330.72,185.16a3.06,3.06,0,0,1-1.39,2.41c-.77.45-1.4.09-1.4-.8a3.07,3.07,0,0,1,1.4-2.41C330.1,183.91,330.72,184.27,330.72,185.16Z"/><path class="cls-20" d="M292.88,185.07l-16.15-9.32c-1-.57-.86-1.57.28-2.23l15.6-9a4.29,4.29,0,0,1,3.86-.16l16.15,9.33c1,.57.87,1.57-.27,2.23l-15.6,9A4.28,4.28,0,0,1,292.88,185.07Z"/><path class="cls-25" d="M294.43,177.27,292.2,176c-.14-.08-.12-.22,0-.31l2.16-1.25a.61.61,0,0,1,.54,0l2.23,1.29c.14.08.12.22,0,.31L295,177.24A.58.58,0,0,1,294.43,177.27Z"/><path class="cls-23" d="M276.73,175.75l0,0,.23-.16,15.6-9a4.29,4.29,0,0,1,3.86-.16l16.11,9.3c.91-.65,1-1.54,0-2.07l-16.15-9.33a4.29,4.29,0,0,0-3.86.16l-15.6,9C275.87,174.18,275.74,175.18,276.73,175.75Z"/><path class="cls-5" d="M37.9,232.59,3.39,212.67c-2.12-1.23-1.85-3.36.59-4.77l33.33-19.24c2.44-1.42,6.14-1.57,8.26-.35l34.51,19.93c2.12,1.22,1.86,3.36-.59,4.77L46.17,232.25C43.72,233.66,40,233.81,37.9,232.59Z"/><path class="cls-3" d="M41.51,224.48a9.25,9.25,0,0,1-4.59-1.1h0L2.41,203.46A4.4,4.4,0,0,1,0,199.69a5.29,5.29,0,0,1,3-4.4l33.33-19.24c3.08-1.78,7.48-1.93,10.22-.34l34.51,19.93a4.38,4.38,0,0,1,2.41,3.77,5.26,5.26,0,0,1-3,4.39L47.15,223A11.46,11.46,0,0,1,41.51,224.48ZM38.88,220c1.52.88,4.47.72,6.31-.34l33.32-19.24c.84-.49,1-.92,1-1a1.13,1.13,0,0,0-.45-.38L44.59,179.11c-1.52-.88-4.46-.72-6.3.34L5,198.69c-.83.48-1,.92-1,1a1.16,1.16,0,0,0,.45.37L38.88,220Z"/><path class="cls-23" d="M81.5,187.2h0V175.29l-26.7,0-9.23-5.33c-2.12-1.22-5.82-1.07-8.26.35l-8.61,5L2,175.24v12.25a2.38,2.38,0,0,0,1.42,2.21L37.9,209.63c2.12,1.22,5.82,1.07,8.27-.34l33.32-19.24C80.9,189.23,81.58,188.18,81.5,187.2Z"/><path class="cls-32" d="M41.74,169.13a9.36,9.36,0,0,0-4.43,1.16l-8.61,5L2,175.24v12.25a2.38,2.38,0,0,0,1.42,2.21L37.9,209.63a7.51,7.51,0,0,0,3.84.82Z"/><path class="cls-25" d="M5,175.25H2v12.25a2.38,2.38,0,0,0,1.42,2.21l1.61.93Z"/><path class="cls-20" d="M38.43,209.89a9.41,9.41,0,0,0,6.61-.08v-13.9H38.43Z"/><path class="cls-33" d="M37.9,197.43,3.39,177.5c-2.12-1.22-1.85-3.36.59-4.77l33.33-19.24c2.44-1.41,6.14-1.56,8.26-.34l34.51,19.92c2.12,1.23,1.86,3.36-.59,4.78L46.17,197.08C43.72,198.5,40,198.65,37.9,197.43Z"/><path class="cls-4" d="M79.49,175.5,46.17,194.74c-2.45,1.41-6.15,1.57-8.27.34L3.39,175.16a3.18,3.18,0,0,1-1.06-.94c-.72,1.17-.39,2.44,1.06,3.28L37.9,197.43c2.12,1.22,5.82,1.07,8.27-.35l33.32-19.23c1.9-1.1,2.48-2.63,1.65-3.84A4.5,4.5,0,0,1,79.49,175.5Z"/><path class="cls-25" d="M68.81,190.34a3.07,3.07,0,0,1-1.4,2.41c-.77.45-1.39.09-1.39-.8a3.09,3.09,0,0,1,1.39-2.42C68.18,189.09,68.81,189.45,68.81,190.34Z"/><path class="cls-25" d="M73.29,187.75a3.06,3.06,0,0,1-1.39,2.41c-.77.45-1.39.09-1.39-.8a3.09,3.09,0,0,1,1.39-2.42C72.67,186.5,73.29,186.86,73.29,187.75Z"/><path class="cls-25" d="M77.78,185.16a3.07,3.07,0,0,1-1.4,2.41c-.77.45-1.39.09-1.39-.8a3.06,3.06,0,0,1,1.39-2.41C77.15,183.91,77.78,184.27,77.78,185.16Z"/><path class="cls-20" d="M39.94,185.07l-16.15-9.32c-1-.57-.86-1.57.28-2.23l15.59-9a4.31,4.31,0,0,1,3.87-.16l16.15,9.33c1,.57.87,1.57-.28,2.23l-15.59,9A4.28,4.28,0,0,1,39.94,185.07Z"/><path class="cls-25" d="M41.49,177.27,39.25,176c-.13-.08-.12-.22,0-.31l2.16-1.25a.61.61,0,0,1,.54,0l2.23,1.29c.14.08.12.22,0,.31L42,177.24A.56.56,0,0,1,41.49,177.27Z"/><path class="cls-23" d="M23.79,175.75l.05,0a1.34,1.34,0,0,1,.23-.16l15.59-9a4.31,4.31,0,0,1,3.87-.16l16.11,9.3c.91-.65,1-1.54,0-2.07l-16.15-9.33a4.31,4.31,0,0,0-3.87.16l-15.59,9C22.93,174.18,22.8,175.18,23.79,175.75Z"/></g></g></svg>