<svg width="56" height="57" viewBox="0 0 56 57" fill="none" xmlns="http://www.w3.org/2000/svg">
<path opacity="0.4" d="M50.7266 27.6055C49.3032 22.9388 45.7566 19.5788 41.2999 18.5755C39.9932 12.7422 36.3999 8.56551 31.3132 6.97885C25.7599 5.27551 19.3199 6.93218 15.2832 11.1555C11.7132 14.8655 10.5466 19.9755 11.9232 25.4122C6.95323 26.6255 4.66656 30.9655 4.66656 34.8855C4.66656 39.2722 7.53656 44.1955 13.9299 44.6389H19.8332V38.5022C19.8332 35.5388 21.6066 33.7655 24.5699 33.7655H31.4299C34.3932 33.7655 36.1666 35.5388 36.1666 38.5022V44.6389H38.1499C41.4632 44.6389 44.6366 43.4022 47.0632 41.1855C50.8666 37.8722 52.2666 32.6688 50.7266 27.6055Z" fill="#FE2C3D"/>
<path d="M31.4298 33.7888H24.5698C21.6065 33.7888 19.8331 35.5622 19.8331 38.5255V45.3855C19.8331 48.3488 21.6065 50.1222 24.5698 50.1222H31.4298C34.3931 50.1222 36.1665 48.3488 36.1665 45.3855V38.5255C36.1665 35.5622 34.3931 33.7888 31.4298 33.7888ZM31.8965 42.3288L27.9998 46.7622L27.5331 47.2988C26.9031 48.0222 26.3665 47.8355 26.3665 46.8555V42.7022H24.5931C23.7765 42.7022 23.5665 42.2122 24.1031 41.6055L27.9998 37.1722L28.4665 36.6355C29.0965 35.9122 29.6331 36.0988 29.6331 37.0788V41.2322H31.4065C32.2231 41.2088 32.4331 41.7222 31.8965 42.3288Z" fill="#FE2C3D"/>
</svg>
