<svg width="56" height="57" viewBox="0 0 56 57" fill="none" xmlns="http://www.w3.org/2000/svg">
<path opacity="0.4" d="M19.8333 44.4754H18.6667C9.33332 44.4754 4.66666 42.1421 4.66666 30.4754V18.8088C4.66666 9.47544 9.33332 4.80878 18.6667 4.80878H37.3333C46.6667 4.80878 51.3333 9.47544 51.3333 18.8088V30.4754C51.3333 39.8088 46.6667 44.4754 37.3333 44.4754H36.1667C35.4433 44.4754 34.7433 44.8255 34.3 45.4088L30.8 50.0755C29.26 52.1288 26.74 52.1288 25.2 50.0755L21.7 45.4088C21.3267 44.8955 20.4867 44.4754 19.8333 44.4754Z" fill="#FE2C3D"/>
<path d="M18.6668 31.5955C18.2235 31.5955 17.7801 31.4322 17.4301 31.0822L12.7635 26.4155C12.438 26.0862 12.2555 25.6418 12.2555 25.1788C12.2555 24.7158 12.438 24.2715 12.7635 23.9422L17.4301 19.2755C18.1068 18.5988 19.2268 18.5988 19.9035 19.2755C20.5801 19.9522 20.5801 21.0722 19.9035 21.7488L16.4735 25.1788L19.9035 28.6088C20.5801 29.2855 20.5801 30.4055 19.9035 31.0822C19.5535 31.4322 19.1101 31.5955 18.6668 31.5955Z" fill="#FE2C3D"/>
<path d="M37.3335 31.5955C36.8901 31.5955 36.4468 31.4322 36.0968 31.0822C35.7714 30.7529 35.5888 30.3085 35.5888 29.8455C35.5888 29.3825 35.7714 28.9382 36.0968 28.6088L39.5268 25.1788L36.0968 21.7488C35.7714 21.4195 35.5888 20.9752 35.5888 20.5122C35.5888 20.0492 35.7714 19.6048 36.0968 19.2755C36.7735 18.5988 37.8935 18.5988 38.5701 19.2755L43.2368 23.9422C43.9135 24.6188 43.9135 25.7388 43.2368 26.4155L38.5701 31.0822C38.2201 31.4322 37.7768 31.5955 37.3335 31.5955Z" fill="#FE2C3D"/>
<path d="M25.6666 32.3655C25.3744 32.3695 25.0859 32.2999 24.8278 32.1629C24.5697 32.026 24.3502 31.8262 24.1898 31.582C24.0293 31.3378 23.933 31.0571 23.9097 30.7658C23.8864 30.4745 23.9369 30.1821 24.0566 29.9155L28.7233 19.0188C29.0966 18.1321 30.1233 17.7121 31.0333 18.1088C31.9199 18.4821 32.3399 19.5088 31.9433 20.4188L27.2766 31.3155C26.9966 31.9688 26.3433 32.3655 25.6666 32.3655Z" fill="#FE2C3D"/>
</svg>
