<svg width="56" height="56" viewBox="0 0 56 56" fill="none" xmlns="http://www.w3.org/2000/svg">
<path d="M14 30.3333C7.56001 30.3333 2.33334 35.5366 2.33334 42C2.33334 48.4633 7.56001 53.6666 14 53.6666C20.44 53.6666 25.6667 48.44 25.6667 42C25.6667 35.56 20.4633 30.3333 14 30.3333ZM9.24001 37.24H14C14.8867 37.24 15.5867 37.9633 15.5867 38.8266C15.5867 39.69 14.8633 40.4133 14 40.4133H9.24001C8.8192 40.4133 8.41563 40.2461 8.11807 39.9486C7.82051 39.651 7.65334 39.2475 7.65334 38.8266C7.65334 38.4058 7.82051 38.0023 8.11807 37.7047C8.41563 37.4071 8.8192 37.24 9.24001 37.24ZM18.76 46.76H9.21668C8.79587 46.76 8.39229 46.5928 8.09473 46.2953C7.79718 45.9977 7.63001 45.5941 7.63001 45.1733C7.63001 44.31 8.35334 43.5866 9.21668 43.5866H18.76C19.1808 43.5866 19.5844 43.7538 19.882 44.0514C20.1795 44.3489 20.3467 44.7525 20.3467 45.1733C20.3467 45.5941 20.1795 45.9977 19.882 46.2953C19.5844 46.5928 19.1808 46.76 18.76 46.76Z" fill="#FE2C3D"/>
<path opacity="0.4" d="M39.6667 7H16.3334C9.33335 7 4.66669 10.5 4.66669 18.6667V25.9933C4.66669 27.6967 6.41669 28.77 7.98002 28.0933C10.666 26.9276 13.6317 26.5629 16.52 27.0433C22.6334 28.0467 27.6267 32.8767 28.8634 38.9433C29.2134 40.7167 29.26 42.4433 29.0267 44.1C28.84 45.4767 29.96 46.69 31.3367 46.69H39.6667C46.6667 46.69 51.3334 43.19 51.3334 35.0233V18.69C51.3334 10.5 46.6667 7 39.6667 7Z" fill="#FE2C3D"/>
<path d="M28.0001 27.6966C26.0401 27.6966 24.0567 27.09 22.5401 25.8533L15.2367 20.02C14.8971 19.7251 14.6845 19.3104 14.6431 18.8626C14.6018 18.4147 14.7349 17.9682 15.0148 17.6161C15.2946 17.264 15.6996 17.0335 16.1453 16.9728C16.5909 16.912 17.0428 17.0256 17.4067 17.29L24.7101 23.1233C26.4834 24.5466 29.4934 24.5466 31.2667 23.1233L38.5701 17.29C39.3167 16.6833 40.4367 16.8 41.0201 17.57C41.6267 18.3166 41.5101 19.4366 40.7401 20.02L33.4367 25.8533C31.9434 27.09 29.9601 27.6966 28.0001 27.6966Z" fill="#FE2C3D"/>
</svg>
