<svg width="56" height="56" viewBox="0 0 56 56" fill="none" xmlns="http://www.w3.org/2000/svg">
<path d="M11.6666 35C6.50998 35 2.33331 39.1767 2.33331 44.3333C2.33331 46.0833 2.82331 47.74 3.68665 49.14C4.50922 50.5225 5.67764 51.6669 7.07689 52.4606C8.47613 53.2544 10.058 53.67 11.6666 53.6667C15.0733 53.6667 18.0366 51.8467 19.6466 49.14C20.51 47.74 21 46.0833 21 44.3333C21 39.1767 16.8233 35 11.6666 35ZM16.2633 43.5633L11.2933 48.16C10.9666 48.4633 10.5233 48.6267 10.1033 48.6267C9.65998 48.6267 9.21665 48.4633 8.86665 48.1133L6.55665 45.8033C6.23119 45.474 6.04868 45.0297 6.04868 44.5667C6.04868 44.1037 6.23119 43.6593 6.55665 43.33C7.23331 42.6533 8.35331 42.6533 9.02998 43.33L10.15 44.45L13.8833 40.9967C14.5833 40.3433 15.7033 40.39 16.3566 41.09C17.01 41.79 16.9633 42.91 16.2633 43.5633Z" fill="#FE2C3D"/>
<path d="M41.4189 16.4499C40.8589 16.3566 40.2756 16.3333 39.6689 16.3333H16.3356C15.6822 16.3333 15.0522 16.3799 14.4456 16.4733C14.7722 15.8199 15.2389 15.2133 15.7989 14.6533L23.3822 7.04659C24.9223 5.52194 27.0018 4.66669 29.1689 4.66669C31.336 4.66669 33.4155 5.52194 34.9556 7.04659L39.0389 11.1766C40.5322 12.6466 41.3256 14.5133 41.4189 16.4499Z" fill="#FE2C3D"/>
<path opacity="0.4" d="M51.3333 28V39.6666C51.3333 46.6666 46.6666 51.3333 39.6666 51.3333H17.8033C18.5266 50.7267 19.1566 49.98 19.6466 49.14C20.51 47.74 21 46.0833 21 44.3333C21 39.1766 16.8233 35 11.6666 35C8.86663 35 6.36996 36.2366 4.66663 38.1733V28C4.66663 21.6533 8.49329 17.22 14.4433 16.4733C15.05 16.38 15.68 16.3333 16.3333 16.3333H39.6666C40.2733 16.3333 40.8566 16.3566 41.4166 16.45C47.4366 17.15 51.3333 21.6066 51.3333 28Z" fill="#FE2C3D"/>
<path d="M51.3333 29.1666H44.3333C41.7666 29.1666 39.6666 31.2666 39.6666 33.8333C39.6666 36.4 41.7666 38.5 44.3333 38.5H51.3333" fill="#FE2C3D"/>
</svg>
