<svg width="255" height="185" viewBox="0 0 255 185" fill="none" xmlns="http://www.w3.org/2000/svg"><mask id="a" maskUnits="userSpaceOnUse" x="0" y="0" width="255" height="174"><rect width="255" height="174" rx="4" fill="#FFF5F6" fill-opacity="1"/></mask><g mask="url(#a)"><g filter="url(#filter0_b)"><rect y="32" width="255" height="117" rx="4" fill="#FFF5F6" fill-opacity=".2"/></g><path stroke="#FFCCD0" stroke-opacity=".4" stroke-width="2.554" stroke-linecap="round" stroke-dasharray="0.09 10.64" d="M161.44 173.82v-48.527M175.062 173.676v-48.527M202.305 173.676v-48.527M215.927 173.676v-48.527M188.684 173.676v-48.527"/><g filter="url(#filter1_d)"><rect x="52" y="19" width="164" height="113" rx="9.876" fill="#fff"/></g><path d="M65.637 29.822v.663c-.708.072-1.306.559-1.306 1.267 0 .396.15.942 1.111 1.202l.565.143c.416.097.734.318.709.727-.046.332-.319.61-.845.61-.54 0-.87-.37-.89-.733h-.689c0 .662.54 1.267 1.345 1.351v.728h.422v-.721c.748-.052 1.287-.546 1.339-1.196.071-.65-.3-1.15-1.209-1.39l-.571-.15c-.533-.136-.598-.409-.598-.584 0-.364.357-.617.773-.617.468 0 .78.26.78.675h.688c0-.72-.5-1.221-1.202-1.306v-.669h-.422zM72.61 35v-.65h-1.54c.52-.623.618-.727 1.105-1.299.28-.305.461-.675.461-1.091 0-.754-.604-1.267-1.351-1.267-.695 0-1.254.448-1.37 1.17l.636.136a.718.718 0 01.72-.65c.397 0 .703.247.703.61 0 .228-.118.436-.293.644l-1.728 2.079V35h2.657zm3.263-1.397c0 .442-.319.812-.975.812-.37 0-.695-.233-.87-.617-.117.065-.448.253-.565.325.279.572.844.942 1.435.942.981 0 1.63-.578 1.63-1.462 0-.91-.649-1.384-1.435-1.384-.26 0-.604.091-.792.24l.201-1.071h1.78v-.63h-2.32l-.363 2.15.396.292c.39-.292.682-.383 1.027-.383.461 0 .85.26.85.786zm4.66-1.897c0-.734-.48-1.182-1.24-1.182h-1.716V35h1.852c.85 0 1.344-.604 1.344-1.312 0-.429-.299-.949-.818-1.072.435-.176.578-.559.578-.91zm-2.26.656v-1.208h.948c.37 0 .597.215.597.578 0 .338-.188.63-.552.63h-.994zm1.103.592c.43 0 .676.396.676.727 0 .345-.24.689-.656.689h-1.124v-1.416h1.104z" fill="#CF969B"/><path stroke="#FF838D" stroke-opacity=".4" stroke-width=".139" d="M96.018 33.643H193"/><path d="M65.637 48.383v.663c-.708.072-1.306.559-1.306 1.267 0 .396.15.942 1.111 1.202l.565.143c.416.097.734.318.708.727-.045.332-.318.611-.844.611-.54 0-.87-.37-.89-.734h-.689c0 .663.54 1.267 1.345 1.351v.728h.422v-.721c.747-.052 1.287-.546 1.339-1.196.071-.65-.3-1.15-1.209-1.39l-.571-.15c-.533-.136-.598-.409-.598-.584 0-.364.357-.617.773-.617.468 0 .78.26.78.675h.688c0-.72-.5-1.22-1.202-1.305v-.67h-.422zm4.206 1.43v.617l.701-.254v3.385h.663v-4.288l-1.364.54zm4.805 2.351c0 .442-.318.813-.974.813-.37 0-.695-.234-.87-.618a25.3 25.3 0 00-.566.325c.28.572.845.942 1.436.942.98 0 1.63-.578 1.63-1.462 0-.91-.65-1.383-1.435-1.383-.26 0-.605.09-.793.24l.202-1.072h1.78v-.63h-2.32l-.364 2.15.397.293c.39-.293.682-.384 1.026-.384.462 0 .851.26.851.786zm4.66-1.897c0-.734-.48-1.182-1.24-1.182h-1.715v4.476h1.851c.851 0 1.345-.604 1.345-1.312 0-.429-.3-.949-.819-1.072.435-.175.578-.559.578-.91zm-2.26.657v-1.209h.948c.37 0 .598.215.598.578 0 .338-.189.63-.552.63h-.994zm1.104.59c.429 0 .676.397.676.728 0 .345-.24.689-.657.689h-1.123v-1.416h1.104z" fill="#CF969B"/><path stroke="#FF838D" stroke-opacity=".4" stroke-width=".139" d="M96.018 52.204H193"/><path d="M65.637 66.945v.662c-.708.072-1.306.559-1.306 1.267 0 .396.15.942 1.111 1.202l.565.143c.416.097.734.318.708.728-.045.33-.318.61-.844.61-.54 0-.87-.37-.89-.734h-.689c0 .663.54 1.267 1.345 1.351v.728h.422v-.721c.747-.052 1.287-.546 1.339-1.196.071-.65-.3-1.15-1.209-1.39l-.571-.15c-.533-.136-.598-.408-.598-.584 0-.364.357-.617.773-.617.468 0 .78.26.78.676h.688c0-.722-.5-1.222-1.202-1.306v-.67h-.422zm4.206 1.429v.617l.701-.253v3.384h.663v-4.287l-1.364.539zm2.505 1.637c0 1.195.332 2.176 1.553 2.176 1.228 0 1.546-.98 1.546-2.176 0-1.208-.318-2.19-1.546-2.19-1.221 0-1.552.982-1.552 2.19zm.663 0c0-.838.182-1.527.89-1.527.702 0 .884.689.884 1.527s-.182 1.527-.884 1.527c-.708 0-.89-.689-.89-1.527zm6.52-1.182c0-.734-.481-1.183-1.241-1.183h-1.716v4.476h1.852c.851 0 1.345-.604 1.345-1.312 0-.429-.3-.948-.819-1.072.436-.175.578-.559.578-.91zm-2.261.656v-1.209h.948c.37 0 .598.215.598.579 0 .337-.189.63-.552.63h-.994zm1.104.59c.429 0 .676.397.676.728 0 .345-.24.69-.656.69H77.27v-1.417h1.104z" fill="#CF969B"/><path stroke="#333" stroke-opacity=".25" stroke-width=".139" d="M96.018 70.765H193"/><path d="M65.637 85.506v.662c-.708.072-1.306.56-1.306 1.267 0 .397.15.942 1.111 1.202l.565.143c.416.097.734.318.708.728-.045.33-.318.61-.844.61-.54 0-.87-.37-.89-.734h-.689c0 .663.54 1.267 1.345 1.351v.728h.422v-.721c.747-.052 1.287-.546 1.339-1.195.071-.65-.3-1.15-1.209-1.39l-.571-.15c-.533-.136-.598-.41-.598-.585 0-.364.357-.617.773-.617.468 0 .78.26.78.676h.688c0-.721-.5-1.222-1.202-1.306v-.67h-.422zm6.648 3.78c0 .442-.318.813-.974.813-.37 0-.695-.234-.87-.617-.118.065-.449.253-.566.325.28.571.845.941 1.436.941.98 0 1.63-.578 1.63-1.461 0-.91-.65-1.384-1.435-1.384-.26 0-.605.091-.793.24l.201-1.072h1.78v-.63h-2.319l-.364 2.15.397.293c.39-.292.682-.383 1.026-.383.461 0 .851.26.851.786zm4.66-1.896c0-.734-.48-1.183-1.24-1.183h-1.716v4.477h1.852c.85 0 1.345-.605 1.345-1.313 0-.429-.3-.948-.819-1.072.435-.175.578-.558.578-.91zm-2.26.656v-1.208h.948c.37 0 .598.214.598.578 0 .338-.189.63-.552.63h-.995zm1.104.591c.429 0 .676.396.676.728 0 .344-.24.688-.657.688h-1.124v-1.416h1.105z" fill="#CF969B"/><path stroke="#333" stroke-opacity=".25" stroke-width=".139" d="M96.018 89.326H193"/><path d="M65.637 104.067v.663c-.708.071-1.306.558-1.306 1.266 0 .397.15.942 1.111 1.202l.565.143c.416.098.734.319.708.728-.045.331-.318.61-.844.61-.54 0-.87-.37-.89-.734h-.689c0 .663.54 1.267 1.345 1.352v.727h.422v-.721c.747-.052 1.287-.546 1.339-1.195.071-.65-.3-1.15-1.209-1.39l-.571-.15c-.533-.136-.598-.409-.598-.585 0-.363.357-.617.773-.617.468 0 .78.26.78.676h.688c0-.721-.5-1.221-1.202-1.306v-.669h-.422zm4.206 1.429v.617l.701-.253v3.385h.663v-4.288l-1.364.539zm5.637.455c0-.734-.48-1.182-1.241-1.182h-1.715v4.476h1.851c.851 0 1.345-.605 1.345-1.313 0-.428-.299-.948-.818-1.072.435-.175.578-.558.578-.909zm-2.261.656v-1.208h.949c.37 0 .597.214.597.578 0 .338-.188.63-.552.63h-.994zm1.104.591c.43 0 .676.397.676.728 0 .344-.24.688-.656.688h-1.124v-1.416h1.104z" fill="#CF969B"/><path stroke="#333" stroke-opacity=".25" stroke-width=".139" d="M96.018 107.887H193"/><path d="M118.63 58.895c-14.899.452-22.148 9.155-22.148 9.155v44.547h83.061V37.889s-9.895 24.167-28.074 25.753c-18.843-.683-10.716-3.844-32.839-4.747z" fill="url(#paint0_linear)"/><path d="M96.482 68.05s9.205-8.703 24.405-8.703c12.793 0 14.649 3.624 30.35 4.295 15.702.671 28.306-25.754 28.306-25.754" stroke="url(#paint1_linear)" stroke-width=".928"/><circle cx="179.543" cy="37.889" r="1.392" fill="#E70077"/><path stroke="#333" stroke-width=".139" d="M151.307 30l.046 82.595"/><path stroke="#C38C91" stroke-width=".139" d="M192.072 63.48H87.665"/><g filter="url(#filter2_d)"><path d="M138.245 46.241c0-.513.415-.928.928-.928h24.593c.513 0 .928.415.928.928v12.065a.928.928 0 01-.928.928h-8.707a.928.928 0 00-.743.372l-2.847 3.804-3.107-3.832a.928.928 0 00-.721-.344h-8.468a.928.928 0 01-.928-.928V46.24z" fill="#fff"/><path d="M151.379 63.483l.094.116.089-.12 2.847-3.804a.811.811 0 01.65-.325h8.707c.577 0 1.044-.468 1.044-1.044V46.24c0-.577-.467-1.044-1.044-1.044h-24.593c-.577 0-1.045.467-1.045 1.044v12.065c0 .576.468 1.044 1.045 1.044h8.468c.245 0 .477.11.631.3l3.107 3.833z" stroke="#A0313A" stroke-width=".232"/></g><path d="M146.061 48.028v.44l.501-.18v2.417h.473v-3.063l-.974.386zm3.665 2.677v-.464h-1.1c.371-.445.441-.52.789-.928.199-.218.329-.483.329-.78 0-.538-.431-.904-.965-.904a.96.96 0 00-.979.835l.455.097a.513.513 0 01.515-.464c.283 0 .501.177.501.436 0 .163-.084.311-.209.46l-1.234 1.485v.227h1.898zm.771.594c.213-.162.464-.561.501-1.179h-.501c.014.446-.139.808-.325 1.068l.325.111zm2.853-1.592c0 .316-.228.58-.696.58-.265 0-.497-.167-.622-.44-.084.046-.32.18-.404.232.2.408.603.672 1.026.672.7 0 1.164-.412 1.164-1.044 0-.65-.464-.988-1.025-.988-.186 0-.432.065-.566.172l.144-.766h1.271v-.45h-1.656l-.26 1.536.283.209c.278-.21.487-.274.733-.274.329 0 .608.186.608.561zm3.328-1.355c0-.524-.343-.844-.886-.844h-1.225v3.197h1.323c.607 0 .96-.431.96-.937 0-.306-.213-.678-.585-.766.311-.125.413-.399.413-.65zm-1.614.47v-.864h.677c.265 0 .427.153.427.413 0 .241-.135.45-.394.45h-.71zm.788.421c.307 0 .483.283.483.52 0 .246-.172.492-.469.492h-.802v-1.012h.788zm-6.565 7.462v-.371h-.88c.297-.357.353-.416.631-.743a.921.921 0 00.264-.623c0-.43-.346-.724-.772-.724a.768.768 0 00-.784.668l.364.078a.41.41 0 01.412-.371c.227 0 .401.14.401.349 0 .13-.067.248-.167.367l-.987 1.188v.182h1.518zm.55-1.206c0 .683.189 1.243.887 1.243.702 0 .884-.56.884-1.243 0-.69-.182-1.251-.884-1.251-.698 0-.887.56-.887 1.25zm.379 0c0-.48.104-.873.508-.873.401 0 .505.394.505.873 0 .478-.104.872-.505.872-.404 0-.508-.394-.508-.872zm1.854-.936v.353l.401-.145v1.934h.379v-2.45l-.78.308zm1.955.32c0-.15.127-.272.301-.272.175 0 .301.123.301.271 0 .153-.119.279-.293.282-.182 0-.309-.118-.309-.282zm-.178 1.05c0-.227.193-.438.449-.438h.041c.264 0 .464.204.464.438 0 .245-.208.442-.475.442s-.479-.197-.479-.442zm-.193-1.054c0 .174.071.319.178.423a.732.732 0 00-.363.635c0 .449.375.805.857.805.479 0 .858-.356.858-.805a.735.735 0 00-.368-.635.561.561 0 00.19-.423c0-.346-.297-.635-.68-.635-.382 0-.672.29-.672.635z" fill="#A0313A"/><g filter="url(#filter3_d)"><rect y="115.359" width="181.919" height="49.198" rx="6.811" fill="url(#paint2_linear)"/></g><path d="M171 134v2.42c0 1.58-1 2.58-2.58 2.58H165v-6.99c0-1.11.91-2.02 2.02-2.01 1.09.01 2.09.45 2.81 1.17.72.73 1.17 1.73 1.17 2.83z" fill="#fff"/><path opacity=".4" d="M151 135v14c0 .83.94 1.3 1.6.8l1.71-1.28c.4-.3.96-.26 1.32.1l1.66 1.67c.39.39 1.03.39 1.42 0l1.68-1.68c.35-.35.91-.39 1.3-.09l1.71 1.28c.66.49 1.6.02 1.6-.8v-17c0-1.1.9-2 2-2h-12c-3 0-4 1.79-4 4v1z" fill="#fff"/><path d="M161 140.26h-3c-.41 0-.75.34-.75.75s.34.75.75.75h3c.41 0 .75-.34.75-.75s-.34-.75-.75-.75zM158 137.76h3c.41 0 .75-.34.75-.75s-.34-.75-.75-.75h-3c-.41 0-.75.34-.75.75s.34.75.75.75zM154.97 136.01c-.56 0-1 .45-1 1s.45 1 1 1 1-.45 1-1-.45-1-1-1zM154.97 140.01c-.56 0-1 .45-1 1s.45 1 1 1 1-.45 1-1-.45-1-1-1z" fill="#fff"/><g filter="url(#filter4_d)"><rect x="187" y="1" width="48.527" height="48.527" rx="6.811" fill="url(#paint3_linear)"/></g><path opacity=".4" d="M221.527 21.54v8.92c0 2.29-1.86 4.14-4.15 4.14h-11.7c-2.29 0-4.15-1.85-4.15-4.14v-8.92c0-2.29 1.86-4.14 4.15-4.14h11.7c2.29 0 4.15 1.85 4.15 4.14z" fill="#fff"/><path d="M208.777 26.75h-4c-.41 0-.75-.34-.75-.75s.34-.75.75-.75h4c.41 0 .75.34.75.75s-.34.75-.75.75zM218.167 25.67c.14-.28.23-.59.23-.92 0-1.07-.93-2-2-2h-.61v-.5c0-.41-.34-.75-.75-.75s-.75.34-.75.75v.5h-2.01c-.41 0-.75.34-.75.75s.34.75.75.75h.25v3.5h-.25c-.41 0-.75.34-.75.75s.34.75.75.75h2.01v.5c0 .41.34.75.75.75s.75-.34.75-.75v-.5h1.06c1.2 0 2.18-.9 2.18-2 0-.65-.34-1.21-.86-1.58zm-3.7-1.42h1.94c.26 0 .5.28.5.5 0 .28-.22.5-.5.5h-2.38v-1h.44zm2.38 3.5h-2.82v-1h2.83c.37 0 .68.23.68.5s-.32.5-.69.5zM17.343 136.983h2.38V144h1.583v-7.017h2.38v-1.435h-6.343v1.435zm8.11 4.993c0-1.521.417-2.429 1.435-2.429.147 0 .515 0 .871.159l.258-1.349c-.233-.135-.54-.209-.945-.209-.65 0-1.325.43-1.62 1.473v-1.35h-1.496V144h1.497v-2.024zm7.77 2.024h1.496v-5.729h-1.496v.712c-.43-.626-1.252-.835-1.78-.835-1.508 0-2.919 1.154-2.919 2.981 0 1.828 1.411 2.981 2.92 2.981.552 0 1.423-.257 1.779-.846V144zm-3.153-2.871c0-.932.748-1.545 1.582-1.545.785 0 1.57.564 1.57 1.545 0 .982-.748 1.546-1.57 1.546-.834 0-1.582-.613-1.582-1.546zm5.977-.012c0 1.803 1.448 3.006 3.092 3.006.981 0 1.852-.405 2.392-1.129l-1.202-.883c-.282.38-.712.576-1.19.576-.834 0-1.607-.638-1.607-1.57s.773-1.521 1.607-1.521c.478 0 .908.184 1.19.564l1.19-.895c-.54-.724-1.411-1.117-2.38-1.117-1.644 0-3.092 1.154-3.092 2.969zM46.432 144h1.877l-2.92-3.214 2.405-2.515h-1.938l-1.583 1.718v-4.834H42.79V144h1.484v-2.454l2.16 2.454zm9.662 0v-3.827l3.263-4.625H57.48l-2.196 3.251-2.17-3.251h-1.866l3.239 4.6V144h1.607zm5.373-1.349c-.834 0-1.496-.602-1.496-1.534 0-.92.662-1.496 1.496-1.496s1.497.576 1.497 1.496c0 .932-.663 1.534-1.497 1.534zm0 1.459c1.62 0 2.981-1.19 2.981-2.993 0-1.815-1.361-2.969-2.98-2.969-1.62 0-2.982 1.154-2.982 2.969 0 1.803 1.362 2.993 2.981 2.993zm8.09-2.784c0 .993-.614 1.337-1.24 1.337-.527 0-1.091-.344-1.091-1.276v-3.116h-1.51v3.386c0 1.619.896 2.466 2.258 2.466.576 0 1.263-.319 1.582-.933v.81h1.497v-5.729h-1.497v3.055zm4.69.65c0-1.521.417-2.429 1.436-2.429.147 0 .515 0 .87.159l.258-1.349c-.233-.135-.54-.209-.944-.209-.65 0-1.325.43-1.62 1.473v-1.35h-1.496V144h1.496v-2.024zm9.921-5.03c.786 0 1.141.724 1.141 1.337 0 .626-.38 1.313-1.19 1.313h-1.79v-2.65h1.84zM80.758 144h1.57v-3.006h1.865c1.877 0 2.687-1.337 2.687-2.711 0-1.374-.81-2.735-2.687-2.735h-3.435V144zm11.442 0h1.497v-5.729H92.2v.712c-.43-.626-1.251-.835-1.779-.835-1.509 0-2.92 1.154-2.92 2.981 0 1.828 1.411 2.981 2.92 2.981.552 0 1.423-.257 1.78-.846V144zm-3.153-2.871c0-.932.749-1.545 1.583-1.545.785 0 1.57.564 1.57 1.545 0 .982-.748 1.546-1.57 1.546-.834 0-1.583-.613-1.583-1.546zm11.658-2.858H99.11l-1.435 3.57-1.423-3.57h-1.595l2.233 5.287-1.313 3.239h1.582l3.546-8.526zm7.369 1.337c.626 0 1.08.442 1.08 1.276V144h1.484v-3.275c0-1.681-.822-2.577-2.208-2.577-.442 0-1.276.123-1.803 1.08-.332-.699-.908-1.018-1.828-1.067-.552 0-1.313.257-1.644.957v-.847h-1.497V144h1.497v-3.055c0-.981.589-1.337 1.202-1.337.589 0 1.043.442 1.055 1.239V144h1.497v-3.055c0-.883.478-1.337 1.165-1.337zm9.707 1.509c0-1.815-1.288-2.969-2.907-2.969-1.632 0-2.969 1.154-2.969 2.969 0 1.803 1.337 3.006 2.969 3.006 1.055 0 2.146-.405 2.674-1.387-.38-.196-.785-.417-1.141-.613-.282.491-.859.736-1.435.736-.847 0-1.485-.454-1.583-1.227h4.367c.013-.135.025-.368.025-.515zm-4.404-.503c.11-.785.724-1.214 1.509-1.214.736 0 1.325.429 1.435 1.214h-2.944zm7.161.331c0-.993.564-1.337 1.251-1.337.65 0 1.092.442 1.092 1.276V144h1.497v-3.386c0-1.631-.798-2.466-2.135-2.466-.675 0-1.374.344-1.705.97v-.847h-1.497V144h1.497v-3.055zm7.426-4.858h-1.484v2.184h-1.043v1.202h1.043V144h1.484v-4.527h1.215v-1.202h-1.215v-2.184zm4.51 5.717c.429.098.638.245.625.54 0 .331-.318.564-.748.576-.552.037-1.018-.318-1.055-.723h-1.398c.036 1.226 1.177 1.926 2.306 1.926 1.19 0 2.343-.589 2.343-1.767 0-.466-.172-1.349-1.497-1.717l-.956-.233c-.332-.086-.602-.246-.602-.479 0-.429.344-.564.724-.564.344 0 .736.159.773.589h1.423c-.061-1.313-1.141-1.804-2.233-1.804-1.128 0-2.11.773-2.11 1.706 0 .662.135 1.361 1.62 1.754l.785.196z" fill="#fff"/></g><defs><filter id="filter0_b" x="-50" y="-18" width="355" height="217" filterUnits="userSpaceOnUse" color-interpolation-filters="sRGB"><feFlood flood-opacity="0" result="BackgroundImageFix"/><feGaussianBlur in="BackgroundImage" stdDeviation="25"/><feComposite in2="SourceAlpha" operator="in" result="effect1_backgroundBlur"/><feBlend in="SourceGraphic" in2="effect1_backgroundBlur" result="shape"/></filter><filter id="filter1_d" x="21.139" y="-5.689" width="238.068" height="187.068" filterUnits="userSpaceOnUse" color-interpolation-filters="sRGB"><feFlood flood-opacity="0" result="BackgroundImageFix"/><feColorMatrix in="SourceAlpha" values="0 0 0 0 0 0 0 0 0 0 0 0 0 0 0 0 0 0 127 0" result="hardAlpha"/><feOffset dx="6.172" dy="12.345"/><feGaussianBlur stdDeviation="18.517"/><feColorMatrix values="0 0 0 0 0 0 0 0 0 0 0 0 0 0 0 0 0 0 0.1 0"/><feBlend in2="BackgroundImageFix" result="effect1_dropShadow"/><feBlend in="SourceGraphic" in2="effect1_dropShadow" result="shape"/></filter><filter id="filter2_d" x="136.156" y="45.081" width="30.626" height="22.419" filterUnits="userSpaceOnUse" color-interpolation-filters="sRGB"><feFlood flood-opacity="0" result="BackgroundImageFix"/><feColorMatrix in="SourceAlpha" values="0 0 0 0 0 0 0 0 0 0 0 0 0 0 0 0 0 0 127 0" result="hardAlpha"/><feOffset dy="1.856"/><feGaussianBlur stdDeviation=".928"/><feColorMatrix values="0 0 0 0 0 0 0 0 0 0 0 0 0 0 0 0 0 0 0.08 0"/><feBlend in2="BackgroundImageFix" result="effect1_dropShadow"/><feBlend in="SourceGraphic" in2="effect1_dropShadow" result="shape"/></filter><filter id="filter3_d" x="-12.77" y="106.846" width="215.973" height="83.252" filterUnits="userSpaceOnUse" color-interpolation-filters="sRGB"><feFlood flood-opacity="0" result="BackgroundImageFix"/><feColorMatrix in="SourceAlpha" values="0 0 0 0 0 0 0 0 0 0 0 0 0 0 0 0 0 0 127 0" result="hardAlpha"/><feOffset dx="4.257" dy="8.514"/><feGaussianBlur stdDeviation="8.514"/><feColorMatrix values="0 0 0 0 0 0 0 0 0 0 0 0 0 0 0 0 0 0 0.08 0"/><feBlend in2="BackgroundImageFix" result="effect1_dropShadow"/><feBlend in="SourceGraphic" in2="effect1_dropShadow" result="shape"/></filter><filter id="filter4_d" x="182.743" y="1" width="65.554" height="65.554" filterUnits="userSpaceOnUse" color-interpolation-filters="sRGB"><feFlood flood-opacity="0" result="BackgroundImageFix"/><feColorMatrix in="SourceAlpha" values="0 0 0 0 0 0 0 0 0 0 0 0 0 0 0 0 0 0 127 0" result="hardAlpha"/><feOffset dx="4.257" dy="8.514"/><feGaussianBlur stdDeviation="4.257"/><feColorMatrix values="0 0 0 0 0 0 0 0 0 0 0 0 0 0 0 0 0 0 0.08 0"/><feBlend in2="BackgroundImageFix" result="effect1_dropShadow"/><feBlend in="SourceGraphic" in2="effect1_dropShadow" result="shape"/></filter><linearGradient id="paint0_linear" x1="138.244" y1="34.176" x2="138.012" y2="112.597" gradientUnits="userSpaceOnUse"><stop stop-color="#FE2C3D"/><stop offset=".87" stop-color="#FE2C3D" stop-opacity="0"/></linearGradient><linearGradient id="paint1_linear" x1="195.552" y1="22.344" x2="89.025" y2="99.064" gradientUnits="userSpaceOnUse"><stop stop-color="#E70077"/><stop offset=".974" stop-color="#FC8F0C"/></linearGradient><linearGradient id="paint2_linear" x1="4.787" y1="121.871" x2="184.084" y2="151.43" gradientUnits="userSpaceOnUse"><stop stop-color="#E70060"/><stop offset=".974" stop-color="#FC8F0C"/></linearGradient><linearGradient id="paint3_linear" x1="188.277" y1="7.423" x2="237.307" y2="9.609" gradientUnits="userSpaceOnUse"><stop stop-color="#E70060"/><stop offset=".974" stop-color="#FC8F0C"/></linearGradient></defs></svg>