<svg width="255" height="185" viewBox="0 0 255 185" fill="none" xmlns="http://www.w3.org/2000/svg"><mask id="a" maskUnits="userSpaceOnUse" x="0" y="0" width="255" height="174"><rect width="255" height="174" rx="4" fill="#FFF5F6"/></mask><g mask="url(#a)"><g filter="url(#filter0_b)"><rect width="255" height="117" rx="4" fill="#FFF5F6" fill-opacity=".2"/></g><path stroke="#FFCCD0" stroke-opacity=".4" stroke-width="1.967" stroke-linecap="round" stroke-dasharray="0.07 11.48" d="M196.51 173.45v-52.466M186.016 173.449v-52.465M207.003 173.45v-52.466M227.989 173.45v-52.466M238.482 173.45v-52.466M217.496 173.45v-52.466M23.51 68.45V15.983M13.016 68.45V15.983M34.003 68.45V15.983M54.989 68.45V15.983M65.482 68.45V15.983M44.496 68.45V15.983"/><g filter="url(#filter1_d)"><rect x="50" y="24" width="75" height="70" rx="4" fill="url(#paint0_linear)"/><path d="M92 72.333c-.547 0-1-.453-1-1V46.667c0-.547.453-1 1-1 .547 0 1 .453 1 1v24.666c0 .547-.453 1-1 1z" fill="#fff"/><path opacity=".4" d="M80.667 69.667h8V48.333h-8a5.332 5.332 0 00-5.334 5.334v10.666a5.332 5.332 0 005.334 5.334zM96 69.667h-4V48.333h4a5.332 5.332 0 015.333 5.334v10.666A5.332 5.332 0 0196 69.667z" fill="#fff"/><path d="M79.667 60.333c-.174 0-.347-.04-.507-.106a1.541 1.541 0 01-.44-.28 1.95 1.95 0 01-.293-.44 1.315 1.315 0 01-.094-.507c0-.347.147-.693.387-.947l.2-.16c.08-.053.16-.093.24-.12a.85.85 0 01.24-.08c.453-.093.907.054 1.213.36.24.254.387.6.387.947 0 .173-.04.347-.107.507-.066.16-.16.306-.28.44-.133.12-.28.213-.44.28-.16.066-.333.106-.506.106zM84.333 60.333c-.173 0-.346-.04-.506-.106a1.54 1.54 0 01-.44-.28 1.32 1.32 0 01-.28-1.454c.066-.173.16-.306.28-.44.493-.493 1.386-.493 1.893 0 .24.254.387.6.387.947 0 .173-.04.347-.107.507-.067.16-.16.306-.28.44a1.54 1.54 0 01-.44.28c-.16.066-.333.106-.507.106z" fill="#fff"/></g><g filter="url(#filter2_d)"><rect x="125" y="94" width="75" height="70" rx="4" fill="#fff"/><path opacity=".4" d="M168.587 115.667h-11.174c-4.853 0-7.746 2.893-7.746 7.746v11.16c0 4.867 2.893 7.76 7.746 7.76h11.16c4.854 0 7.747-2.893 7.747-7.746v-11.174c.013-4.853-2.88-7.746-7.733-7.746z" fill="#FE2C3D"/><path d="M156.187 133.999a1.004 1.004 0 01-.95-1.316.998.998 0 01.51-.578 7.333 7.333 0 002.853-2.52c.24-.36.24-.813 0-1.173a7.527 7.527 0 00-2.853-2.52.988.988 0 01-.454-1.347.982.982 0 011.334-.44 9.44 9.44 0 013.626 3.2 3.063 3.063 0 010 3.387 9.444 9.444 0 01-3.626 3.2 1.019 1.019 0 01-.44.107zM169.667 134h-5.334c-.546 0-1-.453-1-1 0-.547.454-1 1-1h5.334c.546 0 1 .453 1 1 0 .547-.454 1-1 1z" fill="#FE2C3D"/></g><g filter="url(#filter3_d)"><rect x="50" y="94" width="75" height="70" rx="4" fill="#fff"/><path opacity=".4" d="M97.253 120.227l-6.893-3.987c-1.32-.76-3.387-.76-4.707 0l-6.96 4.013c-2.76 1.867-2.92 2.147-2.92 5.12v7.24c0 2.974.16 3.267 2.974 5.16l6.893 3.987c.667.387 1.52.573 2.36.573.84 0 1.693-.186 2.347-.573l6.96-4.013c2.76-1.867 2.92-2.147 2.92-5.12v-7.254c0-2.973-.16-3.253-2.974-5.146z" fill="#FE2C3D"/><path d="M88 133.333a4.331 4.331 0 003.064-7.397 4.331 4.331 0 00-6.128 0A4.332 4.332 0 0088 133.333z" fill="#FE2C3D"/></g><g filter="url(#filter4_d)"><rect x="125" y="24" width="75" height="70" rx="4" fill="#fff"/><path opacity=".4" d="M148.667 60.173v-2.346a2.54 2.54 0 012.533-2.534c2.413 0 3.4-1.706 2.187-3.8-.694-1.2-.28-2.76.933-3.453l2.307-1.32c1.053-.627 2.413-.253 3.04.8l.146.253c1.2 2.094 3.174 2.094 4.387 0l.147-.253c.626-1.053 1.986-1.427 3.04-.8l2.306 1.32a2.532 2.532 0 01.934 3.453c-1.214 2.094-.227 3.8 2.186 3.8a2.541 2.541 0 012.534 2.534v2.346a2.541 2.541 0 01-2.534 2.534c-2.413 0-3.4 1.706-2.186 3.8a2.529 2.529 0 01-.934 3.453l-2.306 1.32c-1.054.627-2.414.253-3.04-.8l-.147-.253c-1.2-2.094-3.173-2.094-4.387 0l-.146.253c-.627 1.053-1.987 1.427-3.04.8l-2.307-1.32a2.533 2.533 0 01-.933-3.453c1.213-2.094.226-3.8-2.187-3.8a2.54 2.54 0 01-2.533-2.534z" fill="#FE2C3D"/><path d="M162 63.333a4.334 4.334 0 10-.001-8.668 4.334 4.334 0 00.001 8.668z" fill="#FE2C3D"/></g></g><defs><filter id="filter0_b" x="-50" y="-50" width="355" height="217" filterUnits="userSpaceOnUse" color-interpolation-filters="sRGB"><feFlood flood-opacity="0" result="BackgroundImageFix"/><feGaussianBlur in="BackgroundImage" stdDeviation="25"/><feComposite in2="SourceAlpha" operator="in" result="effect1_backgroundBlur"/><feBlend in="SourceGraphic" in2="effect1_backgroundBlur" result="shape"/></filter><filter id="filter1_d" x="-30" y="-26" width="235" height="230" filterUnits="userSpaceOnUse" color-interpolation-filters="sRGB"><feFlood flood-opacity="0" result="BackgroundImageFix"/><feColorMatrix in="SourceAlpha" values="0 0 0 0 0 0 0 0 0 0 0 0 0 0 0 0 0 0 127 0" result="hardAlpha"/><feOffset dy="30"/><feGaussianBlur stdDeviation="40"/><feColorMatrix values="0 0 0 0 0.996078 0 0 0 0 0.172549 0 0 0 0 0.239216 0 0 0 0.2 0"/><feBlend in2="BackgroundImageFix" result="effect1_dropShadow"/><feBlend in="SourceGraphic" in2="effect1_dropShadow" result="shape"/></filter><filter id="filter2_d" x="45" y="44" width="235" height="230" filterUnits="userSpaceOnUse" color-interpolation-filters="sRGB"><feFlood flood-opacity="0" result="BackgroundImageFix"/><feColorMatrix in="SourceAlpha" values="0 0 0 0 0 0 0 0 0 0 0 0 0 0 0 0 0 0 127 0" result="hardAlpha"/><feOffset dy="30"/><feGaussianBlur stdDeviation="40"/><feColorMatrix values="0 0 0 0 0.996078 0 0 0 0 0.172549 0 0 0 0 0.239216 0 0 0 0.2 0"/><feBlend in2="BackgroundImageFix" result="effect1_dropShadow"/><feBlend in="SourceGraphic" in2="effect1_dropShadow" result="shape"/></filter><filter id="filter3_d" x="0" y="49" width="175" height="170" filterUnits="userSpaceOnUse" color-interpolation-filters="sRGB"><feFlood flood-opacity="0" result="BackgroundImageFix"/><feColorMatrix in="SourceAlpha" values="0 0 0 0 0 0 0 0 0 0 0 0 0 0 0 0 0 0 127 0" result="hardAlpha"/><feOffset dy="5"/><feGaussianBlur stdDeviation="25"/><feColorMatrix values="0 0 0 0 0.996078 0 0 0 0 0.172549 0 0 0 0 0.239216 0 0 0 0.1 0"/><feBlend in2="BackgroundImageFix" result="effect1_dropShadow"/><feBlend in="SourceGraphic" in2="effect1_dropShadow" result="shape"/></filter><filter id="filter4_d" x="75" y="-21" width="175" height="170" filterUnits="userSpaceOnUse" color-interpolation-filters="sRGB"><feFlood flood-opacity="0" result="BackgroundImageFix"/><feColorMatrix in="SourceAlpha" values="0 0 0 0 0 0 0 0 0 0 0 0 0 0 0 0 0 0 127 0" result="hardAlpha"/><feOffset dy="5"/><feGaussianBlur stdDeviation="25"/><feColorMatrix values="0 0 0 0 0.996078 0 0 0 0 0.172549 0 0 0 0 0.239216 0 0 0 0.1 0"/><feBlend in2="BackgroundImageFix" result="effect1_dropShadow"/><feBlend in="SourceGraphic" in2="effect1_dropShadow" result="shape"/></filter><linearGradient id="paint0_linear" x1="36" y1="15" x2="141.426" y2="25.512" gradientUnits="userSpaceOnUse"><stop stop-color="#E70077"/><stop offset=".974" stop-color="#FC8F0C"/></linearGradient></defs></svg>