<svg width="255" height="185" viewBox="0 0 255 185" fill="none" xmlns="http://www.w3.org/2000/svg"><g filter="url(#filter0_b)"><rect y="32" width="255" height="117" rx="4" fill="#FFF5F6" fill-opacity=".2"/></g><path stroke="#FFCCD0" stroke-opacity=".4" stroke-width="1.967" stroke-linecap="round" stroke-dasharray="0.07 11.48" d="M58.758 174.318v-52.466M48.264 174.318v-52.466M69.251 174.318v-52.466M90.237 174.318v-52.466M100.73 174.318v-52.466M79.744 174.318v-52.466"/><path stroke="#FFCCD0" stroke-opacity=".4" stroke-width="1.967" stroke-linecap="round" stroke-dasharray="0.33 11.48" d="M174.346 10.198h50.499M174.347 1.016h50.498M174.346 19.379h50.499M174.346 28.561h50.499M174.346 37.742h50.499"/><g filter="url(#filter1_d)"><rect x="53.019" y="17.412" width="147.56" height="122.639" rx="5.247" fill="#fff"/></g><rect x="69.415" y="68.566" width="9.182" height="39.349" rx="4.591" fill="#E75D69" fill-opacity=".5"/><rect x="122.208" y="42.005" width="9.182" height="65.91" rx="4.591" fill="#FE2C3D"/><rect x="95.647" y="81.027" width="9.182" height="26.889" rx="4.591" fill="#E75D69" fill-opacity=".5"/><rect x="175.002" y="58.073" width="9.182" height="49.843" rx="4.591" fill="#E75D69" fill-opacity=".5"/><rect x="148.441" y="91.192" width="9.182" height="16.724" rx="4.591" fill="#E75D69" fill-opacity=".5"/><path d="M118.816 25.238v1.105c-1.208.134-2.128.94-2.128 2.107 0 .651.269 1.55 1.839 2.046l.857.237c.713.207.868.486.858.806-.011.465-.424.754-1.044.754-.692 0-1.033-.403-1.064-.857h-1.518c0 1.187.847 2.045 2.2 2.179v1.188h.754v-1.188c1.126-.114 2.159-.785 2.19-2.066.031-.671-.227-1.653-1.952-2.148l-.847-.269c-.703-.196-.765-.537-.765-.723 0-.424.393-.713.92-.713.609 0 .919.32.919.806h1.508c0-1.219-.816-1.983-1.973-2.148v-1.116h-.754zm9.269 1.425l-2.603 1.24v1.27l1.157-.495v4.844h1.446v-6.859zm6.889 1.725c0-1.208-.826-1.983-2.107-1.983h-2.851v7.117h3.057c1.416 0 2.273-1.002 2.273-2.18 0-.588-.403-1.373-1.343-1.621.744-.28.971-.868.971-1.333zm-3.44.827v-1.477h1.178c.444 0 .671.3.671.743 0 .424-.258.734-.661.734h-1.188zm1.426 1.25c.537 0 .795.444.795.846 0 .424-.258.879-.764.879h-1.457v-1.725h1.426z" fill="#CF969B"/><g filter="url(#filter2_d)"><rect x="34" y="3.64" width="37.71" height="37.71" rx="5.247" fill="#FBD0D4"/></g><path opacity=".4" d="M57.19 12h-8.38C45.17 12 43 14.17 43 17.81v8.37c0 3.65 2.17 5.82 5.81 5.82h8.37c3.64 0 5.81-2.17 5.81-5.81v-8.38C63 14.17 60.83 12 57.19 12z" fill="#FE2C3D"/><path d="M56.58 29.25c-.41 0-.75-.34-.75-.75v-3.9c0-.41.34-.75.75-.75s.75.34.75.75v3.9c0 .41-.34.75-.75.75zM56.58 18.2c-.41 0-.75-.34-.75-.75V15.5c0-.41.34-.75.75-.75s.75.34.75.75v1.95c0 .41-.34.75-.75.75zM49.42 29.25c-.41 0-.75-.34-.75-.75v-1.95c0-.41.34-.75.75-.75s.75.34.75.75v1.95c0 .41-.33.75-.75.75zM49.42 20.15c-.41 0-.75-.34-.75-.75v-3.9c0-.41.34-.75.75-.75s.75.34.75.75v3.9c0 .41-.33.75-.75.75z" fill="#FE2C3D"/><path d="M56.58 17.33c-1.5 0-2.73 1.22-2.73 2.72 0 1.5 1.22 2.73 2.73 2.73 1.5 0 2.72-1.22 2.72-2.73s-1.22-2.72-2.72-2.72zM49.42 21.23c-1.5 0-2.72 1.22-2.72 2.73s1.22 2.72 2.72 2.72c1.5 0 2.73-1.22 2.73-2.72 0-1.5-1.22-2.73-2.73-2.73z" fill="#FE2C3D"/><g filter="url(#filter3_d)"><rect x="93.352" y="126.279" width="135.428" height="44.924" rx="5.247" fill="url(#paint0_linear)"/></g><rect x="216.975" y="153.495" width="5.247" height="109.851" rx="2.623" transform="rotate(90 216.975 153.495)" fill="#EEE"/><rect x="182.216" y="153.495" width="5.247" height="75.42" rx="2.623" transform="rotate(90 182.216 153.495)" fill="url(#paint1_linear)"/><path d="M195.462 142.125c.547-.037.886-.4.937-.822.069-.51-.253-.84-.845-.992l-.413-.101c-.399-.096-.45-.303-.45-.44 0-.289.28-.478.592-.478.349 0 .597.202.597.519h.427c0-.505-.349-.854-.845-.913v-.464h-.284v.459c-.491.05-.914.381-.914.881 0 .276.097.657.771.827l.409.101c.285.059.56.229.537.564-.037.239-.234.464-.638.464-.399 0-.679-.285-.679-.56h-.427c0 .459.381.877.941.95v.51h.284v-.505zm3.009-.042h.413v-3.025l-.9.326v.395l.487-.17v2.474zm1.129-.183v.183h1.85v-.413h-1.143c.418-.491.422-.509.813-.959.197-.221.325-.482.325-.776 0-.528-.417-.886-.941-.886-.463 0-.867.303-.941.79l.4.096a.526.526 0 01.541-.473c.294 0 .533.179.533.473 0 .17-.087.331-.22.491L199.6 141.9zm2.825-2.172c.124-.183.289-.289.523-.27.147.013.28.078.349.174.069.096.069.202.051.308a.409.409 0 01-.414.344h-.339v.399h.339c.313 0 .593.248.579.537-.014.29-.326.515-.652.492h.005c-.244-.019-.469-.207-.56-.414l-.363.198c.161.349.491.592.89.624.561.037 1.047-.33 1.098-.844.023-.317-.166-.698-.473-.808a.722.722 0 00.326-.409.672.672 0 00.027-.184c.014-.417-.335-.808-.826-.831-.372-.023-.702.152-.868.441l.308.243zm2.149 2.934c.197-.161.422-.533.459-1.106h-.441c.014.44-.133.757-.312 1.01l.294.096zm1.028-1.217c.183.418.578.684.996.684.67 0 1.125-.394 1.125-1.01 0-.624-.473-.959-1.024-.959-.179 0-.427.073-.565.174l.165-.849h1.258v-.395h-1.597l-.262 1.492.257.211c.308-.183.487-.247.744-.247.33 0 .62.188.62.573 0 .336-.216.611-.721.611-.289 0-.528-.184-.643-.477l-.353.192zm2.591 0c.184.418.578.684.996.684.67 0 1.125-.394 1.125-1.01 0-.624-.473-.959-1.024-.959-.179 0-.427.073-.565.174l.166-.849h1.258v-.395h-1.598l-.262 1.492.257.211c.308-.183.487-.247.744-.247.331 0 .62.188.62.573 0 .336-.216.611-.721.611-.289 0-.528-.184-.643-.477l-.353.192zm2.591 0c.184.418.579.684.996.684.671 0 1.125-.394 1.125-1.01 0-.624-.473-.959-1.024-.959-.179 0-.427.073-.564.174l.165-.849h1.258v-.395h-1.598l-.261 1.492.257.211c.307-.183.486-.247.743-.247.331 0 .62.188.62.573 0 .336-.216.611-.721.611-.289 0-.528-.184-.642-.477l-.354.192zM110.6 143.116v-2.439l2.101-2.983h-1.369l-1.322 2.03-1.307-2.03h-1.369l2.094 2.967v2.455h1.172zm3.54-1.007a.811.811 0 01-.827-.842c0-.504.378-.834.827-.834.464 0 .834.33.834.834 0 .511-.37.842-.834.842zm0 1.07c1.039 0 1.912-.755 1.912-1.912 0-1.165-.873-1.905-1.912-1.905-1.047 0-1.905.74-1.905 1.905 0 1.157.858 1.912 1.905 1.912zm5.222-1.794c0 .559-.322.747-.661.747-.251 0-.653-.141-.653-.731v-1.96h-1.094v2.196c0 1.046.63 1.558 1.456 1.558.354 0 .756-.213.952-.582v.503h1.094v-3.675h-1.094v1.944zm3.356.448c0-.975.283-1.463.913-1.463.181 0 .362.015.559.11l.196-.984a1.373 1.373 0 00-.629-.134c-.378 0-.85.284-1.039.968v-.889h-1.094v3.675h1.094v-1.283zm8.456-.724l-.716-2.652h-.944c-.244.882-.48 1.795-.724 2.652l-1.055-3.415h-1.243l1.826 5.422h.913l.747-2.849.764 2.849h.905l1.841-5.422h-1.251l-1.063 3.415zm5.319 2.007h1.086v-3.675h-1.086v.409c-.299-.401-.826-.488-1.07-.488a1.88 1.88 0 00-1.873 1.913 1.88 1.88 0 001.873 1.912c.275 0 .842-.142 1.07-.488v.417zm-1.81-1.841c0-.528.457-.874.921-.874.449 0 .889.331.889.874 0 .551-.44.873-.889.873-.464 0-.921-.346-.921-.873zm4.064-3.833v5.674h1.093v-5.674h-1.093zm2.255 0v5.674h1.094v-5.674h-1.094zm4.837 4.462c-.181.244-.496.347-.803.347-.393 0-.842-.189-.905-.614h2.692a5.49 5.49 0 00.015-.339c0-1.157-.834-1.936-1.881-1.936-1.046 0-1.92.74-1.92 1.905 0 1.157.874 1.928 1.92 1.928.63 0 1.299-.197 1.677-.748l-.795-.543zm-1.692-.952c.086-.472.519-.63.818-.63.315 0 .709.181.772.63h-1.59zm4.996-1.511v-1.409h-1.086v1.409h-.669v.866h.669v2.809h1.086v-2.809h.772v-.866h-.772z" fill="#fff"/><path stroke="#000" stroke-width=".328" d="M71.71 115.622h107.883"/><path d="M71.185 121.94l-.955-2.039h-.556l-.39 3.163h.675l.225-1.896.744 1.534h.518l.74-1.534.22 1.896h.675l-.386-3.163h-.565l-.945 2.039zm3.43.537a.473.473 0 01-.482-.491c0-.294.22-.487.482-.487a.47.47 0 01.487.487.471.471 0 01-.487.491zm0 .624c.606 0 1.116-.441 1.116-1.115 0-.68-.51-1.111-1.116-1.111-.61 0-1.11.431-1.11 1.111 0 .674.5 1.115 1.11 1.115zm2.303-1.17c0-.326.17-.437.395-.437.216 0 .372.138.372.427v1.143h.638v-1.28c0-.611-.303-.909-.785-.909a.71.71 0 00-.62.358v-.312h-.638v2.143h.638v-1.133zM95.776 120.507h.854v2.557h.68v-2.557h.853v-.606h-2.387v.606zm3.993 1.547c0 .326-.189.437-.386.437-.147 0-.381-.083-.381-.427v-1.143h-.638v1.28c0 .611.367.909.85.909.206 0 .44-.124.555-.339v.293h.638v-2.143h-.638v1.133zm2.825.303c-.106.143-.29.202-.469.202-.229 0-.491-.11-.528-.358h1.57c.005-.055.01-.142.01-.197 0-.675-.487-1.129-1.098-1.129-.61 0-1.12.431-1.12 1.111 0 .674.51 1.124 1.12 1.124.368 0 .758-.114.978-.436l-.463-.317zm-.987-.555c.05-.275.302-.367.477-.367.184 0 .413.105.45.367h-.927zM124.935 121.894l-.417-1.547h-.551c-.143.514-.28 1.046-.423 1.547l-.615-1.993h-.725l1.065 3.163h.532l.437-1.661.445 1.661h.528l1.074-3.163h-.73l-.62 1.993zm3.02.463c-.105.143-.289.202-.468.202-.229 0-.491-.11-.528-.358h1.57c.005-.055.009-.142.009-.197 0-.675-.486-1.129-1.097-1.129-.61 0-1.12.431-1.12 1.111 0 .674.51 1.124 1.12 1.124.367 0 .758-.114.978-.436l-.464-.317zm-.987-.555c.051-.275.303-.367.478-.367.183 0 .413.105.45.367h-.928zm3.626.184c0 .312-.225.518-.496.518-.27 0-.495-.202-.495-.518 0-.313.22-.51.495-.51.257 0 .496.193.496.51zm.647 1.078v-3.309h-.633v1.427c-.106-.197-.358-.307-.629-.307-.551 0-1.038.436-1.038 1.124 0 .68.487 1.111 1.038 1.111.271 0 .523-.114.629-.312v.266h.633zM148.57 120.507h.854v2.557h.679v-2.557h.854v-.606h-2.387v.606zm3.54 1.424c0-.326.225-.437.427-.437.197 0 .395.147.395.427v1.143h.638v-1.166c0-.647-.289-1.023-.859-1.023-.202 0-.518.114-.601.381v-1.501h-.638v3.309h.638v-1.133zm3.494.123c0 .326-.188.437-.385.437-.147 0-.382-.083-.382-.427v-1.143h-.638v1.28c0 .611.368.909.85.909.206 0 .44-.124.555-.339v.293h.638v-2.143h-.638v1.133zM177.342 123.064h.674v-1.262h1.033v-.588h-1.033v-.72h1.304v-.593h-1.978v3.163zm2.992-.748c0-.569.165-.854.532-.854.106 0 .211.009.326.065l.115-.574a.8.8 0 00-.367-.078c-.221 0-.496.165-.606.564v-.518h-.638v2.143h.638v-.748zm2.028-1.395h-.633v2.143h.633v-2.143zm-.716-.795c0 .207.184.377.399.377.221 0 .391-.17.391-.377 0-.215-.175-.371-.391-.371-.215 0-.399.16-.399.371z" fill="#E75D68"/><defs><filter id="filter0_b" x="-50" y="-18" width="355" height="217" filterUnits="userSpaceOnUse" color-interpolation-filters="sRGB"><feFlood flood-opacity="0" result="BackgroundImageFix"/><feGaussianBlur in="BackgroundImage" stdDeviation="25"/><feComposite in2="SourceAlpha" operator="in" result="effect1_backgroundBlur"/><feBlend in="SourceGraphic" in2="effect1_backgroundBlur" result="shape"/></filter><filter id="filter1_d" x="36.623" y="4.295" width="186.91" height="161.989" filterUnits="userSpaceOnUse" color-interpolation-filters="sRGB"><feFlood flood-opacity="0" result="BackgroundImageFix"/><feColorMatrix in="SourceAlpha" values="0 0 0 0 0 0 0 0 0 0 0 0 0 0 0 0 0 0 127 0" result="hardAlpha"/><feOffset dx="3.279" dy="6.558"/><feGaussianBlur stdDeviation="9.837"/><feColorMatrix values="0 0 0 0 0 0 0 0 0 0 0 0 0 0 0 0 0 0 0.1 0"/><feBlend in2="BackgroundImageFix" result="effect1_dropShadow"/><feBlend in="SourceGraphic" in2="effect1_dropShadow" result="shape"/></filter><filter id="filter2_d" x="30.721" y="3.64" width="50.826" height="50.826" filterUnits="userSpaceOnUse" color-interpolation-filters="sRGB"><feFlood flood-opacity="0" result="BackgroundImageFix"/><feColorMatrix in="SourceAlpha" values="0 0 0 0 0 0 0 0 0 0 0 0 0 0 0 0 0 0 127 0" result="hardAlpha"/><feOffset dx="3.279" dy="6.558"/><feGaussianBlur stdDeviation="3.279"/><feColorMatrix values="0 0 0 0 0 0 0 0 0 0 0 0 0 0 0 0 0 0 0.08 0"/><feBlend in2="BackgroundImageFix" result="effect1_dropShadow"/><feBlend in="SourceGraphic" in2="effect1_dropShadow" result="shape"/></filter><filter id="filter3_d" x="90.073" y="126.279" width="148.544" height="58.041" filterUnits="userSpaceOnUse" color-interpolation-filters="sRGB"><feFlood flood-opacity="0" result="BackgroundImageFix"/><feColorMatrix in="SourceAlpha" values="0 0 0 0 0 0 0 0 0 0 0 0 0 0 0 0 0 0 127 0" result="hardAlpha"/><feOffset dx="3.279" dy="6.558"/><feGaussianBlur stdDeviation="3.279"/><feColorMatrix values="0 0 0 0 0 0 0 0 0 0 0 0 0 0 0 0 0 0 0.08 0"/><feBlend in2="BackgroundImageFix" result="effect1_dropShadow"/><feBlend in="SourceGraphic" in2="effect1_dropShadow" result="shape"/></filter><linearGradient id="paint0_linear" x1="96.916" y1="132.225" x2="231.586" y2="150.325" gradientUnits="userSpaceOnUse"><stop stop-color="#E70077"/><stop offset=".974" stop-color="#FC8F0C"/></linearGradient><linearGradient id="paint1_linear" x1="184.839" y1="153.495" x2="184.839" y2="228.915" gradientUnits="userSpaceOnUse"><stop stop-color="#FF8993"/><stop offset="1" stop-color="#FF8993" stop-opacity="0"/></linearGradient></defs></svg>