<svg width="1440" height="972" viewBox="0 0 1440 972" fill="none" xmlns="http://www.w3.org/2000/svg"><g filter="url(#filter0_d)"><path d="M1730.09 92.496c-115.17 2.333-395.9-4.8-661.5 48-331.999 66-413.499 17.5-732.499 0-255.2-14-332-99-576-66" stroke="#FFCCD0" stroke-opacity=".2" stroke-width="2" shape-rendering="crispEdges"/></g><g filter="url(#filter1_d)"><path d="M1745.59 95.496c-198.5 42-505-15.5-667 10.5-334.219 53.641-523.999 103-696.999 55-173-47.999-372-143.947-616-110.948" stroke="#FFCCD0" stroke-opacity=".2" stroke-width="2" shape-rendering="crispEdges"/></g><path d="M827.585 223.899c239.545-6.654 497.725-325.059 730.605-189.9 232.89 135.159 344.19 373.278 13.77 649.753-203.78 170.506-559.15 63.133-1118.589-53.123C-3.464 535.695-322.298 1036.93-438.742 964.15c-116.444-72.777-212.094-392.998-85.254-625.886 126.841-232.887 325.771-267.482 650.839-201.697 169.169 34.236 401.315 95.649 700.742 87.332z" fill="url(#paint0_linear)"/><g filter="url(#filter2_d)"><path d="M1574.61 655.697c-115.17-3.474-395.9 7.147-661.499-71.476-332-98.279-413.5-26.059-732.5 0-255.2 20.847-332 147.419-576 98.28" stroke="#FFCCD0" stroke-width="2"/></g><g filter="url(#filter3_d)"><path d="M1590.11 651.23c-198.5-62.541-505 23.081-666.999-15.635-334.219-79.875-524-153.375-697-81.9-173 71.476-372 214.35-616 165.211" stroke="#FFCCD0" stroke-width="2"/></g><defs><filter id="filter0_d" x="-250.043" y="59.944" width="1990.15" height="129.173" filterUnits="userSpaceOnUse" color-interpolation-filters="sRGB"><feFlood flood-opacity="0" result="BackgroundImageFix"/><feColorMatrix in="SourceAlpha" values="0 0 0 0 0 0 0 0 0 0 0 0 0 0 0 0 0 0 127 0" result="hardAlpha"/><feOffset dy="4"/><feGaussianBlur stdDeviation="5"/><feComposite in2="hardAlpha" operator="out"/><feColorMatrix values="0 0 0 0 0.996078 0 0 0 0 0.172549 0 0 0 0 0.239216 0 0 0 0.2 0"/><feBlend in2="BackgroundImageFix" result="effect1_dropShadow"/><feBlend in="SourceGraphic" in2="effect1_dropShadow" result="shape"/></filter><filter id="filter1_d" x="-244.543" y="36.286" width="2000.34" height="159.181" filterUnits="userSpaceOnUse" color-interpolation-filters="sRGB"><feFlood flood-opacity="0" result="BackgroundImageFix"/><feColorMatrix in="SourceAlpha" values="0 0 0 0 0 0 0 0 0 0 0 0 0 0 0 0 0 0 127 0" result="hardAlpha"/><feOffset dy="4"/><feGaussianBlur stdDeviation="5"/><feComposite in2="hardAlpha" operator="out"/><feColorMatrix values="0 0 0 0 0.996078 0 0 0 0 0.172549 0 0 0 0 0.239216 0 0 0 0.2 0"/><feBlend in2="BackgroundImageFix" result="effect1_dropShadow"/><feBlend in="SourceGraphic" in2="effect1_dropShadow" result="shape"/></filter><filter id="filter2_d" x="-405.586" y="527.158" width="1990.23" height="181.588" filterUnits="userSpaceOnUse" color-interpolation-filters="sRGB"><feFlood flood-opacity="0" result="BackgroundImageFix"/><feColorMatrix in="SourceAlpha" values="0 0 0 0 0 0 0 0 0 0 0 0 0 0 0 0 0 0 127 0" result="hardAlpha"/><feOffset dy="4"/><feGaussianBlur stdDeviation="5"/><feComposite in2="hardAlpha" operator="out"/><feColorMatrix values="0 0 0 0 0.996078 0 0 0 0 0.172549 0 0 0 0 0.239216 0 0 0 0.2 0"/><feBlend in2="BackgroundImageFix" result="effect1_dropShadow"/><feBlend in="SourceGraphic" in2="effect1_dropShadow" result="shape"/></filter><filter id="filter3_d" x="-400.086" y="517.702" width="2000.5" height="226.276" filterUnits="userSpaceOnUse" color-interpolation-filters="sRGB"><feFlood flood-opacity="0" result="BackgroundImageFix"/><feColorMatrix in="SourceAlpha" values="0 0 0 0 0 0 0 0 0 0 0 0 0 0 0 0 0 0 127 0" result="hardAlpha"/><feOffset dy="4"/><feGaussianBlur stdDeviation="5"/><feComposite in2="hardAlpha" operator="out"/><feColorMatrix values="0 0 0 0 0.996078 0 0 0 0 0.172549 0 0 0 0 0.239216 0 0 0 0.2 0"/><feBlend in2="BackgroundImageFix" result="effect1_dropShadow"/><feBlend in="SourceGraphic" in2="effect1_dropShadow" result="shape"/></filter><linearGradient id="paint0_linear" x1="72.609" y1="-258.572" x2="1366.64" y2="790.841" gradientUnits="userSpaceOnUse"><stop stop-color="#E7004D"/><stop offset=".974" stop-color="#FC8F0C"/></linearGradient></defs></svg>